<?xml version="1.0" encoding="utf-8"?>
<!-- Generator: Adobe Illustrator 22.0.1, SVG Export Plug-In . SVG Version: 6.00 Build 0)  -->
<svg version="1.1" id="Layer_1" xmlns="http://www.w3.org/2000/svg" fill="#ffffff" xmlns:xlink="http://www.w3.org/1999/xlink" x="0px" y="0px"
	 viewBox="0 0 60 60" style="enable-background:new 0 0 60 60;" xml:space="preserve">
<title>Back</title>
<desc>Created with Sketch.</desc>
<g id="Symbols">
	<g id="Back">
		<g id="icon-arrow-left" transform="translate(16.000000, 12.000000)">
			<path id="Shape" d="M17.9,38c-0.2,0-0.2,0-0.3,0c-0.3-0.1-0.7-0.2-1-0.4c-0.1-0.1-0.3-0.2-0.4-0.4L0.7,20.9
				c-0.1-0.1-0.1-0.1-0.2-0.3c-0.1-0.1-0.2-0.3-0.3-0.5c-0.3-0.7-0.3-1.6,0-2.3c0.1-0.2,0.2-0.3,0.3-0.5c0.1-0.1,0.1-0.2,0.2-0.3
				L16.1,0.8c0.1-0.1,0.1-0.1,0.3-0.2c0.3-0.3,0.7-0.4,1.1-0.5C17.8,0,18.1,0,18.4,0c0.2,0,0.5,0.1,0.7,0.2c0.8,0.4,1.4,1.2,1.4,2.2
				c0,0.4,0,0.7-0.1,1.1c-0.1,0.3-0.2,0.6-0.4,0.8c-0.1,0.1-0.1,0.2-0.2,0.3L6.2,19l13.6,14.4l0.1,0.1c0.1,0.1,0.1,0.2,0.2,0.3
				c0.2,0.3,0.3,0.5,0.3,0.8c0.1,0.2,0.1,0.5,0.1,0.7c0,0.9-0.5,1.8-1.3,2.3c-0.3,0.2-0.5,0.3-0.8,0.3c-0.2,0-0.2,0-0.3,0H17.9
				L17.9,38z"/>
		</g>
	</g>
</g>
</svg>
