<?xml version="1.0" encoding="utf-8"?>
<svg version="1.1" id="Layer_1" xmlns="http://www.w3.org/2000/svg" xmlns:xlink="http://www.w3.org/1999/xlink" x="0px" y="0px"
	 viewBox="0 0 60 60" style="enable-background:new 0 0 60 60;" xml:space="preserve" fill="white">
<title>Buy and Sell</title>
<g id="Symbols">
	<g id="Buy-and-Sell">
		<g id="Page-1" transform="translate(7.000000, 7.000000)">
			<path id="Fill-1" d="M9.7,18.1c-4.6,0-8.3-3.8-8.3-8.4s3.7-8.4,8.3-8.4S18,5.1,18,9.7C18,14.4,14.3,18.1,9.7,18.1z M36.7,22.1
				C36.3,14.8,30.2,9,22.9,9c-1.2,0-2.4,0.2-3.5,0.5C19.3,4.2,15,0,9.7,0S0,4.4,0,9.8c0,2.8,1.2,5.3,3,7.1c-0.6,2-0.9,4.1-0.9,6.2
				c0,11.3,9,20.6,20.2,20.9v1.4l3.6-2.1l-3.6-2.1v1.4C11.9,42.2,3.5,33.6,3.5,23c0-1.8,0.2-3.5,0.7-5.2c1.6,1.1,3.5,1.7,5.5,1.7
				c4.9,0,9-3.7,9.6-8.5c1.1-0.3,2.3-0.5,3.6-0.5c6.6,0,12,5.2,12.4,11.7H34l2.1,3.6l2.1-3.6h-1.5V22.1z"/>
			<path id="Fill-4" d="M13,11.8c0,1.4-1,2.6-2.3,2.9v0.6c0,0.4-0.3,0.8-0.7,0.8s-0.7-0.3-0.7-0.8v-0.6C8,14.4,7,13.2,7,11.8
				C7,11.3,7.3,11,7.7,11s0.7,0.3,0.7,0.8c0,0.8,0.7,1.5,1.6,1.5c0.9,0,1.6-0.7,1.6-1.5c0-1-0.5-1.5-1.6-1.5c-2.2,0-3-1.6-3-3
				s1-2.6,2.3-2.9V3.8C9.3,3.3,9.6,3,10,3s0.7,0.3,0.7,0.8v0.6C12,4.6,13,5.8,13,7.2C13,7.7,12.7,8,12.3,8s-0.7-0.3-0.7-0.8
				c0-0.8-0.7-1.5-1.6-1.5c-0.9,0-1.6,0.7-1.6,1.5c0,1,0.5,1.5,1.6,1.5C12.2,8.7,13,10.3,13,11.8"/>
			<path id="Fill-6" d="M36.1,44.6c-4.7,0-8.4-3.8-8.4-8.5s3.8-8.5,8.4-8.5s8.5,3.8,8.5,8.5S40.8,44.6,36.1,44.6 M42.9,28.9
				c0.6-2,0.9-4.1,0.9-6.3c0-11.5-9.1-20.9-20.5-21.2V0l-3.6,2.1l3.6,2.1V2.8C34,3.2,42.5,11.9,42.5,22.6c0,1.8-0.3,3.6-0.7,5.3
				c-1.6-1.1-3.5-1.8-5.6-1.8c-5,0-9.2,3.8-9.8,8.7c-1.2,0.4-2.4,0.5-3.6,0.5c-6.5,0-11.9-5-12.6-11.3h1.6l-2.4-4.2L7,24.1h1.8
				c0.7,7.1,6.7,12.7,14,12.7c1.2,0,2.4-0.2,3.5-0.5c0.1,5.3,4.5,9.7,9.8,9.7c5.4,0,9.9-4.4,9.9-9.9C46,33.3,44.8,30.7,42.9,28.9"/>
		</g>
	</g>
</g>
<polygon points="43.1,37.6 39.8,43 43.1,45.2 46.5,43 "/>
<polygon points="39.8,43.7 43.1,45.8 46.5,43.7 43.1,48.6 "/>
</svg>
