<?xml version="1.0" encoding="utf-8"?>
<!-- Generator: Adobe Illustrator 22.1.0, SVG Export Plug-In . SVG Version: 6.00 Build 0)  -->
<svg version="1.1" id="Layer_1" xmlns="http://www.w3.org/2000/svg" xmlns:xlink="http://www.w3.org/1999/xlink" x="0px" y="0px"
	 viewBox="0 0 64 64" style="enable-background:new 0 0 64 64;" xml:space="preserve">
<style type="text/css">
	.st0{fill:none;stroke:#ffffff;stroke-width:2;stroke-miterlimit:10;}
	.st1{fill:none;stroke:#ffffff;stroke-width:2;stroke-miterlimit:10;stroke-dasharray:2;}
</style>
<g>
	<g>
		<path class="st0" d="M39,20C39,9.5,30.5,1,20,1S1,9.5,1,20s8.5,19,19,19"/>
		<g>
			<line class="st0" x1="20" y1="18" x2="9" y2="18"/>
			<line class="st0" x1="20" y1="22" x2="9" y2="22"/>
			<path class="st0" d="M26,25c-1.5,1.8-3.5,3-6,3c-4.4,0-8-3.6-8-8s3.6-8,8-8c2.5,0,4.5,1.2,6,3"/>
		</g>
	</g>
	<g>
		<circle class="st0" cx="44" cy="44" r="19"/>
	</g>
	<g>
		<polyline class="st1" points="56,21 56,8 47,8 		"/>
		<polyline class="st1" points="8,43 8,56 17,56 		"/>
		<polyline class="st0" points="45,11 42,8 45,5 		"/>
		<polyline class="st0" points="19,53 22,56 19,59 		"/>
	</g>
</g>
<path class="st0" d="M39.3,36.6c0,0,0,15.2,0,15.2H47c0,0,3.6,0.1,3.6-4c0-2.9-2.1-3.7-3.2-3.8c-0.2,0-0.7,0-0.5,0
	c0.7,0,2.6-1.7,2.6-4c0-2.2-2-3.4-4.2-3.4C43.3,36.6,39.7,36.6,39.3,36.6z"/>
<line class="st0" x1="39.3" y1="43.9" x2="47.6" y2="43.9"/>
<polyline class="st0" points="41.7,32 41.7,36.6 45.4,36.6 45.4,32 "/>
<polyline class="st0" points="45.5,56 45.5,51.8 41.8,51.8 41.8,56 "/>
</svg>
