<?xml version="1.0" encoding="utf-8"?>
<!-- Generator: Adobe Illustrator 22.0.1, SVG Export Plug-In . SVG Version: 6.00 Build 0)  -->
<svg version="1.1" id="Layer_1" xmlns="http://www.w3.org/2000/svg" xmlns:xlink="http://www.w3.org/1999/xlink" x="0px" y="0px"
	 viewBox="0 0 60 60" fill="white" style="enable-background:new 0 0 60 60;" xml:space="preserve">
<style type="text/css">
	.st0{filter:url(#Adobe_OpacityMaskFilter);}
	.st1{fill:#FFFFFF;}
	.st2{mask:url(#mask-2_1_);}
</style>
<title>Invest</title>
<desc>Created with Sketch.</desc>
<g id="Symbols">
	<g id="Invest">
		<g id="Page-1" transform="translate(4.000000, 8.000000)">
			<g id="Group-3" transform="translate(0.000000, 23.000000)">
				<g id="Clip-2">
				</g>
				<defs>
					<filter id="Adobe_OpacityMaskFilter" filterUnits="userSpaceOnUse" x="0" y="0.3" width="52" height="19.3">
						<feColorMatrix  type="matrix" values="1 0 0 0 0  0 1 0 0 0  0 0 1 0 0  0 0 0 1 0"/>
					</filter>
				</defs>
				<mask maskUnits="userSpaceOnUse" x="0" y="0.3" width="52" height="19.3" id="mask-2_1_">
					<g class="st0">
						<polygon id="path-1_1_" class="st1" points="0,0.3 52,0.3 52,19.5 0,19.5 						"/>
					</g>
				</mask>
				<path id="Fill-1" class="st2" d="M49.1,9.2C33,22.7,11.8,16.7,8.2,15.6V2C19,2,20.7,3.1,22.3,4.1c1.6,1,3,1.9,10.7,1.8
					c0,0,0.9,0,1.5,0.6c0.4,0.5,0.6,1.2,0.6,2.2c0,0.2-0.1,1-1.5,1.6c0,0,0,0,0,0c0,0,0,0,0,0c-1.5,0.6-4.7,1.1-11.8,0.2
					c-0.4-0.1-0.8,0.3-0.9,0.7c-0.1,0.5,0.2,0.9,0.7,0.9c2.7,0.4,5.1,0.6,7,0.6c2.4,0,4.2-0.3,5.5-0.8c5.8-1.2,9.8-3,12.4-4.2
					C48.1,7,49.7,6.3,50,6.6c0.4,0.3,0.4,0.6,0.4,0.8C50.4,8.1,49.5,8.9,49.1,9.2z M36.7,7.5c2.5-0.8,4.6-1.7,6.4-2.5
					c1.4-0.7,3.4-1.6,3.8-1.3c0.4,0.3,0.4,0.6,0.4,0.7c0,0.5-0.5,1.1-0.9,1.5c-0.2,0.1-0.4,0.2-0.5,0.2c-2.1,1-5.1,2.3-9.3,3.4
					c0.1-0.3,0.1-0.6,0.1-0.8C36.7,8.3,36.7,7.9,36.7,7.5z M1.6,15.3h5V2h-5V15.3z M51,5.3c-0.6-0.5-1.3-0.6-2.2-0.3
					c0-0.2,0.1-0.4,0.1-0.6c0-0.6-0.2-1.4-1.1-2.1c-1.1-0.9-2.7-0.1-5.4,1.1c-1.7,0.8-3.9,1.8-6.3,2.5c-0.1-0.2-0.3-0.4-0.5-0.6
					c-1.1-1.2-2.6-1.1-2.7-1.1c-7.2,0.1-8.5-0.6-9.9-1.5c-1.8-1.1-3.8-2.4-15.7-2.4H0.8C0.4,0.3,0,0.7,0,1.1v15
					C0,16.6,0.4,17,0.8,17h6.5c1,0.3,7.7,2.5,16.4,2.5c8.1,0,17.9-1.9,26.4-9c0.2-0.1,1.8-1.4,1.9-3.1C52,6.9,51.9,6.1,51,5.3z"/>
			</g>
			<path id="Fill-4" d="M5,28.5C5,28.2,4.8,28,4.5,28C4.2,28,4,28.2,4,28.5C4,28.8,4.2,29,4.5,29C4.8,29,5,28.8,5,28.5z"/>
			<path id="Fill-6" d="M24,12.7c-0.8,0-1.4-0.5-1.4-1c0-0.4-0.4-0.7-0.8-0.7c-0.4,0-0.8,0.3-0.8,0.7c0,1.1,0.9,2,2.2,2.3v0.4
				c0,0.4,0.4,0.7,0.8,0.7c0.4,0,0.8-0.3,0.8-0.7V14c1.3-0.3,2.2-1.2,2.2-2.3c0-1.4-1.2-2.4-3-2.4c-1,0-1.4-0.3-1.4-1
				c0-0.6,0.6-1,1.4-1s1.4,0.5,1.4,1c0,0.4,0.4,0.7,0.8,0.7C26.6,9,27,8.7,27,8.3c0-1.1-0.9-2-2.2-2.3V5.7C24.8,5.3,24.4,5,24,5
				c-0.4,0-0.8,0.3-0.8,0.7V6C21.9,6.3,21,7.2,21,8.3c0,1.4,1.2,2.4,3,2.4c1,0,1.4,0.3,1.4,1C25.4,12.3,24.8,12.7,24,12.7"/>
			<path id="Fill-8" d="M23.7,1.6c3.7,0,6.9,2.6,7.8,6.1c-2.3,1.8-3.8,4.5-3.8,7.6c0,0.4,0,0.9,0.1,1.3c-1.2,0.7-2.6,1.2-4.1,1.2
				c-4.4,0-8-3.6-8-8.1C15.6,5.2,19.2,1.6,23.7,1.6 M37.3,7.3c4.4,0,8,3.6,8,8.1c0,4.4-3.6,8.1-8,8.1c-4.4,0-8-3.6-8-8.1
				C29.3,10.9,32.9,7.3,37.3,7.3 M23.7,19.4c1.6,0,3.1-0.4,4.5-1.1c1.2,3.9,4.9,6.8,9.2,6.8c5.3,0,9.7-4.3,9.7-9.7
				c0-5.3-4.3-9.7-9.7-9.7c-1.6,0-3.1,0.4-4.5,1.1C31.6,2.9,28,0,23.7,0C18.3,0,14,4.3,14,9.7C14,15,18.3,19.4,23.7,19.4"/>
			<path id="Fill-10" d="M36.6,17.7c0-0.4-0.4-0.7-0.8-0.7c-0.4,0-0.8,0.3-0.8,0.7c0,1.1,0.9,2,2.2,2.3v0.4c0,0.4,0.4,0.7,0.8,0.7
				c0.4,0,0.8-0.3,0.8-0.7V20c1.3-0.3,2.2-1.2,2.2-2.3c0-1.4-1.2-2.4-3-2.4c-1,0-1.4-0.3-1.4-1c0-0.6,0.6-1,1.4-1s1.4,0.5,1.4,1
				c0,0.4,0.4,0.7,0.8,0.7c0.4,0,0.8-0.3,0.8-0.7c0-1.1-0.9-2-2.2-2.3v-0.4c0-0.4-0.4-0.7-0.8-0.7c-0.4,0-0.8,0.3-0.8,0.7V12
				c-1.3,0.3-2.2,1.2-2.2,2.3c0,1.4,1.2,2.4,3,2.4c1,0,1.4,0.3,1.4,1c0,0.6-0.6,1-1.4,1S36.6,18.3,36.6,17.7z"/>
		</g>
	</g>
</g>
</svg>
