<?xml version="1.0" encoding="utf-8"?>
<!-- Generator: Adobe Illustrator 22.0.1, SVG Export Plug-In . SVG Version: 6.00 Build 0)  -->
<svg version="1.1" id="Layer_1" xmlns="http://www.w3.org/2000/svg" xmlns:xlink="http://www.w3.org/1999/xlink" x="0px" y="0px"
	 viewBox="0 0 200 170" style="enable-background:new 0 0 200 170;" xml:space="preserve">
<style type="text/css">
	.st0{fill:url(#Fill-1_1_);}
	.st1{fill:url(#Fill-3_1_);}
	.st2{fill:url(#Fill-5_1_);}
	.st3{fill:url(#Fill-7_1_);}
	.st4{fill:url(#Fill-9_1_);}
	.st5{fill:url(#Fill-12_1_);}
	.st6{fill:url(#Fill-14_1_);}
	.st7{fill:url(#Fill-16_1_);}
</style>
<title>Stor Løve Hoved Copy</title>
<desc>Created with Sketch.</desc>
<g id="Login">
	<g id="Stor-Løve-Hoved-Copy">
		<g id="Page-1" transform="translate(10.000000, 6.000000)">
			
				<linearGradient id="Fill-1_1_" gradientUnits="userSpaceOnUse" x1="-438.2907" y1="612.7159" x2="-438.2907" y2="613.9407" gradientTransform="matrix(43 0 0 -74 18868 45488)">
				<stop  offset="0" style="stop-color:#EEE392"/>
				<stop  offset="1" style="stop-color:#DDCB7E"/>
			</linearGradient>
			<path id="Fill-1" class="st0" d="M0,135.7c5.3-7.4,11.7-14.2,14.7-23c1.9-5.8,3.4-11.8,5.4-17.6c3.5-10.1,7.5-20,13.8-28.9
				c1-1.5,2.4-2.7,3.7-4.1c0,3.1-0.1,5.9,0,8.6c0.3,5.2,1.7,10.2,3.8,14.9c2.3,5,1.8,9.9,0,14.8c-2.9,7.8-7.5,14.7-13,20.9
				c-3.7,4.1-8.6,6.8-13.7,9c-4.8,2.1-9.8,3.9-14.7,5.8V135.7z"/>
			
				<linearGradient id="Fill-3_1_" gradientUnits="userSpaceOnUse" x1="-443.6869" y1="612.8235" x2="-442.5649" y2="612.8235" gradientTransform="matrix(80 0 0 -68 35577 41740)">
				<stop  offset="0" style="stop-color:#BEA05B"/>
				<stop  offset="1" style="stop-color:#9A6C30"/>
			</linearGradient>
			<path id="Fill-3" class="st1" d="M115.6,52c0.6,0.3,0.8,0.5,1.1,0.6c5.7,2,11.5,4,17.3,6c0.3,0.1,0.7-0.1,1.1-0.2
				c-0.1-0.3-0.2-0.8-0.4-1c-3.7-3.5-7.4-6.9-11.1-10.4c-0.3-0.2-1-0.4-1.2-0.3C120.2,48.4,118.1,50.1,115.6,52 M176,73.6
				c-4.2-0.4-8-0.7-11.9-1c-1.3-0.1-2.4,0.1-2.9,1.4c-0.5,1.4,0.4,2.1,1.4,2.8c3.9,2.5,7.8,5.1,11.8,7.8
				c-3.4,5.1-6.8,10.2-10.3,15.2c-0.2,0.3-0.9,0.5-1.3,0.4c-11.6-1.9-23.1-1.2-34.4,1.9c-0.6,0.2-1.5-0.1-2-0.5
				c-8.1-6.9-16.2-13.9-24.3-20.8c-3.1-2.6-4.3-6.2-5.4-9.9c-2.5-8.8,0.7-16,6.3-22.5c3.5-4.1,6.9-8.1,10.5-12.2
				c1.8-2.1,5.1-2.7,7.9-1.4c4.5,2.1,8.9,4.2,13.3,6.3c2.8,1.3,4.4,3.5,5.2,6.4c0.3,1,0.6,2,0.8,3c0.7,3.2,2.7,5.3,5.7,6.8
				c8.4,4,16.8,8.2,25.3,12.3C173.6,70.3,175.1,71.4,176,73.6"/>
			
				<linearGradient id="Fill-5_1_" gradientUnits="userSpaceOnUse" x1="-444.6535" y1="614.2816" x2="-443.6535" y2="614.2816" gradientTransform="matrix(101 0 0 -87 44917.9961 53511)">
				<stop  offset="0" style="stop-color:#EADE8E"/>
				<stop  offset="1" style="stop-color:#B99855"/>
			</linearGradient>
			<path id="Fill-5" class="st2" d="M42.8,54.8c-2.4,1.9-4.9,3.6-7.1,5.7c-7.5,6.9-12.8,15.4-16.6,24.8c-3.3,8.2-6,16.6-8.9,24.8
				c-0.2,0.6-0.5,1.3-1.1,1.9c-0.2-1-0.4-1.9-0.6-2.9C6.7,91.9,9.3,75.6,18.7,60.7c0.6-1,1-2.3,1.3-3.5c0.3-1.5-0.5-2.4-1.9-2
				c-2.6,0.7-5.1,1.5-7.7,2.3c-0.4,0.1-0.9,0.1-1.4,0.1c0.2-0.4,0.3-1,0.6-1.3c10.7-9.8,21.9-18.8,35.2-24.9
				c10.4-4.7,21.3-7.6,32.7-6.1c7,0.9,13.9,3.2,20.7,5c3.1,0.8,6,2.2,9,3.3c2.1,0.8,2.5,2.2,0.9,3.9c-2.9,3.1-5.8,6-8.6,9.2
				c-1.1,1.3-2.1,1.3-3.5,0.7C90.3,45,84.4,43.7,78.4,43c-5.3-0.6-9.9,1.1-13.9,4.5c-9.3,7.9-14.4,18.1-16.3,30.2
				c-0.4,2.7-0.7,5.4-1,8.1c-0.1,0.4-0.4,0.8-0.6,1.3c-0.3-0.4-0.8-0.7-1-1.1c-3-6.6-3.7-13.5-3.2-20.7c0.2-2.8,0.6-5.5,0.9-8.3
				c0.1-0.6,0.1-1.1,0.1-1.7C43.2,55.1,43,55,42.8,54.8"/>
			
				<linearGradient id="Fill-7_1_" gradientUnits="userSpaceOnUse" x1="-441.5323" y1="615.0242" x2="-440.8763" y2="614.0176" gradientTransform="matrix(61 0 0 -92 27005 56632)">
				<stop  offset="0" style="stop-color:#CCB46B"/>
				<stop  offset="1" style="stop-color:#B89754"/>
			</linearGradient>
			<path id="Fill-7" class="st3" d="M68.9,58.3c-4.4,3.5-8.9,7-13.3,10.5c-0.2-0.1-0.4-0.3-0.5-0.4c0.6-1.7,1.3-3.4,1.9-5
				c2.6-6.9,6.9-12.4,13.7-15.5c5.4-2.4,11-1.9,16.6-1c2,0.3,3.9,0.9,5.8,1.3c3.4,0.7,4.2,3,2.8,6.3c-0.6,1.5-1.6,2.9-2.3,4.3
				c-2.1,4.3-1.8,8.8-0.6,13.2c1.9,7.3,5.8,13.6,9.7,19.9c3.4,5.3,6.9,10.6,9.9,16.2c4.5,8.6,4.8,17.5-0.4,26.1c-0.9,1.4-2,2.7-3,4
				c-0.2,0-0.3-0.1-0.5-0.1c-0.1-1.4-0.1-2.8-0.2-4.2c-0.5-4-0.7-8.1-1.7-11.9c-1.8-6.9-6.6-11-13.2-13.4c-6.7-2.5-13-6-18.9-10
				c-6.5-4.4-9.9-10.4-10.3-18.2c-0.2-4-1-8,0.4-11.8c0.9-2.4,2.3-4.7,3.5-7.1c0.4-0.8,0.8-1.6,1.2-2.5C69.2,58.6,69,58.4,68.9,58.3
				"/>
			
				<linearGradient id="Fill-9_1_" gradientUnits="userSpaceOnUse" x1="-440.1756" y1="614.8965" x2="-439.1756" y2="613.7646" gradientTransform="matrix(49.8421 0 0 -87.89 21994.2266 54105.9102)">
				<stop  offset="0" style="stop-color:#D0BA70"/>
				<stop  offset="1" style="stop-color:#BE9F5B"/>
			</linearGradient>
			<path id="Fill-9" class="st4" d="M61.7,68.1c-0.3,1.5-0.6,2.7-0.9,3.8C57.3,84.5,63,97,74.6,103c6,3.1,12,6.3,17.6,10
				c5.4,3.5,9.1,8.6,10.9,14.9c1.6,5.4,1,10.6-1.7,15.4c-2.2,3.9-2.7,7.6-0.1,11.5c0.2,0.3,0.3,0.7,0.5,1.1
				c-4.2,0.4-8.2-2.4-9.7-6.9c-1.2-3.6-2.1-7.4-3.4-11c-3.4-9.2-9.4-16.5-17.4-22.2c-6-4.3-11-9.4-13.6-16.4c-2.5-6.8-4.3-13.7-3-21
				C55.3,74.1,57.5,70.6,61.7,68.1"/>
			
				<linearGradient id="Fill-12_1_" gradientUnits="userSpaceOnUse" x1="-443.8987" y1="603.8448" x2="-442.7618" y2="603.8448" gradientTransform="matrix(83 0 0 -29 36841 17530.998)">
				<stop  offset="0" style="stop-color:#E7D98A"/>
				<stop  offset="1" style="stop-color:#BFA15C"/>
			</linearGradient>
			<path id="Fill-12" class="st5" d="M13,32.1c2.4-0.6,4.4-1.1,6.3-1.6C27,28.3,33.8,24.3,40,19.2C45,15.1,50,11,56,8.3
				c8.9-4,18-4.3,27.1-1.2c5,1.7,8,5.7,10,10.4c1.3,2.9,1.9,6.1,2.9,9.1L95.5,27c-1.9-0.8-3.9-1.6-5.8-2.4c-12.6-5-25.3-4.9-38-0.2
				c-6.1,2.3-12,4.9-18.2,6.9c-3.5,1.2-7.1,1.7-10.7,2.4C19.5,34.5,16.5,33.4,13,32.1"/>
			
				<linearGradient id="Fill-14_1_" gradientUnits="userSpaceOnUse" x1="-432.9152" y1="598.8636" x2="-431.7932" y2="598.8636" gradientTransform="matrix(27 0 0 -22 11817 13291)">
				<stop  offset="0" style="stop-color:#BEA05B"/>
				<stop  offset="1" style="stop-color:#9A6C30"/>
			</linearGradient>
			<path id="Fill-14" class="st6" d="M133,106.8c8.9-1.9,17.8-2.4,27-0.9c-0.4,0.6-0.7,1.2-1.1,1.7c-2.5,3.1-3.5,6.6-3.6,10.5
				c-0.1,4.6-3.3,8-7.8,8.7c-3.8,0.6-7.8-1.4-9.3-4.9c-1.5-3.8-2.8-7.7-4.1-11.5C133.7,109.4,133.4,108.2,133,106.8"/>
			
				<linearGradient id="Fill-16_1_" gradientUnits="userSpaceOnUse" x1="-435.8238" y1="606.1092" x2="-434.5127" y2="606.1092" gradientTransform="matrix(32.8898 0 0 -33.9039 14410.5928 20566.4121)">
				<stop  offset="0" style="stop-color:#C5AA63"/>
				<stop  offset="1" style="stop-color:#B69451"/>
			</linearGradient>
			<path id="Fill-16" class="st7" d="M82.2,0c5.7,0.5,11.4,0.6,16.8,3c2.8,1.3,4.6,3.3,5.3,6.5c1.4,6.3,3.4,12.3,6.5,17.9
				c0.8,1.4,1.9,2.6,2.8,3.9c0.5,0.7,0.9,1.4,1.3,2.2c-0.1,0.1-0.2,0.3-0.3,0.4c-0.6-0.1-1.2-0.1-1.7-0.3c-3.2-1.3-6.4-2.7-9.6-4.1
				c-1.8-0.8-2.6-2.4-2.7-4.1c-0.7-9-5.9-15.2-12.5-20.5c-1.9-1.5-3.9-3-5.9-4.4C82.1,0.3,82.2,0.2,82.2,0"/>
		</g>
	</g>
</g>
</svg>
