<?xml version="1.0" encoding="utf-8"?>
<!-- Generator: Adobe Illustrator 22.0.1, SVG Export Plug-In . SVG Version: 6.00 Build 0)  -->
<svg version="1.1" id="Layer_1" xmlns="http://www.w3.org/2000/svg" fill="#ffffff" xmlns:xlink="http://www.w3.org/1999/xlink" x="0px" y="0px"
	 viewBox="0 0 60 60" style="enable-background:new 0 0 60 60;" xml:space="preserve">
<style type="text/css">
	.st0{fill:none;}
</style>
<title>Settings</title>
<desc>Created with Sketch.</desc>
<g id="Symbols">
	<g id="Settings">
		<g id="icon-settings" transform="translate(8.000000, 7.000000)">
			<polygon id="Shape" class="st0" points="0,0 44,0 44,46.9 0,46.9 			"/>
			<path id="Shape_1_" d="M35.6,25.4c0.1-0.6,0.1-1.3,0.1-1.9s-0.1-1.3-0.1-1.9l3.9-3.2c0.3-0.3,0.4-0.8,0.2-1.3L36,10.3
				c-0.2-0.4-0.7-0.6-1.1-0.4l-4.6,2c-1-0.8-2-1.4-3.1-1.9l-0.7-5.2c-0.1-0.5-0.4-0.8-0.9-0.8h-7.3c-0.5,0-0.8,0.4-0.9,0.8l-0.7,5.2
				c-1.1,0.5-2.1,1.2-3.1,1.9l-4.6-2c-0.4-0.2-0.9,0-1.1,0.4l-3.7,6.8c-0.2,0.4-0.1,1,0.2,1.3l3.9,3.2c-0.1,0.6-0.1,1.3-0.1,1.9
				s0.1,1.3,0.1,1.9l-3.9,3.2c-0.3,0.3-0.4,0.8-0.2,1.3L8,36.6C8.2,37,8.7,37.2,9.1,37l4.6-2c1,0.8,2,1.4,3.1,1.9l0.7,5.2
				c0.1,0.5,0.4,0.8,0.9,0.8h7.3c0.5,0,0.8-0.4,0.9-0.8l0.7-5.2c1.1-0.5,2.1-1.2,3.1-1.9l4.6,2c0.4,0.2,0.9,0,1.1-0.4l3.7-6.8
				c0.2-0.4,0.1-1-0.2-1.3L35.6,25.4L35.6,25.4z M22,30.3c-3.5,0-6.4-3.1-6.4-6.8s2.9-6.8,6.4-6.8s6.4,3.1,6.4,6.8
				S25.5,30.3,22,30.3L22,30.3z"/>
		</g>
	</g>
</g>
</svg>
