<svg xmlns="http://www.w3.org/2000/svg" xmlns:xlink="http://www.w3.org/1999/xlink" width="620" height="259" viewBox="0 0 620 259">
  <defs>
    <linearGradient id="artboard-a" x1="50%" x2="50%" y1="0%" y2="100%">
      <stop offset="0%" stop-color="#FFF"/>
      <stop offset="100%"/>
    </linearGradient>
    <linearGradient id="artboard-c" x1="100%" x2="0%" y1="50%" y2="50%">
      <stop offset="0%" stop-color="#024DA0"/>
      <stop offset="100%" stop-color="#231F5E"/>
    </linearGradient>
    <path id="artboard-b" d="M138.591054,1.91269105 L119.88789,89.3431469 L97.2673378,89.3431469 L115.978277,1.91269105 L138.591054,1.91269105 Z M233.74873,58.3642903 L245.655102,25.5362398 L252.508912,58.3642903 L233.74873,58.3642903 Z M258.986921,89.3431469 L279.906008,89.3431469 L261.646029,1.91269105 L242.341585,1.91269105 C237.999154,1.91269105 234.338347,4.43573271 232.713337,8.32461202 L198.776029,89.3431469 L222.520093,89.3431469 L227.238323,76.2808665 L256.25395,76.2808665 L258.986921,89.3431469 Z M199.951375,60.7953258 C200.052452,37.722518 168.044682,36.4486865 168.264978,26.1388152 C168.334955,23.0041271 171.320619,19.6711722 177.858238,18.8171997 C181.094004,18.394749 190.031558,18.0668961 200.156121,22.7281087 L204.130527,4.18951909 C198.684023,2.21333084 191.685077,0.313598398 182.969115,0.313598398 C160.61551,0.313598398 144.878572,12.1992368 144.752874,29.2125979 C144.60385,41.8057765 155.982806,48.8228646 164.556224,53.009792 C173.364192,57.2939089 176.318755,60.0424304 176.286359,63.8742919 C176.22027,69.743247 169.257608,72.3297858 162.748497,72.430863 C151.377316,72.608396 144.777495,69.3570804 139.518891,66.9066069 L135.423969,86.065914 C140.703308,88.4917661 150.45855,90.6066115 160.575338,90.7102804 C184.337544,90.7102804 199.877511,78.9775535 199.951375,60.7953258 L199.951375,60.7953258 Z M106.272277,1.91269105 L69.6266195,89.3431469 L45.7192772,89.3431469 L27.6860734,19.5675033 C26.5910708,15.2717236 25.6412045,13.6946606 22.3121372,11.8882302 C16.8759997,8.93496262 7.8982737,6.1670032 0,4.44739546 L0.532598932,1.91269105 L39.0209709,1.91269105 C43.9232136,1.91269105 48.3369167,5.17437356 49.4500614,10.825624 L58.9746409,61.4199308 L82.5152545,1.91269105 L106.272277,1.91269105 L106.272277,1.91269105 Z"/>
  </defs>
  <g fill="none" fill-rule="evenodd">
    <g transform="translate(324)">
      <rect width="146.8" height="120.4" x=".6" y=".8"/>
      <g fill-rule="nonzero" transform="translate(15 15)">
        <path fill="#000" d="M21.9,91.1 L21.9,85.1 C21.9,82.8 20.5,81.3 18.1,81.3 C16.9,81.3 15.6,81.7 14.7,83 C14,81.9 13,81.3 11.5,81.3 C10.5,81.3 9.5,81.6 8.7,82.7 L8.7,81.5 L6.6,81.5 L6.6,91.1 L8.7,91.1 L8.7,85.8 C8.7,84.1 9.6,83.3 11,83.3 C12.4,83.3 13.1,84.2 13.1,85.8 L13.1,91.1 L15.2,91.1 L15.2,85.8 C15.2,84.1 16.2,83.3 17.5,83.3 C18.9,83.3 19.6,84.2 19.6,85.8 L19.6,91.1 L21.9,91.1 Z M53,81.5 L49.6,81.5 L49.6,78.6 L47.5,78.6 L47.5,81.5 L45.6,81.5 L45.6,83.4 L47.5,83.4 L47.5,87.8 C47.5,90 48.4,91.3 50.8,91.3 C51.7,91.3 52.7,91 53.4,90.6 L52.8,88.8 C52.2,89.2 51.5,89.3 51,89.3 C50,89.3 49.6,88.7 49.6,87.7 L49.6,83.4 L53,83.4 L53,81.5 Z M70.8,81.3 C69.6,81.3 68.8,81.9 68.3,82.7 L68.3,81.5 L66.2,81.5 L66.2,91.1 L68.3,91.1 L68.3,85.7 C68.3,84.1 69,83.2 70.3,83.2 C70.7,83.2 71.2,83.3 71.6,83.4 L72.2,81.4 C71.8,81.3 71.2,81.3 70.8,81.3 L70.8,81.3 Z M43.9,82.3 C42.9,81.6 41.5,81.3 40,81.3 C37.6,81.3 36,82.5 36,84.4 C36,86 37.2,86.9 39.3,87.2 L40.3,87.3 C41.4,87.5 42,87.8 42,88.3 C42,89 41.2,89.5 39.8,89.5 C38.4,89.5 37.3,89 36.6,88.5 L35.6,90.1 C36.7,90.9 38.2,91.3 39.7,91.3 C42.5,91.3 44.1,90 44.1,88.2 C44.1,86.5 42.8,85.6 40.8,85.3 L39.8,85.2 C38.9,85.1 38.2,84.9 38.2,84.3 C38.2,83.6 38.9,83.2 40,83.2 C41.2,83.2 42.4,83.7 43,84 L43.9,82.3 Z M99.7,81.3 C98.5,81.3 97.7,81.9 97.2,82.7 L97.2,81.5 L95.1,81.5 L95.1,91.1 L97.2,91.1 L97.2,85.7 C97.2,84.1 97.9,83.2 99.2,83.2 C99.6,83.2 100.1,83.3 100.5,83.4 L101.1,81.4 C100.7,81.3 100.1,81.3 99.7,81.3 L99.7,81.3 Z M72.9,86.3 C72.9,89.2 74.9,91.3 78,91.3 C79.4,91.3 80.4,91 81.4,90.2 L80.4,88.5 C79.6,89.1 78.8,89.4 77.9,89.4 C76.2,89.4 75,88.2 75,86.3 C75,84.5 76.2,83.3 77.9,83.2 C78.8,83.2 79.6,83.5 80.4,84.1 L81.4,82.4 C80.4,81.6 79.4,81.3 78,81.3 C74.9,81.3 72.9,83.4 72.9,86.3 L72.9,86.3 Z M92.3,86.3 L92.3,81.5 L90.2,81.5 L90.2,82.7 C89.5,81.8 88.5,81.3 87.2,81.3 C84.5,81.3 82.4,83.4 82.4,86.3 C82.4,89.2 84.5,91.3 87.2,91.3 C88.6,91.3 89.6,90.8 90.2,89.9 L90.2,91.1 L92.3,91.1 L92.3,86.3 Z M84.6,86.3 C84.6,84.6 85.7,83.2 87.5,83.2 C89.2,83.2 90.4,84.5 90.4,86.3 C90.4,88 89.2,89.4 87.5,89.4 C85.7,89.3 84.6,88 84.6,86.3 L84.6,86.3 Z M59.5,81.3 C56.7,81.3 54.7,83.3 54.7,86.3 C54.7,89.3 56.7,91.3 59.6,91.3 C61,91.3 62.4,90.9 63.5,90 L62.5,88.5 C61.7,89.1 60.7,89.5 59.7,89.5 C58.4,89.5 57.1,88.9 56.8,87.2 L63.9,87.2 L63.9,86.4 C64,83.3 62.2,81.3 59.5,81.3 L59.5,81.3 Z M59.5,83.1 C60.8,83.1 61.7,83.9 61.9,85.4 L56.9,85.4 C57.1,84.1 58,83.1 59.5,83.1 L59.5,83.1 Z M111.6,86.3 L111.6,77.7 L109.5,77.7 L109.5,82.7 C108.8,81.8 107.8,81.3 106.5,81.3 C103.8,81.3 101.7,83.4 101.7,86.3 C101.7,89.2 103.8,91.3 106.5,91.3 C107.9,91.3 108.9,90.8 109.5,89.9 L109.5,91.1 L111.6,91.1 L111.6,86.3 Z M103.9,86.3 C103.9,84.6 105,83.2 106.8,83.2 C108.5,83.2 109.7,84.5 109.7,86.3 C109.7,88 108.5,89.4 106.8,89.4 C105,89.3 103.9,88 103.9,86.3 L103.9,86.3 Z M33.7,86.3 L33.7,81.5 L31.6,81.5 L31.6,82.7 C30.9,81.8 29.9,81.3 28.6,81.3 C25.9,81.3 23.8,83.4 23.8,86.3 C23.8,89.2 25.9,91.3 28.6,91.3 C30,91.3 31,90.8 31.6,89.9 L31.6,91.1 L33.7,91.1 L33.7,86.3 Z M25.9,86.3 C25.9,84.6 27,83.2 28.8,83.2 C30.5,83.2 31.7,84.5 31.7,86.3 C31.7,88 30.5,89.4 28.8,89.4 C27,89.3 25.9,88 25.9,86.3 Z"/>
        <rect width="31.5" height="56.6" x="43.2" y="8.6" fill="#FF5F00"/>
        <path fill="#EB001B" d="M45.2,36.9 C45.2,25.4 50.6,15.2 58.9,8.6 C52.8,3.8 45.1,0.9 36.7,0.9 C16.8,0.9 0.7,17 0.7,36.9 C0.7,56.8 16.8,72.9 36.7,72.9 C45.1,72.9 52.8,70 58.9,65.2 C50.6,58.7 45.2,48.4 45.2,36.9 Z"/>
        <path fill="#F79E1B" d="M117.2,36.9 C117.2,56.8 101.1,72.9 81.2,72.9 C72.8,72.9 65.1,70 59,65.2 C67.4,58.6 72.7,48.4 72.7,36.9 C72.7,25.4 67.3,15.2 59,8.6 C65.1,3.8 72.8,0.9 81.2,0.9 C101.1,0.9 117.2,17.1 117.2,36.9 Z"/>
      </g>
      <g transform="translate(148)">
        <rect width="147.779" height="121.637"/>
        <path fill="#000" fill-rule="nonzero" d="M50.7327891,106.109752 L50.7327891,100.060165 C50.804032,99.0335972 50.430642,98.0259822 49.7079175,97.2944881 C48.9851929,96.5629939 47.9830569,96.1783924 46.9572789,96.238843 C45.6019555,96.1498614 44.3056923,96.8066611 43.5744218,97.9528926 C42.9077129,96.8408367 41.6869469,96.183142 40.3929252,96.238843 C39.2662297,96.1818024 38.1936266,96.7265552 37.5738776,97.6705785 L37.5738776,96.4808264 L35.4797279,96.4808264 L35.4797279,106.109752 L37.5940136,106.109752 L37.5940136,100.776033 C37.4991496,100.107893 37.7089785,99.4324134 38.1655729,98.9360742 C38.6221673,98.4397351 39.2772351,98.175032 39.949932,98.2150413 C41.3393197,98.2150413 42.0440816,99.1224793 42.0440816,100.755868 L42.0440816,106.109752 L44.1583673,106.109752 L44.1583673,100.776033 C44.0710469,100.109412 44.2834839,99.4383418 44.7383678,98.9438621 C45.1932517,98.4493823 45.8437179,98.1824368 46.5142857,98.2150413 C47.9439456,98.2150413 48.6285714,99.1224793 48.6285714,100.755868 L48.6285714,106.109752 L50.7327891,106.109752 Z M62.512381,101.300331 L62.512381,96.4909091 L60.3980952,96.4909091 L60.3980952,97.6604959 C59.6776925,96.7294851 58.5529415,96.2038392 57.3776871,96.2489256 C54.5974781,96.2489256 52.3436735,98.5060025 52.3436735,101.290248 C52.3436735,104.074493 54.5974781,106.33157 57.3776871,106.33157 C58.5529415,106.376657 59.6776925,105.851011 60.3980952,104.92 L60.3980952,106.089587 L62.4922449,106.089587 L62.512381,101.300331 Z M54.7297959,101.300331 C54.8229201,99.7180295 56.1619143,98.5004895 57.7435496,98.5599409 C59.325185,98.6193923 60.5692741,99.9340267 60.543695,101.518867 C60.5181158,103.103707 59.2322515,104.377389 57.6495238,104.38562 C56.8392038,104.404652 56.0584005,104.080782 55.4988314,103.493533 C54.9392624,102.906284 54.6527557,102.110047 54.7096599,101.300331 L54.7297959,101.300331 Z M107.254694,96.2590083 C107.944127,96.257224 108.627562,96.3872652 109.268299,96.6421488 C109.879893,96.8874276 110.437463,97.2505455 110.909388,97.7109091 C111.375213,98.1671165 111.744951,98.7122444 111.996735,99.3140496 C112.522747,100.606799 112.522747,102.054358 111.996735,103.347107 C111.745193,103.949044 111.375423,104.494217 110.909388,104.950248 C110.437463,105.410611 109.879893,105.773729 109.268299,106.019008 C107.940688,106.535632 106.468019,106.535632 105.140408,106.019008 C104.531668,105.773973 103.977351,105.410746 103.509388,104.950248 C103.048014,104.49243 102.681861,103.947544 102.432109,103.347107 C101.907166,102.054149 101.907166,100.607008 102.432109,99.3140496 C102.681861,98.7136132 103.048014,98.168727 103.509388,97.7109091 C103.977351,97.2504115 104.531668,96.8871841 105.140408,96.6421488 C105.80417,96.366618 106.516039,96.226094 107.234558,96.2287603 L107.254694,96.2590083 Z M107.254694,98.2755372 C106.844656,98.2699361 106.437535,98.3453115 106.056599,98.4973554 C105.697791,98.6414263 105.372274,98.8576093 105.100136,99.132562 C104.822512,99.4220125 104.606694,99.7650792 104.46585,100.140826 C104.158278,100.945868 104.158278,101.836281 104.46585,102.641322 C104.606439,103.017196 104.822289,103.360312 105.100136,103.649587 C105.372091,103.924762 105.697658,104.140977 106.056599,104.284793 C106.823619,104.585573 107.6757,104.585573 108.442721,104.284793 C108.818825,104.14557 109.161747,103.929215 109.449524,103.649587 C109.727823,103.360666 109.943735,103.017451 110.08381,102.641322 C110.391382,101.836281 110.391382,100.945868 110.08381,100.140826 C109.943735,99.7646974 109.727823,99.4214825 109.449524,99.132562 C109.161747,98.8529337 108.818825,98.636579 108.442721,98.4973554 C108.062922,98.3232353 107.652086,98.2272343 107.234558,98.2150413 L107.254694,98.2755372 Z M73.8892517,101.300331 C73.8892517,98.2755372 72.0165986,96.2590083 69.3284354,96.2590083 C66.5482266,96.2979879 64.3259754,98.5866638 64.3648983,101.370909 C64.4038212,104.155154 66.6891789,106.380632 69.4693878,106.341653 C70.9027371,106.390697 72.3039834,105.909777 73.4059864,104.990579 L72.3991837,103.437851 C71.604174,104.076364 70.619259,104.431164 69.6002721,104.446116 C68.1609131,104.570082 66.8845026,103.52423 66.7208163,102.086777 L73.8590476,102.086777 C73.8892517,101.834711 73.8892517,101.582645 73.8892517,101.300331 Z M66.7308844,100.453388 C66.8116963,99.1232354 67.9276055,98.0947522 69.2579592,98.1242975 C69.8908384,98.1107851 70.5031425,98.3496746 70.9600991,98.7883847 C71.4170556,99.2270948 71.6812107,99.8296671 71.6944218,100.463471 L66.7308844,100.453388 Z M82.6987755,98.9409917 C81.7793322,98.4108014 80.7392737,98.126106 79.6783673,98.1142149 C78.5306122,98.1142149 77.8459864,98.537686 77.8459864,99.2434711 C77.8459864,99.9492562 78.5708844,100.070248 79.4770068,100.19124 L80.4838095,100.332397 C82.5779592,100.634876 83.8465306,101.522149 83.8465306,103.216033 C83.8465306,104.909917 82.2356463,106.361818 79.4669388,106.361818 C77.9830314,106.401348 76.5255962,105.96313 75.3088435,105.11157 L76.3156463,103.478182 C77.2395924,104.164638 78.3673113,104.519782 79.5172789,104.486446 C80.9469388,104.486446 81.7121088,104.062975 81.7121088,103.31686 C81.7121088,102.772397 81.1684354,102.469917 80.0206803,102.308595 L79.0138776,102.167438 C76.8593197,101.864959 75.6914286,100.897025 75.6914286,99.3241322 C75.6914286,97.4084298 77.2620408,96.238843 79.7186395,96.238843 C81.0935705,96.1927096 82.4528465,96.5426452 83.635102,97.2471074 L82.6987755,98.9409917 Z M92.7668027,98.3965289 L89.3537415,98.3965289 L89.3537415,102.742149 C89.3537415,103.750413 89.6960544,104.355372 90.7431293,104.355372 C91.3966759,104.333697 92.034055,104.146368 92.5956463,103.810909 L93.1997279,105.60562 C92.4147315,106.096219 91.5073514,106.354848 90.5820408,106.351736 C88.1053061,106.351736 87.2394558,105.020826 87.2394558,102.782479 L87.2394558,98.3965289 L85.2862585,98.3965289 L85.2862585,96.4808264 L87.2394558,96.4808264 L87.2394558,93.5568595 L89.3537415,93.5568595 L89.3537415,96.4808264 L92.7668027,96.4808264 L92.7668027,98.3965289 Z M100.005714,96.238843 C100.513669,96.2408086 101.017573,96.3294609 101.495782,96.5009917 L100.851429,98.5175207 C100.435305,98.351371 99.9905179,98.2691373 99.542585,98.2755372 C98.1733333,98.2755372 97.5289796,99.1628099 97.5289796,100.755868 L97.5289796,106.150083 L95.4348299,106.150083 L95.4348299,96.521157 L97.5088435,96.521157 L97.5088435,97.6907438 C98.0323638,96.7901652 99.005876,96.2485399 100.045986,96.2791736 L100.005714,96.238843 Z M114.483537,104.708264 C114.614435,104.706658 114.744389,104.730632 114.866122,104.778843 C114.981746,104.826094 115.087583,104.894475 115.178231,104.980496 C115.266698,105.06743 115.338376,105.169975 115.38966,105.282975 C115.492717,105.520973 115.492717,105.791093 115.38966,106.029091 C115.338376,106.142091 115.266698,106.244636 115.178231,106.33157 C115.087583,106.417591 114.981746,106.485972 114.866122,106.533223 C114.74559,106.586485 114.615282,106.613958 114.483537,106.613884 C114.093955,106.610944 113.741033,106.383175 113.577415,106.029091 C113.475551,105.790846 113.475551,105.52122 113.577415,105.282975 C113.628699,105.169975 113.700377,105.06743 113.788844,104.980496 C113.879491,104.894475 113.985328,104.826094 114.100952,104.778843 C114.206911,104.736644 114.319257,104.712779 114.433197,104.708264 L114.483537,104.708264 Z M114.483537,106.412231 C114.584026,106.412843 114.683514,106.392229 114.77551,106.351736 C114.862132,106.313006 114.940691,106.258277 115.007075,106.190413 C115.180438,106.015559 115.256417,105.766262 115.2101,105.524261 C115.163784,105.28226 115.001146,105.078765 114.77551,104.980496 C114.683423,104.940288 114.583996,104.919687 114.483537,104.92 C114.383166,104.920531 114.283907,104.941097 114.191565,104.980496 C114.101108,105.01764 114.01896,105.072485 113.949932,105.141818 C113.688871,105.427063 113.688871,105.864837 113.949932,106.150083 C114.090767,106.292889 114.283117,106.372849 114.483537,106.371901 L114.483537,106.412231 Z M114.543946,105.212397 C114.637932,105.207832 114.730547,105.236371 114.805714,105.293058 C114.868239,105.344879 114.901976,105.423713 114.896327,105.504793 C114.899249,105.572504 114.873684,105.638338 114.82585,105.686281 C114.767494,105.739362 114.69305,105.771313 114.614422,105.777025 L114.906395,106.109752 L114.67483,106.109752 L114.402993,105.777025 L114.312381,105.777025 L114.312381,106.109752 L114.121088,106.109752 L114.121088,105.182149 L114.543946,105.212397 Z M114.322449,105.383802 L114.322449,105.625785 L114.543946,105.625785 C114.58336,105.637553 114.625347,105.637553 114.664762,105.625785 C114.679122,105.597246 114.679122,105.56358 114.664762,105.535041 C114.679122,105.506503 114.679122,105.472836 114.664762,105.444298 C114.625347,105.432529 114.58336,105.432529 114.543946,105.444298 L114.322449,105.383802 Z"/>
        <g fill-rule="nonzero" transform="translate(15.102 15.124)">
          <rect width="31.714" height="57.078" x="42.93" y="7.895" fill="#7673C0"/>
          <path fill="#EB001B" d="M44.9436735,36.4386777 C44.931816,25.29886 50.0369312,14.7726314 58.7872109,7.89471074 C43.9265916,-3.80110482 22.5861464,-2.09750814 9.76336658,11.8082588 C-3.05941324,25.7140258 -3.05941324,47.153247 9.76336658,61.0590139 C22.5861464,74.9647809 43.9265916,76.6683775 58.7872109,64.972562 C50.0397149,58.0968248 44.9349116,47.5749572 44.9436735,36.4386777 L44.9436735,36.4386777 Z"/>
          <path fill="#00A1DF" d="M113.970068 58.9229752L113.970068 57.793719 114.443265 57.793719 114.443265 57.5517355 113.24517 57.5517355 113.24517 57.793719 113.718367 57.793719 113.718367 58.9633058 113.970068 58.9229752zM116.295782 58.9229752L116.295782 57.511405 115.933333 57.511405 115.510476 58.5196694 115.087619 57.511405 114.715102 57.511405 114.715102 58.9229752 114.976871 58.9229752 114.976871 57.8642975 115.369524 58.7818182 115.641361 58.7818182 116.034014 57.8642975 116.034014 58.9330579 116.295782 58.9229752zM117.423401 36.4386777C117.42005 50.3322273 109.497711 63.00495 97.0194786 69.0771802 84.5412459 75.1494105 69.6966026 73.5556888 58.7872109 64.972562 67.5308901 58.0909875 72.6360776 47.5705188 72.6360776 36.4336364 72.6360776 25.2967539 67.5308901 14.7762853 58.7872109 7.89471074 69.6965122-.694588171 84.545342-2.29192368 97.0273455 3.78109873 109.509349 9.85412114 117.433146 22.5313024 117.433469 36.428595L117.423401 36.4386777z"/>
        </g>
      </g>
      <g transform="translate(0 122)">
        <rect width="294.924" height="136.714"/>
        <path fill="#F79E1B" fill-rule="nonzero" d="M40.5374222,83.2120295 C39.1756839,82.3359399 37.7095574,81.638744 36.1742846,81.1372009 C34.6370572,80.6410362 33.0327017,80.3914475 31.419355,80.3974794 C30.4179088,80.3883571 29.4191269,80.5034793 28.4452979,80.7402771 C27.6232061,80.9343422 26.8401147,81.2699896 26.1301637,81.7325865 C25.5227587,82.1293251 25.0114417,82.6596731 24.6342307,83.2841975 C24.2745369,83.9011012 24.0896774,84.6065256 24.099969,85.3229422 C24.0737541,85.9576115 24.2349667,86.5857815 24.5629958,87.127141 C24.9038848,87.6393681 25.362169,88.0603216 25.8986502,88.3539962 C26.5658207,88.7241653 27.2784228,89.003233 28.0178885,89.1839277 C28.9512225,89.4214214 29.8964376,89.6081224 30.8494758,89.7432293 L33.0933751,90.0499431 C34.3963219,90.2343719 35.6826422,90.523965 36.9400597,90.9159586 C38.1351276,91.2794398 39.2653332,91.8336731 40.2881,92.5577795 C41.2624022,93.2524752 42.0715537,94.1585147 42.6566605,95.2099518 C43.280809,96.4027314 43.5876856,97.7395847 43.5470967,99.0889793 C43.5781816,100.63521 43.2163626,102.163571 42.496382,103.527308 C41.803617,104.810378 40.8360914,105.920037 39.6647947,106.774866 C38.4092613,107.68547 37.0044042,108.363503 35.5153617,108.777527 C33.8870641,109.241685 32.2026112,109.47246 30.51111,109.463123 C29.3656642,109.457398 28.2224166,109.36088 27.0918348,109.174451 C25.8854562,108.990107 24.6947427,108.712656 23.5300898,108.344519 C22.4257161,107.971426 21.3535651,107.506777 20.3245193,106.955286 C19.3077094,106.429066 18.3570268,105.780918 17.492932,105.024793 L20.3245193,100.784926 C20.936764,101.344786 21.6122567,101.829275 22.3369052,102.228285 C24.0044806,103.153132 25.8086009,103.798937 27.6795227,104.140736 C28.6251174,104.319296 29.5848481,104.409884 30.5467275,104.411366 C31.5404903,104.424259 32.5324209,104.321345 33.5029758,104.104652 C34.3495009,103.917592 35.1611115,103.594786 35.9071537,103.148427 C36.5519743,102.764028 37.1052856,102.240429 37.5277477,101.614858 C37.9343118,101.002274 38.1456465,100.278103 38.1332443,99.540029 C38.1583786,98.2912695 37.462593,97.1422839 36.3523718,96.5991849 C34.6004901,95.7728932 32.7206171,95.2601442 30.7960496,95.0836579 L28.2672107,94.7228181 C27.056602,94.5525241 25.8642291,94.2686462 24.7054656,93.8748447 C23.5925983,93.5035517 22.5506075,92.9421714 21.6245562,92.2149817 C20.7084694,91.4926591 19.9606071,90.5748457 19.434083,89.5267255 C18.8327879,88.3189509 18.5273691,86.9822597 18.5436468,85.629656 C18.5168594,84.105472 18.8657558,82.5985891 19.5587441,81.2454528 C20.22669,79.9718301 21.170355,78.867775 22.3190965,78.0159369 C23.5496657,77.1113807 24.9311762,76.4390809 26.3972945,76.0313182 C28.0190329,75.5648292 29.6979373,75.3339935 31.3837375,75.3457226 C33.5632142,75.317056 35.7333163,75.6398314 37.8126873,76.301948 C39.7002912,76.9218574 41.4972108,77.7956764 43.1553048,78.8999943 L40.5374222,83.2120295 Z M58.2571036,85.7379079 C59.7198037,85.7243161 61.1692911,86.0192395 62.5133889,86.6039233 C63.7769846,87.1578624 64.9070649,87.9826701 65.8258117,89.0215498 C66.7741865,90.1146875 67.505804,91.3826915 67.9806675,92.7562414 C68.5172566,94.3033706 68.7824515,95.9336996 68.7642514,97.5734523 L68.7642514,98.5116357 L68.7642514,99.4137351 L52.2377545,99.4137351 C52.3567608,100.3327 52.6468325,101.220436 53.0925733,102.029823 C53.4770791,102.724851 53.9911798,103.337597 54.606315,103.834022 C55.1956208,104.29958 55.8662445,104.648465 56.5830834,104.862416 C57.3232173,105.082741 58.0911925,105.192152 58.8626003,105.187171 C60.0066273,105.178235 61.1400853,104.964455 62.2106406,104.555702 C63.3286585,104.130258 64.3696379,103.520654 65.29155,102.751503 L67.6957279,106.269691 C66.4376288,107.388163 64.9640278,108.22984 63.3682077,108.741443 C61.8029601,109.217754 60.1763471,109.454908 58.5420432,109.445081 C56.9711053,109.462145 55.4114728,109.174304 53.9473921,108.597107 C52.6093416,108.054966 51.396624,107.237946 50.3856471,106.197523 C49.3563536,105.13008 48.5560183,103.858569 48.0348954,102.462831 C47.4597476,100.905792 47.1759035,99.2538402 47.1978854,97.5914943 C47.1808249,95.9487539 47.458396,94.3165314 48.0170867,92.7742834 C48.5198924,91.3807011 49.2952177,90.1042948 50.2966035,89.0215498 C51.3000606,87.9675371 52.5144865,87.1432142 53.8583485,86.6039233 C55.2537002,86.021567 56.7479878,85.7212466 58.2571036,85.7198659 L58.2571036,85.7379079 Z M58.16806,90.1221111 C57.378654,90.1067991 56.5934018,90.2414285 55.8529257,90.5190348 C55.186715,90.7662203 54.5797622,91.1536091 54.0720532,91.6556801 C53.5697563,92.1789104 53.1654639,92.7902356 52.8788686,93.4598789 C52.5571594,94.170773 52.3353621,94.92383 52.2199458,95.6970855 L63.7599996,95.6970855 C63.622146,94.1719387 62.9968833,92.7340015 61.9791271,91.6015541 C60.9618169,90.5879837 59.5759309,90.0459594 58.1502513,90.1040691 L58.16806,90.1221111 Z M83.9729025,85.7379079 C85.5718149,85.7226466 87.1577953,86.0292791 88.6387885,86.6400073 C90.0208969,87.2350885 91.2422139,88.1568875 92.2005335,89.3282636 L89.0840066,92.6840734 C88.3674743,91.9508377 87.5372957,91.3413793 86.6264026,90.8798746 C85.7195166,90.4693117 84.7345366,90.2660396 83.7413891,90.284489 C82.8483277,90.2750637 81.9630263,90.4532146 81.1413153,90.8077066 C80.3579598,91.1803223 79.6603168,91.7150174 79.0933119,92.3773596 C78.4871438,93.03514 78.0150952,93.807668 77.7042313,94.6506502 C77.0371264,96.5467758 77.0371264,98.6181708 77.7042313,100.514296 C78.0129986,101.363689 78.4851532,102.142523 79.0933119,102.805629 C79.6797169,103.439069 80.3891202,103.94277 81.1769327,104.285072 C81.9986438,104.639564 82.8839451,104.817715 83.7770066,104.80829 C84.8258702,104.810188 85.8613258,104.569531 86.8044898,104.104652 C87.7047752,103.678124 88.5339302,103.112027 89.2620939,102.426747 L92.2717684,105.908851 C91.2720247,107.081916 90.0158437,108.002414 88.6031711,108.597107 C87.1290836,109.210146 85.5484518,109.516915 83.9550938,109.499207 C82.3092404,109.523061 80.6750185,109.216463 79.1467381,108.597107 C76.3402016,107.460297 74.1401938,105.172474 73.0917716,102.300453 C71.9754533,99.263003 71.9754533,95.9199855 73.0917716,92.8825353 C74.1407411,90.0418085 76.3179263,87.7772 79.0933119,86.6400073 C80.6369808,86.0074093 82.2901049,85.6945388 83.9550938,85.7198659 L83.9729025,85.7379079 Z M117.186175,99.3054832 C117.227274,100.89259 116.92328,102.469429 116.295738,103.924232 C115.762647,105.136384 114.972149,106.214455 113.980604,107.08158 C113.014306,107.902769 111.893446,108.516575 110.68599,108.885779 C108.202181,109.65619 105.547665,109.65619 103.063856,108.885779 C101.851245,108.516035 100.72466,107.902411 99.7514329,107.08158 C98.7536783,106.22032 97.9620533,105.140713 97.4362987,103.924232 C96.8203561,102.466324 96.5226858,100.890779 96.5636711,99.3054832 L96.5636711,86.3152515 L101.443262,86.3152515 L101.443262,98.9446434 C101.418535,99.8820258 101.557192,100.81648 101.852862,101.705068 C102.0995,102.3872 102.495228,103.003987 103.01043,103.509266 C103.515426,103.989919 104.125756,104.342364 104.791302,104.53766 C106.18537,104.96093 107.671328,104.96093 109.065396,104.53766 C109.730942,104.342364 110.341273,103.989919 110.846269,103.509266 C111.36147,103.003987 111.757198,102.3872 112.003836,101.705068 C112.305918,100.817673 112.450619,99.8831233 112.431245,98.9446434 L112.431245,86.3152515 L117.310836,86.3152515 L117.186175,99.3054832 Z M134.905856,85.7379079 C135.579949,85.7350282 136.253097,85.789344 136.918242,85.9002858 C137.527076,85.9989907 138.12398,86.1622659 138.699115,86.3874195 L137.541547,91.2587563 C136.978298,90.9729967 136.379124,90.766609 135.760675,90.6453287 C135.134339,90.508183 134.495904,90.4356451 133.855141,90.4288249 C133.124144,90.4197028 132.398356,90.5545067 131.718094,90.8257486 C131.0794,91.0827527 130.506903,91.4838133 130.044074,91.9984779 C129.558627,92.5554098 129.189138,93.2058827 128.957742,93.9109286 C128.684218,94.7361133 128.551718,95.6025405 128.56595,96.472891 L128.56595,108.867737 L123.615124,108.867737 L123.615124,86.3152515 L128.42348,86.3152515 L128.42348,88.8591719 C129.109216,87.8226311 130.064544,86.9984055 131.183833,86.4776294 C132.350834,85.9594527 133.614016,85.7010463 134.888047,85.7198659 L134.905856,85.7379079 Z M151.20084,85.7379079 C152.66354,85.7243161 154.113027,86.0192395 155.457125,86.6039233 C156.720721,87.1578624 157.850801,87.9826701 158.769548,89.0215498 C159.749389,90.1073287 160.511497,91.3757621 161.013447,92.7562414 C161.54968,94.3034629 161.814865,95.9337279 161.797031,97.5734523 L161.797031,98.5116357 L161.797031,99.4137351 L145.163682,99.4137351 C145.282688,100.3327 145.57276,101.220436 146.018501,102.029823 C146.403006,102.724851 146.917107,103.337597 147.532242,103.834022 C148.121548,104.29958 148.792172,104.648465 149.509011,104.862416 C150.249144,105.082741 151.01712,105.192152 151.788527,105.187171 C152.932554,105.178235 154.066013,104.964455 155.136568,104.555702 C156.254586,104.130258 157.295565,103.520654 158.217477,102.751503 L160.639464,106.251649 C159.381666,107.370551 157.907971,108.212283 156.311944,108.723401 C154.746696,109.199712 153.120083,109.436866 151.485779,109.427039 C149.914841,109.444103 148.355209,109.156262 146.891128,108.579065 C145.553078,108.036924 144.34036,107.219904 143.329383,106.179481 C142.30009,105.112038 141.499754,103.840527 140.978631,102.444789 C140.403484,100.88775 140.119639,99.2357982 140.141621,97.5734523 C140.124561,95.9307119 140.402132,94.2984894 140.960823,92.7562414 C141.453029,91.3656429 142.216107,90.0894582 143.204722,89.0035078 C144.208179,87.9494951 145.422605,87.1251722 146.766467,86.5858814 C148.168591,86.0073915 149.669108,85.7131647 151.183031,85.7198659 L151.20084,85.7379079 Z M151.111796,90.1221111 C150.32239,90.1067991 149.537138,90.2414285 148.796662,90.5190348 C148.130451,90.7662203 147.523498,91.1536091 147.015789,91.6556801 C146.513492,92.1789104 146.1092,92.7902356 145.822605,93.4598789 C145.501115,94.1708566 145.279327,94.9238818 145.163682,95.6970855 L156.739353,95.6970855 C156.601499,94.1719387 155.976237,92.7340015 154.958481,91.6015541 C153.932594,90.5786001 152.531852,90.0358149 151.093987,90.1040691 L151.111796,90.1221111 Z M182.651048,75.2374707 C184.059106,75.2326246 185.463141,75.3899994 186.836098,75.7065624 C188.139204,76.0064957 189.401145,76.4669875 190.593739,77.0777535 C191.734131,77.6627255 192.79388,78.3966761 193.745884,79.2608341 C194.674297,80.0968348 195.472815,81.0700399 196.114444,82.1475522 L191.733498,85.1064383 C190.75622,83.6471046 189.441823,82.4517496 187.904622,81.6243346 C186.258622,80.7502362 184.419877,80.315576 182.562004,80.3613954 C180.989439,80.3446263 179.428745,80.6387912 177.967353,81.2274108 C176.62801,81.791898 175.416144,82.6267602 174.405608,83.6811212 C173.361248,84.7677172 172.543598,86.056276 172.00143,87.4699388 C170.838933,90.6107215 170.838933,94.0718298 172.00143,97.2126125 C172.543598,98.6262753 173.361248,99.9148341 174.405608,101.00143 C175.416144,102.055791 176.62801,102.890653 177.967353,103.45514 C179.428745,104.04376 180.989439,104.337925 182.562004,104.321156 C186.178559,104.40156 189.5897,102.622729 191.626645,99.594155 L195.900739,102.769545 C195.205564,103.801047 194.379249,104.735244 193.443135,105.548011 C192.524413,106.391453 191.507777,107.118478 190.415652,107.71305 C189.25006,108.305521 188.018344,108.753778 186.747055,109.048157 C183.08916,109.867977 179.274018,109.579348 175.77688,108.218225 C171.696803,106.600945 168.468888,103.33075 166.872518,99.1972312 C165.202575,94.8080345 165.202575,89.9466848 166.872518,85.557488 C168.468888,81.4239689 171.696803,78.153774 175.77688,76.5364938 C177.963726,75.656976 180.29828,75.2158114 182.651048,75.2374707 Z M211.323095,85.66574 C212.95699,85.6466416 214.578653,85.9531535 216.095834,86.5678394 C217.508601,87.1388695 218.797281,87.9847253 219.889092,89.0576338 C220.964864,90.1262849 221.818642,91.4022545 222.400122,92.8103673 C223.608019,95.8304204 223.608019,99.2082322 222.400122,102.228285 C221.818642,103.636398 220.964864,104.912368 219.889092,105.981019 C218.797281,107.053927 217.508601,107.899783 216.095834,108.470813 C213.025801,109.679261 209.620389,109.679261 206.550357,108.470813 C205.135871,107.903154 203.846574,107.056894 202.757098,105.981019 C201.671328,104.937267 200.799821,103.686459 200.192642,102.300453 C198.984746,99.2804001 198.984746,95.9025884 200.192642,92.8825353 C200.770528,91.4768685 201.617963,90.2013307 202.685864,89.1298017 C203.775339,88.0539267 205.064637,87.2076661 206.479122,86.6400073 C208.022791,86.0074093 209.675915,85.6945388 211.340904,85.7198659 L211.323095,85.66574 Z M211.323095,90.302531 C210.378068,90.2924947 209.440265,90.4702528 208.562743,90.8257486 C207.734501,91.1606588 206.982906,91.6641917 206.354461,92.3051917 C205.724602,92.9580794 205.228321,93.7306453 204.894145,94.5784822 C204.181622,96.4663817 204.181622,98.5542289 204.894145,100.442128 C205.228321,101.289965 205.724602,102.062531 206.354461,102.715419 C206.983546,103.355627 207.73497,103.859045 208.562743,104.194862 C210.337342,104.899049 212.308848,104.899049 214.083448,104.194862 C215.765373,103.526889 217.103962,102.190326 217.787662,100.496254 C218.500186,98.6083549 218.500186,96.5205077 217.787662,94.6326082 C217.450755,93.7819106 216.948034,93.0087475 216.309538,92.3593176 C215.673348,91.7194192 214.916194,91.2162205 214.083448,90.8798746 C213.211479,90.5266902 212.279949,90.3489745 211.340904,90.3566569 L211.323095,90.302531 Z M237.911522,85.66574 C240.63743,85.5589099 243.245631,86.7960473 244.910351,88.9854658 L244.910351,74.9127149 L249.772133,74.9127149 L249.772133,108.849695 L244.910351,108.849695 L244.910351,106.143397 C244.134065,107.147974 243.149109,107.967203 242.025337,108.542981 C240.744929,109.172423 239.334248,109.481764 237.911522,109.445081 C234.941583,109.473824 232.089956,108.267366 230.022257,106.107313 C228.989824,105.011257 228.184473,103.71686 227.653696,102.300453 C226.509045,99.230938 226.509045,95.8437986 227.653696,92.7742834 C228.191184,91.3773548 228.996159,90.101958 230.022257,89.0215498 C232.089956,86.8614969 234.941583,85.6550387 237.911522,85.6837819 L237.911522,85.66574 Z M238.49921,90.302531 C237.531165,90.2871928 236.571297,90.4841428 235.685431,90.8798746 C234.886136,91.2435141 234.170437,91.7719571 233.584002,92.4314856 C233.002081,93.1013638 232.554471,93.8796216 232.266156,94.7228181 C231.647382,96.5344604 231.647382,98.5041922 232.266156,100.315835 C232.554471,101.159031 233.002081,101.937289 233.584002,102.607167 C234.170437,103.266696 234.886136,103.795139 235.685431,104.158778 C237.463612,104.908524 239.463572,104.908524 241.241753,104.158778 C242.043972,103.807434 242.765572,103.291397 243.360992,102.643251 C243.940913,102.019796 244.400034,101.291494 244.714455,100.496254 C245.365113,98.6406051 245.365113,96.6145514 244.714455,94.7589021 C244.408487,93.9175886 243.942601,93.1452454 243.343183,92.4856116 C242.746749,91.8386429 242.025407,91.3227914 241.223945,90.9700845 C240.367977,90.5749976 239.439783,90.3660304 238.49921,90.3566569 L238.49921,90.302531 Z M265.924646,85.66574 C267.387396,85.65162 268.836989,85.9465651 270.180931,86.5317554 C271.444808,87.0851932 272.574988,87.9100736 273.493354,88.9493818 C274.441729,90.0425195 275.173347,91.3105235 275.64821,92.6840734 C276.185156,94.2311101 276.450361,95.8615033 276.431794,97.5012843 L276.431794,98.4394677 L276.431794,99.3415671 L259.994341,99.3415671 C260.110772,100.261127 260.401002,101.149347 260.84916,101.957655 C261.233291,102.652947 261.747449,103.265761 262.362901,103.761854 C262.951976,104.227778 263.622672,104.5767 264.33967,104.790248 C265.079857,105.010319 265.847796,105.119725 266.619186,105.115003 C267.763213,105.106068 268.896672,104.892287 269.967227,104.483534 C271.085105,104.057791 272.126038,103.448214 273.048136,102.679335 L275.470123,106.179481 C274.211723,107.297524 272.738216,108.139148 271.142603,108.651233 C269.577412,109.127807 267.95076,109.364968 266.316438,109.354871 C264.7455,109.371935 263.185868,109.084094 261.721787,108.506897 C260.383737,107.964756 259.171019,107.147736 258.160042,106.107313 C257.130749,105.03987 256.330413,103.768359 255.80929,102.372621 C255.234142,100.815582 254.950298,99.1636302 254.97228,97.5012843 C254.95522,95.8585439 255.232791,94.2263215 255.791482,92.6840734 C256.294729,91.2907078 257.070003,90.0143865 258.070998,88.9313398 C259.074456,87.8773272 260.288881,87.0530042 261.632743,86.5137134 C263.000897,85.9763113 264.457315,85.7069264 265.924646,85.7198659 L265.924646,85.66574 Z M278.764737,108.795569 L278.764737,107.71305 L279.209955,107.71305 L279.209955,107.478504 L278.052388,107.478504 L278.052388,107.71305 L278.551032,107.71305 L278.551032,108.849695 L278.764737,108.795569 Z M280.990828,108.795569 L280.990828,107.424378 L280.634653,107.424378 L280.225052,108.362561 L279.815452,107.424378 L279.459277,107.424378 L279.459277,108.795569 L279.708599,108.795569 L279.708599,107.767176 L280.082583,108.651233 L280.331905,108.651233 L280.705888,107.767176 L280.705888,108.795569 L280.990828,108.795569 Z M265.835603,90.0499431 C265.046197,90.0346311 264.260944,90.1692606 263.520468,90.4468669 C262.854258,90.6940524 262.247305,91.0814411 261.739596,91.5835121 C261.237299,92.1067424 260.833006,92.7180676 260.546411,93.387711 C260.22514,94.0987718 260.003361,94.8517655 259.887488,95.6249175 L271.427542,95.6249175 C271.301089,94.0807802 270.675082,92.6221046 269.64667,91.4752602 C268.613126,90.5123351 267.237128,90.0172621 265.835603,90.1040691 L265.835603,90.0499431 Z"/>
        <path fill="#EB001B" fill-rule="nonzero" d="M56.5118485,62.373533 L51.0623787,62.373533 L51.0623787,34.2641151 L41.2141537,58.9996812 L35.4797443,58.9996812 L25.6671368,34.5347449 L25.6671368,62.373533 L20.1820495,62.373533 L20.1820495,28.220049 L28.5343415,28.220049 L38.346949,52.6308593 L48.1417478,28.220049 L56.4940398,28.220049 L56.5118485,62.373533 Z M85.1838958,62.373533 L80.1440267,62.373533 L80.1440267,59.5770248 C79.3390702,60.6192316 78.3176376,61.4692554 77.1521609,62.0668192 C75.8261413,62.7130495 74.3667692,63.0285426 72.8958756,62.9869606 C69.8116669,63.020192 66.849558,61.7676393 64.7038621,59.5228988 C63.6389506,58.4008205 62.8037104,57.0763642 62.246258,55.6258293 C61.0577651,52.4401341 61.0577651,48.9245149 62.246258,45.7388197 C62.8041304,44.2885009 63.6393206,42.9641238 64.7038621,41.8417502 C66.849558,39.5970097 69.8116669,38.3444571 72.8958756,38.3776885 C74.3685505,38.3381769 75.8288153,38.660053 77.1521609,39.3158719 C78.3171817,39.9220884 79.3380772,40.7778217 80.1440267,41.8237082 L80.1440267,39.009158 L85.1838958,39.009158 L85.1838958,62.373533 Z M73.4835635,43.1948993 C72.479023,43.177576 71.4826786,43.3806859 70.5629326,43.790285 C69.7366686,44.1671581 68.9967861,44.7139783 68.3902681,45.3960219 C67.7863531,46.0932129 67.3207674,46.9018142 67.0189963,47.7775644 C66.3757884,49.6592527 66.3757884,51.7053964 67.0189963,53.5870846 C67.3236209,54.465426 67.7955824,55.2745918 68.4080769,55.9686271 C69.0138915,56.6514603 69.75395,57.1984104 70.5807413,57.5743641 C72.4266728,58.3561913 74.5048368,58.3561913 76.3507682,57.5743641 C77.1794575,57.2088793 77.9250697,56.6745872 78.5412414,56.0047111 C79.1622939,55.317443 79.6460995,54.5148346 79.9659394,53.6412106 C80.6395917,51.7152648 80.6395917,49.6133003 79.9659394,47.6873545 C79.6460995,46.8137304 79.1622939,46.011122 78.5412414,45.323854 C77.9244017,44.6547528 77.1789587,44.120582 76.3507682,43.754201 C75.4451092,43.3635153 74.4676664,43.1728469 73.4835635,43.1948993 Z M108.281812,44.8547623 C107.86028,44.6093789 107.426339,44.3865552 106.981775,44.1872087 C106.402566,43.9321046 105.807705,43.7151496 105.200903,43.5376971 C104.545724,43.3370418 103.879784,43.1743999 103.206326,43.0505634 C102.5014,42.9188265 101.786097,42.8523982 101.069279,42.8521016 C99.9431545,42.7869718 98.822786,43.056623 97.8458993,43.6279071 C97.1369704,44.0468602 96.7025008,44.817141 96.7061409,45.6486098 C96.693212,46.0157407 96.7995703,46.3770248 97.0088893,46.6770031 C97.2207289,46.9646389 97.4948956,47.19919 97.8102819,47.3625987 C98.1935175,47.5599671 98.6006561,47.7055453 99.0212752,47.7956064 C99.484302,47.9038583 99.9829463,48.0000822 100.517208,48.0842782 L102.903577,48.445118 C105.025026,48.667716 107.054626,49.4380085 108.798265,50.6823245 C110.262312,51.7832614 111.095395,53.5455226 111.024356,55.3912835 C111.03474,56.462691 110.790408,57.5208894 110.312007,58.4764635 C109.81174,59.3991099 109.111525,60.1948569 108.264003,60.80388 C107.269758,61.5267596 106.153082,62.0587778 104.969389,62.373533 C103.51762,62.7656782 102.01955,62.9538721 100.517208,62.9328346 C99.9235839,62.9328346 99.2349799,62.8967506 98.451396,62.8245827 C97.6049999,62.7431113 96.7657041,62.5983812 95.9403658,62.391575 C95.0157066,62.157005 94.1106245,61.8493485 93.2334396,61.4714336 C92.302618,61.0697624 91.4235241,60.5547847 90.615557,59.9378645 L92.9485,56.112963 C93.3786496,56.450257 93.830837,56.7576732 94.3019631,57.0331044 C94.829801,57.3368662 95.3842313,57.5905337 95.9581745,57.7908679 C96.6252204,58.0229148 97.3102844,58.1979329 98.0061779,58.3140856 C98.8480257,58.452806 99.6999401,58.5191962 100.552826,58.5125475 C101.902277,58.5897811 103.249309,58.323049 104.470745,57.736742 C105.272442,57.3625255 105.791605,56.5560492 105.806399,55.6619133 C105.794076,54.9811189 105.428655,54.3572505 104.844728,54.0200924 C103.912134,53.4946426 102.880405,53.1749213 101.817245,53.081909 L99.4130671,52.7571532 C97.2910159,52.5828722 95.2632697,51.793718 93.5718053,50.4838626 C92.2447246,49.3483375 91.5033734,47.6601105 91.5594194,45.9011976 C91.5448924,44.8160848 91.7764142,43.7420729 92.236151,42.7618916 C92.6770343,41.8319207 93.3302406,41.0217259 94.1416845,40.3983912 C95.0409028,39.7234073 96.0550936,39.2219017 97.1335503,38.9189481 C98.4259322,38.5535793 99.7632597,38.3773888 101.104896,38.3957304 C102.835116,38.3857405 104.559253,38.6040805 106.233809,39.045242 C107.724881,39.4202171 109.148951,40.0289611 110.454477,40.8494409 L108.281812,44.8547623 Z M132.181121,43.6279071 L123.276759,43.6279071 L123.276759,53.8035885 C123.275522,54.4917303 123.389946,55.1750622 123.615124,55.8242912 C123.778808,56.3264588 124.045894,56.787683 124.398708,57.1774403 C124.718768,57.5249147 125.115424,57.7907552 125.556275,57.9532458 C126.018633,58.1230141 126.507002,58.2085293 126.998782,58.2058337 C127.821701,58.1992637 128.636497,58.0402847 129.40296,57.736742 C130.186046,57.441017 130.937794,57.0662639 131.646859,56.6181387 L133.641437,60.6956281 C132.660612,61.3600344 131.609246,61.9107585 130.507101,62.337449 C129.248282,62.8104114 127.913829,63.0428703 126.571373,63.0230446 C124.32748,63.1552544 122.127565,62.3536937 120.480789,60.80388 C118.861575,58.8998556 118.065826,56.4163269 118.272507,53.9118404 L118.272507,43.6459491 L113.695665,43.6459491 L113.695665,39.009158 L118.272507,39.009158 L118.272507,31.9366986 L123.330185,31.9366986 L123.330185,39.009158 L132.234547,39.009158 L132.181121,43.6279071 Z M147.674712,38.3776885 C149.191539,38.3583004 150.695706,38.6593875 152.091276,39.2617459 C153.402673,39.8357372 154.57539,40.6913995 155.52836,41.7695823 C156.515181,42.9046716 157.277018,44.2216581 157.772259,45.6486098 C158.325084,47.2543773 158.596304,48.9457593 158.573652,50.6462405 L158.573652,51.6205079 L158.573652,52.5406493 L141.423849,52.5406493 C141.548866,53.4917248 141.851031,54.4100949 142.314286,55.2469476 C142.719275,55.9433981 143.251077,56.5556347 143.881454,57.0511464 C144.49252,57.5324223 145.187166,57.8934743 145.929457,58.1156237 C146.698163,58.3467094 147.496192,58.4622069 148.298017,58.4584215 C149.514221,58.4613828 150.720915,58.2413329 151.859762,57.8089099 C153.012469,57.3878997 154.089314,56.7784301 155.047524,56.0047111 L157.558554,59.6131088 C156.253186,60.7717332 154.725188,61.6440257 153.070756,62.1750711 C151.448208,62.6721359 149.761598,62.9214482 148.066504,62.9147926 C146.410361,62.9732061 144.758887,62.7035481 143.204722,62.1209451 C141.800336,61.5643751 140.526432,60.7162733 139.46489,59.6311507 C138.39639,58.5223458 137.565736,57.2016898 137.025094,55.7521232 C136.427279,54.1376617 136.131362,52.4245577 136.152467,50.7003665 C136.131369,48.9969574 136.414948,47.303758 136.989477,45.7027357 C137.51225,44.2555473 138.317841,42.9300824 139.358037,41.8056662 C140.359853,40.7274483 141.573035,39.8732428 142.919782,39.2978299 C144.42776,38.6728274 146.045688,38.3658761 147.674712,38.3957304 L147.674712,38.3776885 Z M147.585668,42.9242695 C146.765707,42.9089766 145.950196,43.0497353 145.18149,43.3392353 C144.513002,43.607179 143.906614,44.0126371 143.400618,44.5300065 C142.883115,45.0520549 142.461049,45.6629038 142.154007,46.3342053 C141.800797,47.082805 141.554929,47.8786737 141.423849,48.6977058 L153.391313,48.6977058 C153.23132,47.1076381 152.554829,45.6163631 151.46797,44.4578385 C150.432096,43.435368 149.031312,42.8820368 147.585668,42.9242695 L147.585668,42.9242695 Z M176.079628,38.3776885 C176.77741,38.3732262 177.47435,38.4275392 178.163249,38.5400664 C178.772131,38.6473594 179.368776,38.8166082 179.944122,39.045242 L178.733128,44.0969988 C178.169768,43.8074413 177.570892,43.5950891 176.952256,43.4655292 C176.302097,43.3268304 175.639884,43.2543021 174.975487,43.2490253 C174.219867,43.2417849 173.469999,43.3826952 172.767206,43.663991 C172.087576,43.9272498 171.477835,44.3473047 170.986333,44.8908463 C170.478297,45.4678235 170.090616,46.142879 169.846575,46.875465 C169.562419,47.7295555 169.423906,48.6264333 169.436974,49.5276373 L169.436974,62.391575 L164.397105,62.391575 L164.397105,38.9369901 L169.383548,38.9369901 L169.383548,41.5711204 C170.089181,40.5229866 171.061412,39.6876364 172.197326,39.153494 C173.405538,38.6267232 174.711135,38.3683358 176.026202,38.3957304 L176.079628,38.3776885 Z M193.300665,38.3776885 C194.960881,38.3604978 196.60776,38.6794663 198.144639,39.3158719 C199.608605,39.9236079 200.904433,40.8834389 201.920088,42.11238 L198.696709,45.5944838 C197.949384,44.8579298 197.089399,44.248665 196.150062,43.790285 C195.20961,43.3629923 194.188833,43.1475449 193.158196,43.1588154 C192.234617,43.1499227 191.31916,43.3341839 190.469078,43.700075 C189.647409,44.0525222 188.907405,44.5748514 188.296414,45.233644 C187.67279,45.9189494 187.188658,46.7220993 186.871716,47.5971445 C186.177231,49.5627985 186.177231,51.7116406 186.871716,53.6772946 C187.189078,54.5521339 187.673163,55.3552046 188.296414,56.0407951 C188.907748,56.6991855 189.647662,57.2214518 190.469078,57.5743641 C191.31916,57.9402552 192.234617,58.1245164 193.158196,58.1156237 C194.228834,58.1259204 195.287991,57.8915804 196.256914,57.4300282 C197.193637,56.9671348 198.052949,56.3583461 198.803562,55.6258293 L201.90228,59.1440171 C200.865223,60.3652462 199.55992,61.3230596 198.091213,61.9405253 C196.560696,62.5773808 194.919539,62.8964139 193.265048,62.8787087 C191.558023,62.9030394 189.863183,62.5841606 188.278605,61.9405253 C185.37945,60.7698829 183.09861,58.419892 181.992125,55.4634514 C180.834814,52.3155084 180.834814,48.8506788 181.992125,45.7027357 C183.09861,42.7462951 185.37945,40.3963043 188.278605,39.2256619 C189.864996,38.6213172 191.553313,38.3393106 193.247239,38.3957304 L193.300665,38.3776885 Z M228.686602,62.373533 L223.646733,62.373533 L223.646733,59.5770248 C222.841777,60.6192316 221.820344,61.4692554 220.654867,62.0668192 C219.328848,62.7130495 217.869475,63.0285426 216.398582,62.9869606 C213.314373,63.020192 210.352264,61.7676393 208.206568,59.5228988 C207.141657,58.4008205 206.306417,57.0763642 205.748964,55.6258293 C204.560471,52.4401341 204.560471,48.9245149 205.748964,45.7388197 C206.306837,44.2885009 207.142027,42.9641238 208.206568,41.8417502 C210.352264,39.5970097 213.314373,38.3444571 216.398582,38.3776885 C217.871257,38.3381769 219.331522,38.660053 220.654867,39.3158719 C221.819888,39.9220884 222.840783,40.7778217 223.646733,41.8237082 L223.646733,39.009158 L228.686602,39.009158 L228.686602,62.373533 Z M217.004079,43.1948993 C215.999538,43.177576 215.003194,43.3806859 214.083448,43.790285 C213.257184,44.1671581 212.517301,44.7139783 211.910783,45.3960219 C211.306868,46.0932129 210.841282,46.9018142 210.539511,47.7775644 C209.896303,49.6592527 209.896303,51.7053964 210.539511,53.5870846 C210.841282,54.4628348 211.306868,55.2714361 211.910783,55.9686271 C212.516951,56.6510644 213.256921,57.1979493 214.083448,57.5743641 C215.929777,58.3541791 218.007145,58.3541791 219.853475,57.5743641 C220.681914,57.2084299 221.427441,56.6741987 222.043948,56.0047111 C222.667199,55.3191206 223.151283,54.51605 223.468646,53.6412106 C224.145204,51.7157722 224.145204,49.6127929 223.468646,47.6873545 C223.151283,46.8125151 222.667199,46.0094444 222.043948,45.323854 C221.427108,44.6547528 220.681665,44.120582 219.853475,43.754201 C218.958656,43.36904 217.993986,43.1784963 217.021887,43.1948993 L217.004079,43.1948993 Z M247.795364,38.3957304 C248.493146,38.3912682 249.190086,38.4455812 249.878985,38.5581083 C250.487867,38.6654014 251.084512,38.8346501 251.659857,39.063284 L250.448864,44.1150408 C249.885503,43.8254833 249.286627,43.6131311 248.667992,43.4835712 C248.017795,43.3451097 247.355606,43.272584 246.691223,43.2670673 C245.935564,43.2593707 245.18561,43.4002971 244.482941,43.682033 C243.803312,43.9452918 243.19357,44.3653467 242.702069,44.9088882 C242.194033,45.4858655 241.806351,46.160921 241.56231,46.893507 C241.278155,47.7475975 241.139642,48.6444752 241.15271,49.5456793 L241.15271,62.409617 L236.11284,62.409617 L236.11284,38.9550321 L241.15271,38.9550321 L241.15271,41.5891624 C241.860115,40.5312681 242.839175,39.6891023 243.984297,39.153494 C245.192672,38.6272591 246.498153,38.3688945 247.813173,38.3957304 L247.795364,38.3957304 Z M264.321861,38.3957304 C265.794536,38.3562189 267.254801,38.6780949 268.578146,39.3339138 C269.742853,39.9406133 270.763653,40.7962669 271.570012,41.8417502 L271.570012,27.2457816 L276.609881,27.2457816 L276.609881,62.373533 L271.570012,62.373533 L271.570012,59.5770248 C270.765056,60.6192316 269.743623,61.4692554 268.578146,62.0668192 C267.252127,62.7130495 265.792755,63.0285426 264.321861,62.9869606 C261.237652,63.020192 258.275543,61.7676393 256.129847,59.5228988 C255.046137,58.4053395 254.192578,57.080633 253.618817,55.6258293 C252.430324,52.4401341 252.430324,48.9245149 253.618817,45.7388197 C254.17669,44.2885009 255.01188,42.9641238 256.076421,41.8417502 C258.222117,39.5970097 261.184226,38.3444571 264.268435,38.3776885 L264.321861,38.3957304 Z M282.48676,60.2265364 C282.687887,60.2217264 282.887865,60.2585624 283.074448,60.3347883 C283.253825,60.4107531 283.417078,60.521014 283.555284,60.6595441 C283.690823,60.7936506 283.79965,60.9529044 283.875841,61.1286358 C284.032296,61.4972131 284.032296,61.9147458 283.875841,62.283323 C283.799266,62.4588369 283.690487,62.6180211 283.555284,62.7524147 C283.416527,62.8902592 283.253412,63.0004271 283.074448,63.0771705 C282.889472,63.1605869 282.689234,63.2036179 282.48676,63.2034644 C281.887107,63.2120344 281.340361,62.8569659 281.09768,62.301365 C280.941225,61.9327877 280.941225,61.5152551 281.09768,61.1466778 C281.249951,60.7846047 281.538349,60.4989216 281.899073,60.3528303 C282.09018,60.2689831 282.29631,60.2259887 282.504569,60.2265364 L282.48676,60.2265364 Z M282.48676,62.8787087 C282.639782,62.8807446 282.791501,62.8500033 282.931979,62.7884987 C283.065175,62.7274744 283.185966,62.6418133 283.288153,62.5359109 C283.729352,62.0799027 283.729352,61.3500981 283.288153,60.8940899 C283.186526,60.7875207 283.065601,60.7017649 282.931979,60.6415021 C282.785112,60.6108752 282.633627,60.6108752 282.48676,60.6415021 C282.339752,60.6123163 282.18855,60.6123163 282.041542,60.6415021 C281.720716,60.7991306 281.491191,61.0997847 281.421263,61.4540046 C281.351334,61.8082245 281.449063,62.1751865 281.685368,62.4457009 C281.78728,62.5519317 281.908136,62.637639 282.041542,62.6982888 C282.18244,62.7857826 282.340432,62.8411887 282.504569,62.8606667 L282.48676,62.8787087 Z M282.48676,61.0745098 C282.63373,61.0662901 282.77883,61.1110292 282.896361,61.2008037 C282.991705,61.2802674 283.044501,61.4006126 283.038831,61.5255595 C283.045214,61.632778 283.006376,61.7377024 282.931979,61.8142313 C282.844207,61.8975235 282.731263,61.9483781 282.611422,61.9585672 L283.05664,62.4817849 L282.700465,62.4817849 L282.290864,61.9585672 L282.166203,61.9585672 L282.166203,62.4817849 L281.881264,62.4817849 L281.881264,61.0925518 L282.48676,61.0745098 Z M282.148395,61.3270977 L282.148395,61.6879374 L282.48676,61.6879374 C282.544931,61.7049783 282.606677,61.7049783 282.664848,61.6879374 C282.687114,61.6424697 282.687114,61.5890692 282.664848,61.5436015 C282.690297,61.4989438 282.690297,61.4439233 282.664848,61.3992656 C282.60655,61.3831554 282.545058,61.3831554 282.48676,61.3992656 L282.148395,61.3270977 Z M264.838314,43.2851093 C263.833773,43.2677859 262.837429,43.4708958 261.917683,43.8804949 C261.091419,44.2573681 260.351537,44.8041882 259.745019,45.4862319 C259.141104,46.1834228 258.675518,46.9920241 258.373747,47.8677743 C257.730539,49.7494626 257.730539,51.7956063 258.373747,53.6772946 C258.675518,54.5530448 259.141104,55.3616461 259.745019,56.0588371 C260.351186,56.7412744 261.091156,57.2881592 261.917683,57.664574 C263.764012,58.4443891 265.841381,58.4443891 267.68771,57.664574 C268.516149,57.2986398 269.261676,56.7644086 269.878183,56.094921 C270.562531,55.378313 271.090415,54.5238644 271.427542,53.5870846 C272.102644,51.6613917 272.102644,49.5589214 271.427542,47.6332285 C271.11018,46.7583891 270.626095,45.9553185 270.002844,45.269728 C269.386004,44.6006269 268.640562,44.0664561 267.812371,43.700075 C266.902575,43.3284391 265.925391,43.1562681 264.945166,43.1948993 L264.838314,43.2851093 Z"/>
      </g>
    </g>
    <g transform="translate(0 17)">
      <g transform="translate(49.3 132.121)">
        <path fill="#1B548E" d="M73.6069497,42.0374913 L64.5549285,66.448963 L63.5893796,61.4891206 C61.335165,55.4069226 56.4542011,49.0263169 50.770197,46.4404324 L59.0514897,77.7865601 L68.8409774,77.7818084 L83.3992884,42.0374913 L73.6069497,42.0374913"/>
        <polyline fill="#1B548E" points="81.366 77.822 87.153 42.003 96.401 42.003 90.61 77.822 81.366 77.822"/>
        <path fill="#1B548E" d="M124.161419 42.886148C122.333908 42.1638869 119.450566 41.3789033 115.873474 41.3789033 106.724518 41.3789033 100.297345 46.2418106 100.241275 53.1973742 100.182353 58.3491859 104.837135 61.2230244 108.3363 62.934593 111.947605 64.6860759 113.153591 65.8103322 113.142187 67.3774485 113.107024 69.7770656 110.253143 70.8709109 107.600734 70.8709109 103.903898 70.8709109 101.933836 70.3311159 98.9031911 68.9987344L97.701957 68.427578 96.4075892 76.4437248C98.5715212 77.4415854 102.565815 78.3063979 106.717865 78.3510641 116.426574 78.3510641 122.743506 73.5432767 122.818583 66.1191938 122.857548 62.032717 120.386655 58.9393492 115.045725 56.3857764 111.82216 54.7255264 109.828339 53.6250287 109.8578 51.9419705 109.860651 50.4556334 111.530404 48.8628578 115.156915 48.8628578 118.185659 48.8124896 120.363846 49.5071906 122.078266 50.2399054L122.903164 50.6504538 124.161419 42.886148M147.88104 42.0403423L140.736359 42.0403423C138.521108 42.0403423 136.860858 42.6713703 135.882955 45.0130166L122.154293 77.8331269 131.867754 77.8331269C131.867754 77.8331269 133.455778 73.4159306 133.815007 72.4475307 134.87464 72.4475307 144.308699 72.4693886 145.655336 72.4693886 145.941389 73.7181398 146.781493 77.8331269 146.781493 77.8331269L155.369747 77.8331269 147.88104 42.0403423zM136.475969 65.1213332C137.243846 63.0657403 140.16045 55.1094652 140.16045 55.1094652 140.10343 55.2064002 140.918824 53.0377165 141.390195 51.6967819L142.006017 54.7844477C142.006017 54.7844477 143.78316 63.3318365 144.153793 65.1213332L136.475969 65.1213332 136.475969 65.1213332z"/>
        <path fill="#E89F3E" d="M56.157694,42.0194347 L41.2420538,42.0194347 L41.1546222,42.6362076 C52.7516631,45.6022295 60.4038284,52.8856615 63.5893796,61.498624 L60.3477581,45.0367751 C59.7908569,42.7721067 58.1676703,42.0992636 56.157694,42.0194347"/>
        <polyline fill="#1B548E" points="13.265 33.364 7.367 33.364 .564 2.697 7.082 1.607 11.737 25.607 23.593 1.924 29.854 1.924 13.265 33.364"/>
        <path fill="#1B548E" d="M43.9343768 23.3385339L29.8702443 23.3385339C29.4863056 27.6027249 31.4677716 29.4634974 34.825335 29.4634974 37.6383515 29.4634974 40.1130458 28.4190699 42.7759081 26.7407634L42.7550006 31.0049544C40.1434568 32.6385948 37.1251661 33.6820718 33.5860872 33.6820718 27.4620741 33.6820718 23.4174125 30.1886094 24.6329017 22.2941065 25.7286477 15.1722329 30.6561784 10.8633757 36.3724941 10.8633757 42.9507713 10.8633757 45.1384619 15.8080126 44.1824164 22.0232586 44.1130413 22.4765725 43.9828443 23.0211192 43.9343768 23.3385339zM35.6578358 14.6286364C33.4796487 14.6286364 31.4449634 16.3516091 30.4851165 19.9363045L39.1950141 19.9363045C39.3556221 16.5331246 38.2883864 14.6286364 35.6578358 14.6286364L35.6578358 14.6286364zM53.1013895 20.6623669L51.1674406 33.228758 45.7238734 33.228758 49.0956919 11.3157392 53.7238644 11.3157392 53.7267155 15.7167796C55.5694314 13.1765117 58.075487 11.0448913 61.5052764 10.8633757L61.5366378 16.2613264C58.0992456 16.4884585 55.0068281 18.3026641 53.1013895 20.6623669M61.465362 33.228758L64.8381308 11.3157392 70.281698 11.3157392 66.9098795 33.228758 61.465362 33.228758zM68.1709852 7.64171152C66.3567796 7.64171152 65.1004256 6.37110235 65.3798266 4.55689675 65.66588 2.69707465 67.3204279 1.380849 69.1346335 1.380849 70.904173 1.380849 72.1529242 2.69707465 71.8668708 4.55689675 71.5874699 6.37110235 69.9405247 7.64171152 68.1709852 7.64171152L68.1709852 7.64171152zM85.3588965 5.32762527C83.4981241 5.32762527 82.3748182 6.14397027 82.0745096 8.09597568L81.5784304 11.3157392 85.7523387 11.3157392 85.7485373 15.7614458 80.8941831 15.7614458 78.2056615 33.228758 72.8077108 33.228758 75.4962324 15.7614458 72.3201847 15.7614458 73.0044319 11.3157392 76.1795293 11.3157392 76.7592388 7.55047855C77.5062088 2.69707465 80.8704245.881918703 85.3617476.881918703 86.314942.881918703 87.0267492.973151672 87.5579912 1.0634343L87.598856 5.50914086C87.067614 5.41885824 86.2655242 5.32762527 85.3588965 5.32762527M85.4178178 33.228758L88.7905866 11.3157392 94.2341538 11.3157392 90.8623353 33.228758 85.4178178 33.228758zM92.1234411 7.64171152C90.3092354 7.64171152 89.0528814 6.37110235 89.3322824 4.55689675 89.6183358 2.69707465 91.2728837 1.380849 93.0870893 1.380849 94.8566288 1.380849 96.1063304 2.69707465 95.820277 4.55689675 95.540876 6.37110235 93.8929805 7.64171152 92.1234411 7.64171152L92.1234411 7.64171152zM115.341281 23.3385339L101.277149 23.3385339C100.89321 27.6027249 102.874676 29.4634974 106.23224 29.4634974 109.045256 29.4634974 111.519 28.4190699 114.182813 26.7407634L114.160955 31.0049544C111.550361 32.6385948 108.53112 33.6820718 104.992041 33.6820718 98.8680284 33.6820718 94.8243171 30.1886094 96.038856 22.2941065 97.1355523 15.1722329 102.063083 10.8633757 107.779399 10.8633757 114.357676 10.8633757 116.545367 15.8080126 115.589321 22.0232586 115.518996 22.4765725 115.389749 23.0211192 115.341281 23.3385339zM107.06379 14.6286364C104.885603 14.6286364 102.850918 16.3516091 101.892021 19.9363045L110.601919 19.9363045C110.762527 16.5331246 109.694341 14.6286364 107.06379 14.6286364L107.06379 14.6286364zM131.466709 33.228758L131.480014 30.1886094C129.650602 32.0493818 127.268091 33.6820718 124.227943 33.6820718 119.645387 33.6820718 116.495949 30.2798424 117.63351 22.8842698 118.889864 14.718919 123.939989 11.0895575 129.020525 11.0895575 131.108429 11.0895575 132.731616 11.4525887 133.976566 11.9059025L135.603554 1.33523252 141.180169.474221371 136.139547 33.228758 131.466709 33.228758zM133.285666 16.3972255C132.02266 15.7614458 131.02765 15.4440311 129.167828 15.4440311 126.309195 15.4440311 123.866812 17.7581173 123.126495 22.5678054 122.470758 26.8310461 123.978002 28.8277176 126.382371 28.8277176 128.378093 28.8277176 130.102016 27.6492917 131.832591 25.8341358L133.285666 16.3972255 133.285666 16.3972255zM152.816174 33.4349825C150.238842 33.4349825 148.138583 33.0215832 146.182777 32.3354352L149.763671 9.07102804 153.986997 8.41719176 152.437937 18.4860804C153.672433 17.386533 155.387803 16.2869857 157.484261 16.2869857 160.989127 16.2869857 163.336476 18.8994798 162.479266 24.4656413 161.538426 30.5820516 157.765562 33.4349825 152.816174 33.4349825zM155.858223 19.9287017C154.483076 19.9287017 153.103178 20.8571873 151.881986 22.0954847L150.723518 29.620304C151.536061 29.9291656 152.098665 30.0669654 153.266637 30.0669654 155.87818 30.0669654 157.70284 28.4865443 158.28445 24.7060781 158.776728 21.5100732 157.714244 19.9287017 155.858223 19.9287017L155.858223 19.9287017zM172.194627 34.1220808C170.087715 38.2114086 168.002662 39.4829681 164.806657 39.4829681 164.084396 39.4829681 163.683351 39.4135931 163.32127 39.310956L163.294661 35.9087265C163.824002 36.0465263 164.391357 36.1491634 165.182043 36.1491634 166.385177 36.1491634 167.431505 35.5998649 168.132859 34.3967301L168.679306 33.2971827 165.182993 16.9398716 169.564076 16.3905731 171.593059 28.2109447 177.086995 16.63101 181.176322 16.63101 172.194627 34.1220808"/>
      </g>
      <g fill-rule="nonzero">
        <use fill="url(#artboard-a)" fill-rule="evenodd" xlink:href="#artboard-b"/>
        <use fill="url(#artboard-c)" fill-rule="evenodd" xlink:href="#artboard-b"/>
      </g>
    </g>
  </g>
</svg>
