<?xml version="1.0" encoding="UTF-8"?>
<svg width="1000px" height="1000px" viewBox="0 0 1000 1000" version="1.1" xmlns="http://www.w3.org/2000/svg" xmlns:xlink="http://www.w3.org/1999/xlink">
    <!-- Generator: Sketch 48.2 (47327) - http://www.bohemiancoding.com/sketch -->
    <title>Bitcoin</title>
    <desc>Created with Sketch.</desc>
    <defs>
        <polygon id="path-1" points="0.00035178439 2.61276923 161.446234 2.61276923 161.446234 170 0.00035178439 170"></polygon>
        <polygon id="path-3" points="0.677139869 0.733833333 109.710599 0.733833333 109.710599 112.97247 0.677139869 112.97247"></polygon>
    </defs>
    <g id="Page-1" stroke="none" stroke-width="1" fill="none" fill-rule="evenodd">
        <g id="Bitcoin">
            <g id="Oval-3-Copy-7" transform="translate(28.000000, 26.000000)" fill="#162331">
                <g id="path-19-link" transform="translate(15.161290, 15.354839)">
                    <ellipse id="path-19" cx="454.83871" cy="460.645161" rx="454.83871" ry="460.645161"></ellipse>
                </g>
            </g>
            <g id="Page-1" transform="translate(114.000000, 409.000000)">
                <g id="Group-3">
                    <g id="Fill-1-Clipped">
                        <mask id="mask-2" fill="white">
                            <use xlink:href="#path-1"></use>
                        </mask>
                        <g id="path-22"></g>
                        <path d="M159.030991,106.552077 C148.245697,151.390231 104.441004,178.673923 61.1888209,167.495769 C17.9517752,156.315 -8.36938824,110.901462 2.41842876,66.0685383 C13.1961542,21.2277693 57.0033699,-6.06115383 100.242939,5.117 C143.492599,16.2951538 169.811239,61.7139229 159.030991,106.552077" id="Fill-1" fill="#F7931A" fill-rule="nonzero" mask="url(#mask-2)"></path>
                    </g>
                </g>
                <path d="M98.7067756,74.2320073 C96.2616947,84.8197995 81.1536179,79.4404751 76.2560398,78.1216728 L80.5751053,59.4074968 C85.4726839,60.7262991 101.255692,63.187707 98.7067756,74.2320073 Z M96.0243567,104.430974 C93.3394648,116.070604 75.192961,109.778263 69.3064726,108.200506 L74.0730201,87.5668588 C79.9570365,89.152625 98.8279171,92.2921217 96.0243567,104.430974 Z M115.85448,74.4001945 C117.42932,63.0328679 109.414202,56.9220623 98.4546036,52.8455221 L102.009736,37.4470391 L93.3295761,35.1111041 L89.8683898,50.1038019 C87.584007,49.4897847 85.2427621,48.9104728 82.9138783,48.3365003 L86.3973148,33.2450258 L77.7245715,30.9090909 L74.1669669,46.3022346 C72.2781483,45.8377173 70.4239416,45.3785392 68.6241245,44.8953344 L68.6340136,44.8472809 L56.6632545,41.6196862 L54.354149,51.630836 C54.354149,51.630836 60.7919549,53.2246107 60.6584524,53.3233874 C64.1740284,54.2711096 64.809403,56.7832408 64.7030951,58.7747924 L60.6535075,76.316996 C60.8957909,76.383737 61.2097699,76.4798442 61.5558882,76.6293442 C61.266632,76.5519247 60.9575978,76.4664961 60.638674,76.383737 L54.9623291,100.957773 C54.532153,102.111057 53.4418796,103.840984 50.9844371,103.184252 C51.0709667,103.320404 44.6727174,101.483691 44.6727174,101.483691 L40.3660131,112.212975 L51.6593685,115.253695 C53.7608029,115.824997 55.8226807,116.417657 57.8474747,116.978282 L54.2577302,132.552961 L62.9280012,134.888896 L66.4831338,119.479734 C68.8540463,120.173841 71.1532626,120.814554 73.4030335,121.417893 L69.8577901,136.754974 L78.5379502,139.090909 L82.1301671,123.545596 C96.9316817,126.570298 108.061867,125.350272 112.746829,110.894172 C116.521995,99.2572118 112.558937,92.5403979 104.771268,88.1621885 C110.442669,86.7499491 114.714761,82.7214622 115.85448,74.4001945 Z" id="Fill-4" fill="#FFFFFF" fill-rule="nonzero"></path>
                <path d="M211.950567,139.198001 C216.792867,139.198001 221.35334,137.997285 225.642235,135.64481 C229.941378,133.289758 233.653809,130.112757 236.75903,126.152456 C239.866813,122.174118 242.326395,117.690759 244.117277,112.686918 C245.908159,107.6805 246.820254,102.455067 246.820254,97.0235035 C246.820254,90.3448438 245.708319,85.1400244 243.497258,81.3755485 C241.288758,77.6265328 237.194581,75.7404297 231.253155,75.7404297 C229.305986,75.7404297 226.800288,76.1140428 223.68738,76.778817 C220.566787,77.487394 217.774137,78.9612337 215.273563,81.1719936 L201.584457,138.345132 C202.409441,138.492001 203.139629,138.628563 203.762211,138.759972 C204.371982,138.904264 205.048367,139.004753 205.719627,139.071745 C206.429319,139.151621 207.241493,139.192848 208.222764,139.192848 C209.204034,139.192848 210.428701,139.198001 211.950567,139.198001 M238.91885,49.8632011 C245.567405,49.8632011 251.311552,51.0587636 256.13848,53.4138156 C260.988467,55.7869038 264.987848,58.9896718 268.200676,63.0143884 C271.367387,67.0571419 273.724486,71.7852823 275.246352,77.2039633 C276.757969,82.638104 277.51634,88.4793539 277.51634,94.7328673 C277.51634,104.34117 275.76645,113.413532 272.233364,121.967987 C268.700278,130.537903 263.906657,137.966365 257.808945,144.304908 C251.716358,150.63572 244.519521,155.629255 236.226121,159.316432 C227.942968,163.003608 218.937314,164.848485 209.268086,164.848485 C208.017799,164.848485 205.819548,164.812412 202.711765,164.750573 C199.606543,164.686156 196.040151,164.364076 192.043331,163.820404 C188.020891,163.256119 183.767865,162.421287 179.276568,161.300447 C174.787832,160.202797 170.52712,158.667117 166.509804,156.714022 L202.409441,5.00899457 L234.565903,0 L221.709468,53.8338083 C224.461124,52.586713 227.233277,51.6204717 230.000305,50.9144716 C232.772459,50.2239311 235.741891,49.8632011 238.91885,49.8632011" id="Fill-6" fill="#FFFFFF" fill-rule="nonzero"></path>
                <path d="M317.159299,41.8341693 C312.963541,41.8341693 309.161527,40.5522071 305.78586,37.9831342 C302.382607,35.4295066 300.697281,31.4986706 300.697281,26.2009231 C300.697281,23.2869046 301.274104,20.5530814 302.417718,17.9737117 C303.578887,15.3994903 305.096181,13.1830858 306.997188,11.2987557 C308.898195,9.42987105 311.095137,7.93682266 313.59303,6.81188795 C316.10597,5.70497277 318.77691,5.15151515 321.628421,5.15151515 C325.821671,5.15151515 329.608637,6.43347737 332.994336,9.00255029 C336.370003,11.5844943 338.065359,15.5153303 338.065359,20.7847614 C338.065359,23.7090768 337.491045,26.4531968 336.339907,29.0274181 C335.193786,31.6016395 333.676491,33.8180441 331.775484,35.7023741 C329.892033,37.573833 327.672519,39.0617329 325.179642,40.1763708 C322.666702,41.3013055 320.000777,41.8341693 317.159299,41.8341693 Z M302.533082,164.848485 L272.470588,164.848485 L297.855803,55.1943781 L328.126454,55.1943781 L302.533082,164.848485 Z" id="Fill-8" fill="#FFFFFF" fill-rule="nonzero"></path>
                <path d="M360.996448,25.6051076 L392.662253,20.6060606 L384.884509,52.8775434 L418.797386,52.8775434 L412.674052,78.2660192 L378.967977,78.2660192 L369.987257,116.56206 C369.160052,119.751684 368.690966,122.735691 368.559824,125.506371 C368.411028,128.289902 368.756537,130.677621 369.573654,132.692661 C370.385727,134.710272 371.848467,136.265245 373.966919,137.365293 C376.075283,138.480761 379.094076,139.046206 383.05104,139.046206 C386.311942,139.046206 389.489619,138.730071 392.561374,138.102941 C395.615474,137.486092 398.709927,136.627644 401.842208,135.504464 L404.094324,159.24287 C400.011261,160.767001 395.587733,162.082945 390.818695,163.188133 C386.044614,164.306172 380.39541,164.848485 373.863518,164.848485 C364.469195,164.848485 357.190801,163.427162 352.003118,160.597367 C346.820477,157.747011 343.158583,153.853152 340.966995,148.9235 C338.80567,144.01184 337.839757,138.349681 338.109607,131.970434 C338.389545,125.575766 339.335282,118.854682 340.966995,111.77634 L360.996448,25.6051076 Z" id="Fill-10" fill="#FFFFFF" fill-rule="nonzero"></path>
                <path d="M418.797386,122.098555 C418.797386,112.410533 420.247812,103.274378 423.138915,94.721774 C426.025142,86.1612494 430.186283,78.6754107 435.590646,72.2510561 C440.970632,65.8583879 447.520711,60.7938947 455.238444,57.0760602 C462.919611,53.3793499 471.512476,51.5151515 480.99266,51.5151515 C486.918689,51.5151515 492.215794,52.1224683 496.879099,53.3397419 C501.559468,54.5675783 505.793738,56.1545231 509.620915,58.1454658 L499.545934,82.9662354 C496.913226,81.8096929 494.180574,80.7904569 491.355289,79.8662797 C488.525128,78.9236184 485.073357,78.469451 480.995098,78.469451 C471.239454,78.469451 463.531472,82.1107109 457.790707,89.3694657 C452.071882,96.6335018 449.195405,106.413941 449.195405,118.676458 C449.195405,125.945774 450.640957,131.826184 453.549123,136.320328 C456.440226,140.817112 461.781209,143.056263 469.53307,143.056263 C473.360246,143.056263 477.055787,142.620579 480.595316,141.775616 C484.156784,140.920092 487.303845,139.842765 490.073063,138.57004 L492.254797,164.01397 C488.559256,165.566588 484.483435,166.968698 480.015145,168.196533 C475.534667,169.382121 470.198559,170 464.014135,170 C455.852742,170 448.939447,168.703511 443.288877,166.158062 C437.635869,163.567724 432.960377,160.132424 429.277024,155.780868 C425.576607,151.418749 422.921961,146.325211 421.281394,140.479127 C419.635952,134.638325 418.797386,128.501786 418.797386,122.098555" id="Fill-12" fill="#FFFFFF" fill-rule="nonzero"></path>
                <path d="M563.854833,78.4726924 C559.240731,78.4726924 555.161518,79.8352248 551.669136,82.5259617 C548.163767,85.2483855 545.219258,88.6705591 542.845994,92.7977645 C540.446764,96.9434535 538.668111,101.466743 537.4659,106.378196 C536.274079,111.302853 535.689846,115.958171 535.689846,120.38112 C535.689846,127.51857 536.821952,133.076962 539.047214,137.07742 C541.303629,141.056753 545.356876,143.058303 551.248492,143.058303 C555.878171,143.058303 559.93661,141.706333 563.449765,138.986549 C566.934362,136.28525 569.881469,132.860435 572.272908,128.725309 C574.656556,124.600744 576.450785,120.066892 577.650403,115.144877 C578.829247,110.236064 579.42905,105.55434 579.42905,101.139313 C579.42905,94.0203463 578.299544,88.4487519 576.056107,84.4535752 C573.815268,80.4742415 569.743851,78.4726924 563.854833,78.4726924 M548.301385,170 C540.8726,170 534.420128,168.848713 528.943964,166.569904 C523.485974,164.291096 518.967943,161.09601 515.392468,156.947681 C511.811801,152.823117 509.129545,147.935429 507.293769,142.3031 C505.457998,136.676054 504.575163,130.439036 504.575163,123.607891 C504.575163,115.039254 505.927975,106.473257 508.662162,97.9310253 C511.385964,89.3703095 515.42363,81.6783396 520.767369,74.8419138 C526.066962,67.9949258 532.610318,62.3969252 540.31174,58.0320691 C548.005376,53.6962592 556.854484,51.5151515 566.79415,51.5151515 C574.085312,51.5151515 580.506626,52.6690791 586.055495,54.9478878 C591.578398,57.2214153 596.127587,60.4455467 599.721237,64.5701109 C603.278537,68.7157999 605.981567,73.5823637 607.801761,79.2226134 C609.632339,84.8417382 610.535948,91.0919588 610.535948,97.9283846 C610.535948,106.470616 609.201311,115.036613 606.550213,123.605251 C603.899119,132.131639 599.967914,139.842093 594.774776,146.694362 C589.592022,153.530788 583.110986,159.126148 575.326471,163.47252 C567.552345,167.818892 558.534462,170 548.301385,170" id="Fill-14" fill="#FFFFFF" fill-rule="nonzero"></path>
                <path d="M655.206673,41.8341693 C651.015344,41.8341693 647.215075,40.5522071 643.843464,37.9831342 C640.459319,35.4295066 638.759723,31.4986706 638.759723,26.2009231 C638.759723,23.2869046 639.343804,20.5530814 640.489396,17.9737117 C641.634994,15.3994903 643.159114,13.1830858 645.061756,11.2987557 C646.951864,9.42987105 649.17036,7.93682266 651.662093,6.81188795 C654.158837,5.70497277 656.828554,5.15151515 659.663717,5.15151515 C663.86758,5.15151515 667.66534,6.43347737 671.041967,9.00255029 C674.423605,11.5844943 676.130719,15.5153303 676.130719,20.7847614 C676.130719,23.7090768 675.521571,26.4531968 674.386004,29.0274181 C673.25294,31.6016395 671.72882,33.8180441 669.836209,35.7023741 C667.93106,37.573833 665.737631,39.0617329 663.240882,40.1763708 C660.724081,41.3013055 658.061887,41.8341693 655.206673,41.8341693 Z M640.607215,164.848485 L610.535948,164.848485 L635.912027,55.1943781 L666.178822,55.1943781 L640.607215,164.848485 Z" id="Fill-16" fill="#FFFFFF" fill-rule="nonzero"></path>
                <g id="Group-20" transform="translate(660.993464, 51.515152)">
                    <g id="Fill-18-Clipped">
                        <mask id="mask-4" fill="white">
                            <use xlink:href="#path-3"></use>
                        </mask>
                        <g id="path-24"></g>
                        <path d="M25.9917932,8.2524697 C28.3410012,7.56731818 30.9638533,6.74307576 33.8164632,5.84671212 C36.6793992,4.95034848 39.8779364,4.11580303 43.4507979,3.36368182 C46.9849362,2.58837879 50.9734268,1.95989394 55.3594757,1.47307576 C59.7455245,0.975954545 64.7434006,0.733833333 70.2937274,0.733833333 C86.6142695,0.733833333 97.8646528,5.47580303 104.075856,14.9314091 C110.281895,24.3870152 111.35582,37.3276212 107.328605,53.7300455 L93.0939532,112.97247 L61.945003,112.97247 L75.7407923,54.9767121 C76.5823763,51.355197 77.2458341,47.8547424 77.7311653,44.4341364 C78.2242407,41.0444394 78.1958437,38.0565606 77.6201587,35.4705 C77.0702889,32.9153485 75.7743521,30.8238333 73.763327,29.2036818 C71.7213229,27.6092879 68.636374,26.8082273 64.4516855,26.8082273 C60.4193085,26.8082273 56.3146486,27.2409545 52.1247972,28.0755 L31.8415794,112.969894 L0.677139869,112.969894 L25.9917932,8.2524697 Z" id="Fill-18" fill="#FFFFFF" fill-rule="nonzero" mask="url(#mask-4)"></path>
                    </g>
                </g>
            </g>
        </g>
    </g>
</svg>
