<?xml version="1.0" encoding="UTF-8"?>
<svg width="1000px" height="1000px" viewBox="0 0 1000 1000" version="1.1" xmlns="http://www.w3.org/2000/svg" xmlns:xlink="http://www.w3.org/1999/xlink">
    <!-- Generator: Sketch 48.2 (47327) - http://www.bohemiancoding.com/sketch -->
    <title>Lisk</title>
    <desc>Created with Sketch.</desc>
    <defs>
        <polygon id="path-1" points="0.586503126 0.212227799 127.5969 0.212227799 127.5969 138.957977 0.586503126 138.957977"></polygon>
    </defs>
    <g id="Page-1" stroke="none" stroke-width="1" fill="none" fill-rule="evenodd">
        <g id="Lisk">
            <g id="Oval-3" transform="translate(28.000000, 28.000000)" fill="#162331">
                <g id="path-1-link" transform="translate(15.225806, 15.225806)">
                    <circle id="path-1" cx="456.774194" cy="456.774194" r="456.774194"></circle>
                </g>
            </g>
            <g id="Page-1" transform="translate(214.000000, 203.000000)">
                <path d="M289.524759,0 L209.935365,112.813476 L167.813953,292.935017 L289.505276,364.923077 L411.906977,292.97634 L370.559638,112.902132 L289.524759,0 Z M291.053422,83.7087061 L291.027195,7.2382505 L367.246785,113.431063 L346.304851,179.424313 L291.053422,83.7087061 Z M213.174033,113.428058 L288.030565,7.32239872 L288.056043,83.6147907 L233.49626,178.593349 L213.174033,113.428058 Z M268.223139,289.951512 L234.713196,182.496475 L289.530753,87.069376 L345.076675,183.295883 L311.227278,289.96203 L268.223139,289.951512 Z M365.992382,213.529892 L348.562626,183.337206 L368.811417,118.879661 L406.755232,283.942426 L365.992382,213.529892 Z M211.297674,118.879661 L231.272205,182.466422 L173.60339,282.856764 L211.297674,118.879661 Z M314.373027,289.96203 L347.088665,186.86467 L363.452853,215.130962 L406.660066,289.982316 L314.373027,289.96203 Z M173.35236,289.931225 L232.964974,186.958585 L265.083384,289.951512 L173.35236,289.931225 Z M269.941386,292.958308 L310.164708,292.967324 L289.528505,358.384309 L269.941386,292.958308 Z M174.692188,292.965821 L266.025311,292.973335 L286.999467,360.074786 L174.692188,292.965821 Z M313.417613,292.973335 L405.395921,293.019917 L292.124235,360.069527 L313.417613,292.973335 Z" id="Fill-1" fill="#FFFFFF" fill-rule="nonzero"></path>
                <polygon id="Fill-2" fill="#FFFFFF" fill-rule="nonzero" points="0 446.017094 0 587.931624 81.3643411 587.931624 81.3643411 576.983116 10.1927483 576.983116 10.1927483 522.480678 72.8737819 522.480678 72.8737819 511.531389 10.1927483 511.531389 10.1927483 456.966384 81.3643411 456.966384 81.3643411 446.017094"></polygon>
                <g id="Group-11" transform="translate(218.666667, 451.085470)">
                    <g id="Group-5">
                        <g id="Fill-3-Clipped">
                            <mask id="mask-2" fill="white">
                                <use xlink:href="#path-1"></use>
                            </mask>
                            <g id="path-48"></g>
                            <path d="M116.940087,71.2130654 C116.940087,107.33025 101.047333,128.570757 63.7732215,128.402819 L63.7724608,128.422882 C60.7876699,128.505365 40.700837,128.573729 27.913118,117.33671 C13.3795781,104.565209 11.2410618,88.2469351 11.2425839,69.7699832 L11.2433449,69.7699832 C11.2494332,51.4936649 13.397082,34.5519382 27.913118,21.7960418 C37.3796679,13.4771404 51.5638914,10.6712296 64.4307583,10.7299337 L64.4307583,10.7098703 C67.4155487,10.6296165 87.5016208,10.5575367 100.290862,21.7960418 C116.93476,36.4230408 116.938565,56.912283 116.940087,67.9196868 L116.940087,71.2130654 Z M127.5969,69.3545953 C127.581679,47.3308705 124.316066,28.9081636 107.417981,14.063439 C86.6462141,-4.19058619 42.0448299,-4.61786339 20.7852375,14.063439 C3.69080527,29.0857624 0.596425365,48.3303276 0.588814987,69.6993893 C0.485313838,91.3084695 3.80648302,110.14805 20.7852375,125.070056 C42.1704011,143.862822 86.6599128,143.309963 107.417981,125.070056 C124.591561,109.977882 127.590051,90.9294933 127.592334,69.3545953 L127.5969,69.3545953 Z" id="Fill-3" fill="#FFFFFF" fill-rule="nonzero" mask="url(#mask-2)"></path>
                        </g>
                    </g>
                    <path d="M263.173053,129.621859 L263.159355,117.612769 C264.485083,118.53643 266.70503,119.680047 266.693615,119.672616 C271.819204,123.018011 334.591128,143.470842 342.456455,104.807828 C344.90243,84.2019205 326.935088,77.1462737 306.091783,72.2909184 C299.933465,70.8574965 289.625207,68.4573133 280.83522,63.2237249 C269.561205,56.5106425 263.682949,46.7048165 263.838201,34.865894 L263.851899,34.5552821 C267.131973,-9.48473652 328.683953,-2.03227899 345.288277,8.00687753 L345.288277,19.7960129 C341.351428,17.9605786 337.865874,14.5876896 320.759266,12.1384623 C298.273641,8.9201361 276.248445,12.8287937 274.489686,35.1527271 C274.371725,51.8938193 290.791117,58.0339785 308.562873,62.1707652 C319.826994,64.7916463 332.231911,68.5308793 341.156602,75.7581803 C362.354551,92.9220909 355.178724,127.219447 326.034019,135.929214 C306.335315,141.816722 272.479785,136.248742 263.173053,129.621859" id="Fill-6" fill="#FFFFFF" fill-rule="nonzero"></path>
                </g>
            </g>
        </g>
    </g>
</svg>