<?xml version="1.0" encoding="UTF-8"?>
<svg width="1000px" height="1000px" viewBox="0 0 1000 1000" version="1.1" xmlns="http://www.w3.org/2000/svg" xmlns:xlink="http://www.w3.org/1999/xlink">
    <!-- Generator: Sketch 48.2 (47327) - http://www.bohemiancoding.com/sketch -->
    <title>ethereum</title>
    <desc>Created with Sketch.</desc>
    <defs>
        <polygon id="path-1" points="0 0 628.800651 0 628.800651 110.589091 0 110.589091"></polygon>
        <polygon id="path-3" points="0.378298797 0.479704434 321.847329 0.479704434 321.847329 165.853467 0.378298797 165.853467"></polygon>
        <polygon id="path-5" points="0.377671132 0.124526412 160.898142 0.124526412 160.898142 356.87101 0.377671132 356.87101"></polygon>
        <polygon id="path-7" points="0.417594397 0.12462366 160.87466 0.12462366 160.87466 356.87101 0.417594397 356.87101"></polygon>
        <polygon id="path-9" points="0.377671132 0.0336575494 160.898142 0.0336575494 160.898142 220.915557 0.377671132 220.915557"></polygon>
        <polygon id="path-11" points="0.416321243 0.0336575494 160.509679 0.0336575494 160.509679 220.915557 0.416321243 220.915557"></polygon>
    </defs>
    <g id="Page-1" stroke="none" stroke-width="1" fill="none" fill-rule="evenodd">
        <g id="ethereum">
            <g id="Oval-3-Copy-2" transform="translate(35.000000, 30.000000)" fill="#162331">
                <g id="path-3-link" transform="translate(15.080645, 15.080645)">
                    <circle id="path-3" cx="452.419355" cy="452.419355" r="452.419355"></circle>
                </g>
            </g>
            <g id="Page-1" transform="translate(190.000000, 120.000000)">
                <g id="Group-3" transform="translate(0.000000, 527.811570)">
                    <g id="Fill-1-Clipped">
                        <mask id="mask-2" fill="white">
                            <use xlink:href="#path-1"></use>
                        </mask>
                        <g id="path-26"></g>
                        <path d="M628.8004,74.6950183 L628.8004,106.53914 C628.8004,107.976014 627.57522,109.021245 626.349793,109.021245 C624.930902,109.021245 623.899186,107.943398 623.899186,106.53914 L623.899186,74.6950183 C623.899186,64.01491 617.933548,53.5307505 606.163788,53.5307505 C591.394729,53.5307505 585.784072,69.5346051 585.784072,81.978254 L585.784072,106.53914 C585.784072,107.976014 584.558892,109.021245 583.333208,109.021245 C581.914569,109.021245 580.882601,107.943398 580.882601,106.53914 L580.882601,74.6950183 C580.882601,64.01491 574.916968,53.5307505 563.147208,53.5307505 C548.217393,53.5307505 542.058291,65.4520384 542.606479,81.2925604 C542.606479,81.6515874 542.767739,82.370152 542.606479,82.5334851 L542.606479,106.473909 C542.606479,107.682218 541.800427,108.792425 540.6072,108.988629 C538.962645,109.249809 537.672809,108.106731 537.672809,106.53914 L537.672809,52.1919781 C537.672809,50.9831594 538.479112,49.872952 539.639888,49.6767483 C541.284443,49.415568 542.574275,50.5586461 542.574275,52.1264922 L542.574275,61.2061386 C546.798502,53.5633658 554.344039,48.5665409 563.115004,48.5665409 C573.1114,48.5665409 580.850401,54.9678789 584.010708,64.4068076 C588.041215,55.1640825 595.941728,48.5665409 606.131588,48.5665409 C620.545414,48.5665409 628.800651,61.1735229 628.800651,74.6950183 L628.8004,74.6950183 Z M504.652877,52.5512604 L504.652877,106.865807 C504.652877,108.302935 503.427445,109.347911 502.202017,109.347911 C500.783124,109.347911 499.751157,108.270065 499.751157,106.865807 L499.751157,96.5449802 C495.720648,104.742729 488.49738,110.589091 479.37169,110.589091 C464.796599,110.589091 456.702625,97.7861597 456.702625,84.2646648 L456.702625,52.4205431 C456.702625,51.179363 457.766794,49.9381834 459.153232,49.9381834 C460.572376,49.9381834 461.604092,51.179363 461.604092,52.4205431 L461.604092,84.2646648 C461.604092,94.9445182 467.569477,105.624627 479.339237,105.624627 C495.849455,105.624627 499.718955,89.9800538 499.718955,72.7026583 L499.718955,52.4205431 C499.718955,50.9831594 501.137847,49.5136698 502.87926,50.0362853 C503.943177,50.3955674 504.652877,51.4405433 504.652877,52.5512604 Z M420.167662,76.8507113 C419.103745,64.570396 409.816794,53.3676718 396.982613,53.3676718 C384.148684,53.3676718 375.022994,64.570396 373.797816,76.8507113 L420.167662,76.8507113 Z M425.423853,79.2673298 C425.423853,80.6718429 424.263078,81.8149209 422.876388,81.8149209 L373.797816,81.8149209 C375.022994,94.0954911 384.148684,105.298215 396.982613,105.298215 C405.753581,105.298215 412.267402,101.901342 417.168618,94.8140553 C417.878315,93.834056 418.942233,93.2135934 420.296721,93.8014402 C421.038369,94.1281068 421.554353,94.8140553 421.683411,95.5978514 C421.812219,96.4142628 421.586555,96.8716468 421.360891,97.3287758 C416.427222,106.049395 406.591834,110.327911 396.950412,110.327911 C380.440445,110.327911 368.670684,95.3692864 368.670684,79.3654319 C368.670684,63.3615768 380.440445,48.4032076 396.950412,48.4032076 C413.460379,48.3703371 425.391651,63.2966002 425.423853,79.2673298 Z M344.808391,51.930543 C344.808391,53.5307505 343.937936,54.4126477 342.519044,54.608597 C328.104962,56.7316743 321.623342,68.6527073 321.623342,82.5334851 L321.623342,106.310321 C321.623342,107.518884 320.81729,108.629347 319.656516,108.825296 C318.011959,109.086731 316.722126,107.943398 316.722126,106.375807 L316.722126,52.1919781 C316.722126,50.9831594 317.528178,49.872952 318.688952,49.6767483 C320.333509,49.415568 321.623342,50.5586461 321.623342,52.1264922 L321.623342,63.1658829 C325.654102,56.2416742 333.748077,49.6441326 342.164321,49.6441326 C343.389751,49.6117717 344.808391,50.5260303 344.808391,51.930543 Z M279.284004,76.8507113 C278.220086,64.570396 268.933136,53.3676718 256.099207,53.3676718 C243.265277,53.3676718 234.139587,64.570396 232.914157,76.8507113 L279.284004,76.8507113 Z M284.572396,79.2673298 C284.572396,80.6718429 283.411622,81.8149209 282.024931,81.8149209 L232.914157,81.8149209 C234.139587,94.0954911 243.265277,105.298215 256.099207,105.298215 C264.870174,105.298215 271.383995,101.901342 276.285211,94.8140553 C276.994657,93.834056 278.058826,93.2135934 279.413315,93.8014402 C280.154711,94.1281068 280.670694,94.8140553 280.799753,95.5978514 C280.928812,96.4142628 280.703148,96.8716468 280.477232,97.3287758 C275.543563,106.049395 265.708427,110.327911 256.067005,110.327911 C239.556786,110.327911 227.787026,95.3692864 227.787026,79.3654319 C227.787026,63.3615768 239.556786,48.4032076 256.067005,48.4032076 C272.609174,48.3703371 284.540195,63.2966002 284.572396,79.2673298 Z M196.572658,74.8909671 L196.572658,106.571756 C196.572658,108.008885 195.347228,109.054115 194.12205,109.054115 C192.703158,109.054115 191.671442,107.976014 191.671442,106.571756 L191.671442,74.8909671 C191.671442,64.2108588 185.705806,53.5307505 173.935794,53.5307505 C158.844719,53.5307505 152.331149,66.8889124 153.201604,80.5737408 C153.201604,80.9330232 153.362865,82.5334851 153.362865,82.6968181 L153.362865,106.473909 C153.362865,107.682218 152.556813,108.79268 151.395787,108.988629 C149.751231,109.249809 148.461398,108.106731 148.461398,106.53914 L148.461398,2.48235951 C148.461398,1.24117976 149.525567,0 150.912005,0 C152.331149,0 153.362865,1.24117976 153.362865,2.48235951 L153.362865,61.3694717 C157.587088,53.7269542 165.132625,48.5665409 173.903844,48.5665409 C188.317674,48.5665409 196.572658,61.3694717 196.572658,74.8912219 L196.572658,74.8909671 Z M116.311919,49.6117717 C117.730811,49.6117717 118.762778,50.8526964 118.762778,52.0938765 C118.762778,53.5307505 117.698609,54.5759813 116.311919,54.5759813 L103.155468,54.5759813 L103.155468,106.865807 C103.155468,108.106731 102.091299,109.347911 100.704861,109.347911 C99.2859684,109.347911 98.2540014,108.106731 98.2540014,106.865807 L98.2540014,54.5759813 L85.6135343,54.5759813 C84.1946421,54.5759813 83.1629266,53.4981348 83.1629266,52.0938765 C83.1629266,50.8526964 84.2268442,49.6117717 85.6135343,49.6117717 L98.2540014,49.6117717 L98.2540014,30.4724792 C98.2540014,29.2641699 99.0603044,28.1537077 100.221079,27.957504 C101.865635,27.6963237 103.155468,28.8394016 103.155468,30.406993 L103.155468,49.6117717 L116.311919,49.6117717 Z M51.4972295,76.8507113 C50.4330604,64.570396 41.1461099,53.3676718 28.3121805,53.3676718 C15.4779996,53.3676718 6.35256105,64.570396 5.1271314,76.8507113 L51.4972295,76.8507113 Z M56.7531684,79.2673298 C56.7531684,80.6718429 55.5923939,81.8149209 54.2057033,81.8149209 L5.1271314,81.8149209 C6.35256105,94.0954911 15.4779996,105.298215 28.3121805,105.298215 C37.0831476,105.298215 43.5967177,101.901342 48.4981849,94.8140553 C49.2076309,93.834056 50.2718,93.2135934 51.6260371,93.8014402 C52.3676848,94.1281068 52.8836686,94.8140553 53.0127271,95.5978514 C53.1415347,96.4142628 52.9158702,96.8716468 52.6902062,97.3287758 C47.756537,106.049395 37.9214009,110.327911 28.2799788,110.327911 C11.7697603,110.327911 0,95.3692864 0,79.3654319 C0,63.3615768 11.7697603,48.4032076 28.2799788,48.4032076 C44.7899456,48.3703371 56.7209663,63.2966002 56.7531684,79.2673298 Z" id="Fill-1" fill="#FFFFFF" fill-rule="nonzero" mask="url(#mask-2)"></path>
                    </g>
                </g>
                <g id="Group-6" transform="translate(155.942562, 191.017521)">
                    <g id="Fill-4-Clipped">
                        <mask id="mask-4" fill="white">
                            <use xlink:href="#path-3"></use>
                        </mask>
                        <g id="path-28"></g>
                        <polygon id="Fill-4" fill="#FFFFFF" fill-rule="nonzero" mask="url(#mask-4)" points="161.144688 0.479607426 0.378298797 72.4110203 161.144688 165.853467 321.847476 72.4110203"></polygon>
                    </g>
                </g>
                <g id="Group-9" transform="translate(155.942562, 0.000000)">
                    <g id="Fill-7-Clipped">
                        <mask id="mask-6" fill="white">
                            <use xlink:href="#path-5"></use>
                        </mask>
                        <g id="path-30"></g>
                        <polygon id="Fill-7" fill="#FFFFFF" fill-rule="nonzero" mask="url(#mask-6)" points="0.377671132 263.197147 160.89824 356.871059 160.89824 0.124526412"></polygon>
                    </g>
                </g>
                <g id="Group-12" transform="translate(311.885123, 0.000000)">
                    <g id="Fill-10-Clipped">
                        <mask id="mask-8" fill="white">
                            <use xlink:href="#path-7"></use>
                        </mask>
                        <g id="path-32"></g>
                        <polygon id="Fill-10" fill="#FFFFFF" fill-rule="nonzero" mask="url(#mask-8)" points="0.417594397 0.12462366 0.417594397 356.871156 160.87466 263.197244"></polygon>
                    </g>
                </g>
                <g id="Group-15" transform="translate(155.942562, 296.579835)">
                    <g id="Fill-13-Clipped">
                        <mask id="mask-10" fill="white">
                            <use xlink:href="#path-9"></use>
                        </mask>
                        <g id="path-34"></g>
                        <polygon id="Fill-13" fill="#FFFFFF" fill-rule="nonzero" mask="url(#mask-10)" points="0.377671132 0.033561385 160.89824 220.915557 160.89824 92.6634649"></polygon>
                    </g>
                </g>
                <g id="Group-18" transform="translate(311.885123, 296.579835)">
                    <g id="Fill-16-Clipped">
                        <mask id="mask-12" fill="white">
                            <use xlink:href="#path-11"></use>
                        </mask>
                        <g id="path-36"></g>
                        <polygon id="Fill-16" fill="#FFFFFF" fill-rule="nonzero" mask="url(#mask-12)" points="0.416321243 92.6634649 0.416321243 220.915557 160.509826 0.033561385"></polygon>
                    </g>
                </g>
            </g>
        </g>
    </g>
</svg>
