<?xml version="1.0" encoding="UTF-8"?>
<svg width="1000px" height="1000px" viewBox="0 0 1000 1000" version="1.1" xmlns="http://www.w3.org/2000/svg" xmlns:xlink="http://www.w3.org/1999/xlink">
    <!-- Generator: Sketch 48.2 (47327) - http://www.bohemiancoding.com/sketch -->
    <title>Icon</title>
    <desc>Created with Sketch.</desc>
    <defs>
        <polygon id="path-1" points="1.71819822 0.620579048 192.652116 0.620579048 192.652116 218.345198 1.71819822 218.345198"></polygon>
        <polygon id="path-3" points="0 1.77535738 54.6367679 1.77535738 54.6367679 54.5835703 0 54.5835703"></polygon>
    </defs>
    <g id="Page-1" stroke="none" stroke-width="1" fill="none" fill-rule="evenodd">
        <g id="Icon">
            <g id="Oval-3-Copy-4" transform="translate(40.000000, 40.000000)" fill="#162331">
                <g id="path-13-link">
                    <circle id="path-13" cx="460.5" cy="460.5" r="460.5"></circle>
                </g>
            </g>
            <g id="Page-1" transform="translate(121.000000, 368.000000)">
                <g id="Group-3" transform="translate(572.693333, 25.566038)">
                    <g id="Fill-1-Clipped">
                        <mask id="mask-2" fill="white">
                            <use xlink:href="#path-1"></use>
                        </mask>
                        <g id="path-14"></g>
                        <path d="M1.72265617,218.119189 C1.72265617,211.169792 1.71676809,206.004859 1.72265617,200.839926 C1.77368621,166.16754 1.58919301,131.49319 1.93658978,96.822767 C2.47240513,43.3477466 44.9392066,0.526505156 96.9407736,0.620734264 C148.977669,0.713000269 191.874301,43.6009873 192.447407,96.7108696 C192.853684,134.322026 192.535728,171.944962 192.504325,209.562008 C192.502363,211.805839 192.176555,214.051633 191.878226,217.889506 C180.064773,217.889506 168.392634,218.260533 156.799003,217.483143 C155.079683,217.36732 152.430047,211.833322 152.400607,208.784618 C152.063023,175.749463 152.186673,142.712343 152.121904,109.675225 C152.110128,103.793758 152.139568,97.8808814 151.597865,92.0327868 C148.879535,62.7059394 124.310536,40.7093315 95.3451037,41.4631643 C66.7839862,42.2071817 42.585937,65.9882535 42.054047,95.2640604 C41.3769177,132.541489 41.4907539,169.840512 41.8283372,207.125793 C41.906845,215.651564 39.5516127,218.894616 30.8254769,218.270348 C21.4830554,217.602892 12.0582007,218.119189 1.72265617,218.119189" id="Fill-1" fill="#FFFFFF" fill-rule="nonzero" mask="url(#mask-2)"></path>
                    </g>
                </g>
                <path d="M265.260991,199.459852 L265.260991,239.550288 C232.973115,239.090034 201.002442,243.885957 170.04249,234.04658 C121.937731,218.757641 92.4022434,171.252863 97.7828992,119.391144 C102.785274,71.1805138 142.693941,31.3260069 192.518698,26.7911522 C214.652089,24.776091 237.092833,25.8087616 259.389752,26.0021456 C261.545166,26.021484 265.322068,29.7653981 265.509238,32.0067186 C266.230337,40.6471154 265.556523,49.386138 265.879639,58.0729469 C266.100303,63.9943649 263.665118,65.8740572 257.787967,65.8199099 C239.08669,65.6419963 220.359801,65.3886635 201.680196,66.1003166 C170.909384,67.2722234 145.765505,88.0029876 138.877635,116.964175 C131.901106,146.308262 144.997122,177.269039 172.101364,190.943221 C181.940616,195.905455 193.832831,198.367232 204.984246,199.100158 C224.534685,200.386161 244.236831,199.459852 265.260991,199.459852" id="Fill-4" fill="#FFFFFF" fill-rule="nonzero"></path>
                <path d="M490.88,53.4251895 C482.287867,60.5716988 474.566492,67.6536493 466.085895,73.6596126 C463.399264,75.5611746 458.288207,75.8076737 454.961715,74.7316866 C441.145033,70.2516685 427.340092,66.9650173 412.826804,70.5451196 C374.370601,80.0392369 351.730889,117.055143 363.565373,155.362234 C368.38683,170.971869 365.021203,180.422947 353.48806,189.484714 C349.693902,192.466175 346.406545,196.091273 342.892205,199.415094 C317.970911,173.36056 309.801438,106.670891 350.911007,63.054294 C386.674708,25.1071702 454.359033,18.7529783 490.88,53.4251895" id="Fill-6" fill="#FFFFFF" fill-rule="nonzero"></path>
                <path d="M363.046667,219.533828 C371.189476,211.222244 378.353766,202.943813 386.636638,196.057796 C389.004269,194.090084 394.934858,195.199726 398.689683,196.508283 C432.124318,208.166342 462.761541,197.668629 479.933582,168.174402 C491.330445,148.600642 492.02692,128.051801 483.788177,107.356699 C480.762445,99.7569234 481.96161,94.6260512 487.744462,89.4815278 C494.148962,83.7831592 500.137112,77.6031008 506.357419,71.5849057 C531.40174,103.36082 538.299335,163.638329 497.898031,207.444783 C462.631072,245.687429 401.947575,251.684173 363.046667,219.533828" id="Fill-8" fill="#FFFFFF" fill-rule="nonzero"></path>
                <path d="M5.11333333,71.5849057 L44.9304736,71.5849057 C45.1879814,75.187054 45.6044197,78.3153374 45.610455,81.4436203 C45.7170794,131.147491 45.5943608,180.855214 46.0188463,230.555232 C46.0872468,238.452991 43.119872,240.153898 35.591793,240.244434 C5.0771213,240.608501 5.11333333,240.812687 5.12942755,212.242063 C5.15155714,169.268624 5.12138044,126.297111 5.11333333,83.3255982 C5.11333333,79.5789787 5.11333333,75.8323587 5.11333333,71.5849057" id="Fill-10" fill="#FFFFFF" fill-rule="nonzero"></path>
                <g id="Group-14">
                    <g id="Fill-12-Clipped">
                        <mask id="mask-4" fill="white">
                            <use xlink:href="#path-3"></use>
                        </mask>
                        <g id="path-16"></g>
                        <path d="M27.1832105,1.77541145 C42.3838722,1.80644333 54.4949849,13.1757485 54.6356016,27.5454485 C54.7742092,42.0683685 42.5425681,54.4268147 27.8762498,54.581974 C12.5450155,54.7448915 -0.206907381,42.4155377 0.00200880952,27.6327257 C0.202889762,13.4608539 12.5168922,1.74631906 27.1832105,1.77541145" id="Fill-12" fill="#FFFFFF" fill-rule="nonzero" mask="url(#mask-4)"></path>
                    </g>
                </g>
                <path d="M322.309636,270.999999 C307.872348,270.996129 296.586999,259.855191 296.573346,245.593319 C296.559693,231.401103 307.421792,220.163421 321.42998,219.873192 C335.539591,219.582962 347.661686,231.325643 347.706547,245.324373 C347.749457,259.412107 336.282716,271.003869 322.309636,270.999999" id="Fill-15" fill="#FFFFFF" fill-rule="nonzero"></path>
                <path d="M532.447105,5.11328752 C546.669202,5.07838733 557.514828,16.467488 557.351513,31.2690534 C557.196068,45.483132 545.960852,56.3797522 531.595116,56.2440287 C517.764582,56.1141226 506.303083,44.4865371 506.220442,30.5031878 C506.137802,16.2910481 517.646521,5.15012664 532.447105,5.11328752" id="Fill-17" fill="#FFFFFF" fill-rule="nonzero"></path>
            </g>
        </g>
    </g>
</svg>
