<?xml version="1.0" encoding="UTF-8"?>
<svg width="1000px" height="1000px" viewBox="0 0 1000 1000" version="1.1" xmlns="http://www.w3.org/2000/svg" xmlns:xlink="http://www.w3.org/1999/xlink">
    <!-- Generator: Sketch 48.2 (47327) - http://www.bohemiancoding.com/sketch -->
    <title>Icon Copy</title>
    <desc>Created with Sketch.</desc>
    <defs>
        <polygon id="path-1" points="0.225115294 0.376865103 203.696825 0.376865103 203.696825 392.971719 0.225115294 392.971719"></polygon>
        <polygon id="path-3" points="0 0.409397661 184.457912 0.409397661 184.457912 305.666523 0 305.666523"></polygon>
        <polygon id="path-5" points="0.146640541 0.147846316 110.893595 0.147846316 110.893595 164.502981 0.146640541 164.502981"></polygon>
        <polygon id="path-7" points="0.455667914 0.0263837981 96.2565006 0.0263837981 96.2565006 139.489598 0.455667914 139.489598"></polygon>
    </defs>
    <g id="Page-1" stroke="none" stroke-width="1" fill="none" fill-rule="evenodd">
        <g id="Icon-Copy">
            <g id="Oval-3-Copy-3" transform="translate(49.000000, 42.000000)" fill="#162331">
                <g id="path-4-link" transform="translate(14.564516, 14.564516)">
                    <circle id="path-4" cx="436.935484" cy="436.935484" r="436.935484"></circle>
                </g>
            </g>
            <g id="Page-1" transform="translate(321.000000, 163.000000)">
                <g id="Group-3" transform="translate(131.086957, 0.000000)">
                    <g id="Fill-1-Clipped">
                        <mask id="mask-2" fill="white">
                            <use xlink:href="#path-1"></use>
                        </mask>
                        <g id="path-5"></g>
                        <path d="M66.7441377,392.957127 C54.539239,392.957127 42.3337541,392.981906 30.1294413,392.9214 C28.8602584,392.914485 27.5940053,392.402202 26.3259943,392.125028 C26.9213266,391.003652 27.3133318,389.704217 28.1418751,388.787409 C60.7638604,352.685 93.4040101,316.598725 126.13264,280.589669 C128.203998,278.310614 128.553228,276.732851 126.904345,273.955344 C84.952752,203.33117 43.1236242,132.636693 1.19664143,61.9986888 C-0.127035482,59.7686156 -0.0813308344,58.2115981 1.23121289,56.0218618 C11.7884005,38.4060115 22.2049585,20.7089103 32.6707369,3.03946891 C34.7866277,-0.534410851 35.422977,-0.521157184 37.5927759,3.14319325 C92.6633605,96.1384028 147.722226,189.139951 202.853165,282.10001 C204.195592,284.364082 203.903785,285.689449 202.208026,287.556486 C170.915577,321.99412 139.708092,356.504937 108.393963,390.922978 C107.391976,392.024184 105.455974,392.850522 103.943619,392.869538 C91.5453544,393.024548 79.1441603,392.957127 66.7441377,392.957127" id="Fill-1" fill="#FFFFFF" fill-rule="nonzero" mask="url(#mask-2)"></path>
                    </g>
                </g>
                <g id="Group-6" transform="translate(0.000000, 77.629630)">
                    <g id="Fill-4-Clipped">
                        <mask id="mask-4" fill="white">
                            <use xlink:href="#path-3"></use>
                        </mask>
                        <g id="path-7"></g>
                        <path d="M114.628579,305.624862 C109.635524,305.6243 104.637768,305.733306 99.651763,305.549569 C98.3714775,305.502371 96.7639227,304.844401 95.9207792,303.942572 C64.2755712,270.089988 32.716147,236.16436 1.08210288,202.302786 C-0.54307851,200.563745 -0.118862687,199.325346 0.922875057,197.61777 C29.822431,150.23438 58.6802706,102.827952 87.5480984,55.4271436 C98.1887476,37.9552593 108.836447,20.4873083 119.480034,3.01654792 C121.605813,-0.472771936 122.277978,-0.467714951 124.439599,3.08060306 C134.936296,20.3075044 145.39539,37.5563194 155.969058,54.7399555 C157.224666,56.7801679 157.23583,58.3023205 155.979634,60.358266 C129.662976,103.438724 103.445028,146.574246 77.1031058,189.640095 C75.5660578,192.153978 75.5666452,193.66377 77.6847866,195.906262 C92.8425705,211.956009 107.859341,228.128248 122.833807,244.335324 C124.483665,246.121564 126.159376,246.802009 128.636515,246.787962 C146.160976,246.690756 163.686613,246.723345 181.211662,246.76942 C182.294528,246.772229 183.37622,247.243652 184.457912,247.496502 C183.947325,248.518575 183.650021,249.721576 182.895011,250.536312 C166.400536,268.332405 149.879621,286.106023 133.257647,303.792548 C132.309331,304.801697 130.476154,305.477086 129.016664,305.542827 C124.230429,305.760277 119.425978,305.624862 114.628579,305.624862" id="Fill-4" fill="#FFFFFF" fill-rule="nonzero" mask="url(#mask-4)"></path>
                    </g>
                </g>
            </g>
            <g id="Page-1" transform="translate(311.000000, 585.000000)">
                <g id="Group-3" transform="translate(256.631579, 0.000000)">
                    <g id="Fill-1-Clipped">
                        <mask id="mask-6" fill="white">
                            <use xlink:href="#path-5"></use>
                        </mask>
                        <g id="path-9"></g>
                        <path d="M64.015518,84.8661318 C60.8721661,88.1950645 60.6312994,90.7851996 63.1521972,94.6704029 C76.9826008,115.991215 90.5799083,137.468478 104.184985,158.937049 C105.048306,160.284267 105.308166,162.013922 105.842562,163.569741 C104.35765,163.856568 102.873601,164.36938 101.388688,164.395456 C95.6303365,164.491065 89.8711215,164.256388 84.1222661,164.491065 C80.0119947,164.656207 77.4487943,162.926553 75.3509241,159.502012 C65.0851729,142.761741 54.6907868,126.091004 44.3309338,109.411575 C41.54327,104.935335 41.0598102,105.265621 36.8295368,108.516327 C29.1718787,114.399759 26.123492,121.606072 27.0213459,131.401651 C27.8596307,140.449741 27.1085413,149.636899 27.2466727,158.763215 C27.3062419,162.76141 25.8998918,164.647516 21.703288,164.482373 C16.3860934,164.273771 11.0499057,164.26508 5.74134425,164.491065 C1.5965397,164.664899 0.138390371,162.943937 0.154793472,158.858824 C0.258392003,137.27726 0.207456059,115.695696 0.207456059,94.1141318 C0.207456059,72.0979816 0.276521746,50.080962 0.147023582,28.0656809 C0.120260628,23.6328989 1.49380449,20.3474253 4.93759235,17.5486884 C10.8608383,12.7247787 16.5328579,7.58796661 22.3421456,2.60760571 C23.370361,1.72104932 24.5185781,0.964868874 25.6149958,0.147846316 C26.0639228,0.34775609 26.5206197,0.556357596 26.9790431,0.764959098 L26.9790431,87.4041172 C29.2754773,85.3876359 30.5704589,84.3880869 31.7100428,83.2407788 C45.8331125,68.9854735 60.1124436,54.8709743 73.952344,40.3470945 C78.6047811,35.4527817 83.4221127,32.8895907 90.2173131,33.5153952 C95.3540735,33.9847486 100.568533,33.584929 105.74846,33.619696 C107.112507,33.6283877 108.485188,33.8196057 110.893854,34.0012629 C109.175845,36.0186132 108.157126,37.3136809 107.052074,38.5131396 C92.7295774,53.9922404 78.4761462,69.5252298 64.015518,84.8661318" id="Fill-1" fill="#FFFFFF" fill-rule="nonzero" mask="url(#mask-6)"></path>
                    </g>
                </g>
                <g id="Group-6" transform="translate(145.263158, 29.142857)">
                    <g id="Fill-4-Clipped">
                        <mask id="mask-8" fill="white">
                            <use xlink:href="#path-7"></use>
                        </mask>
                        <g id="path-11"></g>
                        <path d="M96.1286167,102.147433 C95.1092262,117.029285 88.0329566,127.362177 75.1291707,133.376222 C64.8418208,138.174842 53.891867,139.329851 43.2392355,139.489776 C29.6040369,139.463121 16.879494,137.161987 4.8846648,131.244785 C-0.297237304,128.69488 -0.611549402,127.522101 2.28521883,122.520022 C4.04366759,119.490343 5.9040554,116.513973 7.53508031,113.404332 C9.3360037,109.982839 11.5871579,109.512839 14.9171671,111.156506 C27.6000849,117.411326 40.9286168,118.886185 54.6733997,116.398472 C57.1454218,115.954238 59.6259389,115.065769 61.8685982,113.875221 C71.0091338,109.050835 72.6061792,97.1275843 64.2208421,91.0415732 C57.2218763,85.959532 49.1007312,82.5469233 41.4043324,78.5488138 C33.444591,74.4094376 25.0176288,71.1123299 17.4656436,66.2799483 C4.14560665,57.7684174 -0.942851338,42.673333 3.16869068,27.0096285 C5.62372298,17.6718216 11.5022087,11.3983436 19.4959298,7.07238915 C31.3293555,0.675413963 44.1736768,-0.879406396 57.0859574,0.479950833 C67.1269546,1.53722868 77.0405284,4.29059341 86.9031322,6.75254037 C91.2865114,7.84446854 91.5838336,9.45348546 89.4176288,13.478249 C87.4034829,17.2089294 85.1701679,20.8258858 83.3097802,24.6374168 C81.5343415,28.2623694 79.2067332,28.8576435 75.6388662,27.5604791 C64.7228919,23.6147893 53.60219,20.9413868 41.9216731,23.0195152 C40.8096879,23.2158668 39.7053481,23.4912921 38.6179982,23.7933715 C33.6391247,25.1971522 29.7068255,27.8892125 29.0102419,33.6909137 C28.3297987,39.2971516 30.8196602,43.7483802 35.3219686,46.2805162 C42.2793093,50.1808943 49.5594572,53.4415745 56.7376657,56.9154876 C64.162227,60.5137858 71.8756159,63.587888 79.0198449,67.7103831 C91.8556714,75.1024431 97.1726429,86.9279627 96.1286167,102.147433" id="Fill-4" fill="#FFFFFF" fill-rule="nonzero" mask="url(#mask-8)"></path>
                    </g>
                </g>
                <path d="M91.5972172,165.134092 C62.8754472,165.073028 34.1626555,165.064305 5.44088547,165.142815 C1.66997475,165.151539 0,163.799411 0,160.039622 C0.0538701531,115.567694 -0.00897835888,71.0957661 0.16161046,26.6325611 C0.170588819,24.2685179 1.28390532,21.2327723 2.99877186,19.6800058 C10.1096321,13.2421316 17.6334968,7.24915112 25.0316645,1.12531948 C25.4536474,0.77638321 26.0911109,0.671702329 27.7431289,0 L27.7431289,5.79234215 C27.7431289,48.9548869 27.7431289,92.110453 27.7521072,135.27387 C27.7521072,141.274702 28.2189819,141.745766 34.3422227,141.755362 C53.0441441,141.764085 71.7370872,141.745766 90.4300307,141.764085 C96.149245,141.764085 96.7867087,142.41834 96.7956869,148.088555 C96.8046651,152.014088 96.6789684,155.939621 96.8316003,159.856431 C96.9842327,163.528985 95.4848467,165.142815 91.5972172,165.134092" id="Fill-7" fill="#FFFFFF" fill-rule="nonzero"></path>
                <path d="M135.578947,158.731453 C135.578947,164.803878 135.271699,165.08307 128.670522,165.091795 C123.251784,165.10052 117.823735,164.968776 112.404997,165.135419 C108.224561,165.26629 106.604526,163.678386 106.613837,159.726075 C106.716253,128.508925 106.911774,97.2743259 106.530042,66.0571759 C106.446247,58.7798635 107.731102,54.8022506 114.937466,49.4539797 C120.258443,45.5042862 125.40252,41.2788906 130.616426,37.1695341 C132.022318,36.0658535 133.582766,35.1471375 135.022176,34.0722484 C135.248423,33.9038608 135.578947,34.0478192 135.578947,34.3182863 L135.578947,158.731453 Z" id="Fill-9" fill="#FFFFFF" fill-rule="nonzero"></path>
            </g>
        </g>
    </g>
</svg>
