<?xml version="1.0" encoding="UTF-8"?>
<svg width="1000px" height="1000px" viewBox="0 0 1000 1000" version="1.1" xmlns="http://www.w3.org/2000/svg" xmlns:xlink="http://www.w3.org/1999/xlink">
    <!-- Generator: Sketch 48.2 (47327) - http://www.bohemiancoding.com/sketch -->
    <title>Qtum</title>
    <desc>Created with Sketch.</desc>
    <defs>
        <polygon id="path-1" points="0 0 453 0 453 391 0 391"></polygon>
        <polygon id="path-3" points="0.326174008 0.0998496003 87.107432 0.0998496003 87.107432 87.5648465 0.326174008 87.5648465"></polygon>
        <polygon id="path-5" points="0 0.199668372 92.0699657 0.199668372 92.0699657 87.4959226 0 87.4959226"></polygon>
        <polygon id="path-7" points="0.520411492 0.5724257 66.38932 0.5724257 66.38932 87.8333333 0.520411492 87.8333333"></polygon>
    </defs>
    <g id="Page-1" stroke="none" stroke-width="1" fill="none" fill-rule="evenodd">
        <g id="Qtum">
            <g id="Oval-3-Copy" transform="translate(22.000000, 29.000000)" fill="#162331">
                <g id="path-2-link" transform="translate(15.435484, 15.435484)">
                    <circle id="path-2" cx="463.064516" cy="463.064516" r="463.064516"></circle>
                </g>
            </g>
            <g id="Page-1" transform="translate(274.000000, 237.000000)">
                <g id="Fill-1-Clipped">
                    <mask id="mask-2" fill="white">
                        <use xlink:href="#path-1"></use>
                    </mask>
                    <g id="path-40"></g>
                    <path d="M301.049697,294.847804 L266.220887,374.877729 L215.372106,305.588473 L301.049697,294.847804 Z M195.501671,305.588473 L144.65742,374.866461 L109.831101,294.836536 L195.501671,305.588473 Z M45.0164596,200.750893 L39.827166,284.307706 L12.9103809,200.750893 L45.0119297,200.750893 L45.0164596,200.750893 Z M12.9103809,190.249107 L39.8226361,106.692294 L45.0119297,190.249107 L12.9103809,190.249107 Z M109.828836,96.1612106 L144.65742,16.1335389 L195.501671,85.4115273 L109.828836,96.1612106 Z M356.711559,314.515217 L280.381763,369.712473 L312.65998,295.447262 L356.711559,314.515217 Z M205.623636,310.629781 L256.622132,380.122087 L154.281317,380.122087 L205.623636,310.629781 Z M93.2220098,285.774801 L49.4807334,304.853798 L54.9504314,215.259585 L54.9619829,214.995913 L93.2220098,285.774801 Z M54.1669752,76.4827553 L130.496771,21.2852738 L98.2160625,95.5527379 L54.1669752,76.4827553 Z M355.914059,214.99366 L355.914059,215.21902 L361.386475,304.835769 L335.538534,293.482121 L317.645199,285.759026 L355.914059,214.99366 Z M135.719813,200.750893 L100.746044,276.194738 L59.8812911,200.750893 L135.719813,200.750893 Z M59.8812911,190.249107 L100.736984,114.821037 L123.146914,163.586738 L135.696937,190.249107 L59.8812911,190.249107 Z M195.356486,294.656248 L109.138018,283.890789 L135.93725,225.88532 L144.734203,207.133095 L195.356486,294.656248 Z M185.843574,112.860403 L144.756853,183.855637 L109.151608,107.115971 L195.370076,96.3505127 L185.843574,112.860403 Z M257.528124,200.750893 L205.621598,290.685401 L179.490534,245.721527 L153.357205,200.750893 L257.528124,200.750893 Z M153.357205,190.249107 L205.612538,100.330375 L231.378714,145.267205 L257.528124,190.249107 L153.357205,190.249107 Z M226.155898,276.649965 L266.497214,207.137602 L302.102686,283.881775 L215.553304,294.64498 L226.155898,276.649965 Z M215.526351,96.3505127 L302.102686,107.115971 L266.492911,183.869159 L215.526351,96.3505127 Z M275.534708,190.249107 L310.512553,114.805262 L351.373003,190.249107 L275.534708,190.249107 Z M351.373003,200.750893 L310.49919,276.219527 L288.105342,228.542317 L275.505263,200.750893 L351.382063,200.750893 L351.373003,200.750893 Z M256.622132,10.8781383 L205.621598,80.3679654 L154.281317,10.8781383 L256.622132,10.8781383 Z M54.9914274,175.947747 L54.9529229,175.021516 L49.4829984,86.1574699 L75.3286751,97.511118 L93.2220098,105.234213 L54.9914274,175.947747 Z M317.654259,105.225199 L361.39327,86.1462019 L355.925384,174.978697 L355.884841,175.947747 L317.654259,105.225199 Z M312.65998,95.5527379 L280.379271,21.2852738 L356.709067,76.4827553 L312.65998,95.5527379 Z M215.374598,85.4115273 L266.218849,16.1222709 L301.047206,96.152196 L215.374598,85.4115273 Z M98.2160625,295.447262 L130.496771,369.712473 L54.1669752,314.515217 L98.2160625,295.447262 Z M397.967927,200.750893 L371.051141,284.307706 L365.864339,200.750893 L397.967927,200.750893 Z M365.864339,190.249107 L371.05318,106.692294 L397.967927,190.249107 L365.864339,190.249107 Z M451.863331,381.868629 L451.709312,381.643269 L373.651111,311.447839 L410.767323,197.309643 L410.876269,196.973856 L410.876269,194.019383 L372.890304,76.5030374 C372.836398,76.178068 372.721337,75.865944 372.550557,75.5835679 L372.550557,75.2905994 L371.522257,74.267464 C371.238229,73.6907673 370.741745,73.24523 370.13609,73.0234754 L270.144058,0.428184438 L269.552671,0 L143.166838,0 C142.428681,0 142.260846,0.11718732 140.67536,1.23046686 C139.919084,1.76457061 138.815813,2.55107781 137.414017,3.54942363 C134.766256,5.43794234 130.883856,8.216634 125.880744,11.8043689 C117.452756,17.8485303 105.72243,26.2747493 91.0000654,36.8486513 C65.9539266,54.8549339 40.6133403,73.0933373 40.3596626,73.2758787 L40.2144775,73.3795447 L38.2962667,75.288346 L38.2962667,76.6224786 L0.108718997,193.679089 L0,194.01713 L0,196.985124 L38.3257114,314.377521 L38.3257114,314.402537 C38.3019291,315.202791 38.6070218,315.978481 39.1705486,316.549994 L40.2441487,317.618202 L139.975708,389.402196 C140.373665,390.104419 141.099591,390.560547 141.907735,390.616887 C142.363449,390.866812 142.875335,390.998648 143.395827,391 L268.78507,391 L269.238066,390.549279 C269.513034,390.488432 269.776225,390.383415 270.016992,390.238283 L270.105553,390.238283 L367.116646,320.286467 L443.899438,389.632063 C444.404075,390.114334 445.011995,390.476713 445.677447,390.691257 C447.006083,391.095553 448.425998,391.095553 449.754409,390.691257 C450.640695,390.380935 451.38089,389.756913 451.833886,388.937954 C452.619834,387.988286 453.033646,386.787341 452.997859,385.557551 C453.00035,384.242348 452.605111,382.957119 451.863331,381.868629 Z" id="Fill-1" fill="#FFFFFF" fill-rule="nonzero" mask="url(#mask-2)"></path>
                </g>
            </g>
            <g id="Page-1" transform="translate(176.000000, 686.000000)">
                <g id="Group-3" transform="translate(561.436508, 5.166667)">
                    <g id="Fill-1-Clipped">
                        <mask id="mask-4" fill="white">
                            <use xlink:href="#path-3"></use>
                        </mask>
                        <g id="path-42"></g>
                        <path d="M78.059296,27.3799373 C78.0684171,30.5638957 78.0228109,33.747854 78.0775381,36.9409616 C78.1140232,39.4478714 77.4116909,40.3993991 74.9216041,38.8897637 C68.9654622,35.275788 62.9637147,31.7533054 56.9802092,28.2033748 C55.1742122,27.1237568 54.3168198,26.0990345 56.8160277,24.7540866 C62.8086542,21.5243818 68.7739171,18.2397811 74.7300589,14.9551804 C76.992116,13.7108748 78.1140232,14.195788 78.0775381,16.9131318 C78.0319324,20.3990172 78.059296,23.8940519 78.059296,27.3799373 M87.0619176,45.7151457 L87.0619176,26.053288 C87.0619176,20.1062394 87.1987355,14.1591908 86.9980688,8.2212915 C86.7609181,1.16717691 82.8752881,-1.1567467 76.7914493,1.9814651 C67.0582201,6.99528454 57.3268149,12.009104 47.6948308,17.1967603 C44.8490173,18.7338436 42.5595968,18.8436353 39.6772986,17.160163 C30.6199499,11.8718644 21.3984196,6.85804496 12.2224953,1.77103107 C5.29859459,-2.05337865 0.346696701,0.856100521 0.337575504,8.76110049 C0.31933311,30.7194339 0.328454307,52.6686177 0.328454307,74.6178019 C0.328454307,77.6645206 0.392302687,80.7112394 0.337575504,83.7579581 C0.301090716,86.1916736 1.32266479,87.2621423 3.82187279,87.5000239 C8.02674464,87.8934444 8.96622798,85.8714477 8.94707346,82.101934 C8.8385312,60.1527498 8.87501597,38.2035658 8.90237956,16.2543818 C8.91058864,11.4326978 9.64119653,10.8837394 13.2431573,13.0338262 C33.3654302,25.0102672 53.4129091,37.1147985 73.5899091,48.990597 C77.0915371,51.0491908 78.2599622,53.546951 78.1322653,57.5086006 C77.8586294,65.7246769 78.1413868,73.968201 78.0036566,82.1934269 C77.9498417,85.6335656 78.6339315,87.6098156 82.7293486,87.5640694 C86.7153119,87.5091736 87.0984022,85.4048331 87.0801596,82.2940694 C87.0163114,70.1071944 87.052796,57.9111697 87.0619176,45.7151457" id="Fill-1" fill="#FFFFFF" fill-rule="nonzero" mask="url(#mask-4)"></path>
                    </g>
                </g>
                <g id="Group-6">
                    <g id="Fill-4-Clipped">
                        <mask id="mask-6" fill="white">
                            <use xlink:href="#path-5"></use>
                        </mask>
                        <g id="path-44"></g>
                        <path d="M21.5803538,72.3268853 C12.7592517,65.0806353 9.26259862,55.1291187 9.18312924,48.3044687 C9.26259862,24.4489353 22.851864,9.35038533 40.361619,8.234902 C69.1825172,6.39918533 83.2927481,35.5159353 74.6835648,57.8870853 C66.312789,79.617052 39.6199048,87.153152 21.5803538,72.3268853 M87.4339862,79.643402 C81.0057957,79.7927187 74.5599457,79.6873187 68.1229252,79.6873187 C68.0434557,79.353552 67.9639862,79.0197853 67.8845172,78.676357 C68.5379319,78.115102 69.1383671,77.4914853 69.8359319,77.008402 C92.4405576,61.4531187 91.5222448,22.3760687 66.6130067,7.17211867 C52.034789,-1.725398 36.600068,-2.07673133 21.6245034,5.942452 C6.41936052,14.0758187 0.0176598645,27.9359187 5.89757416e-10,44.571552 C-0.0353197273,69.4020353 18.3574286,87.3463853 43.3814558,87.4596903 C58.0921224,87.5308353 72.802789,87.4596903 87.5134557,87.495702 C90.1359457,87.5044853 92.0961905,87.2673353 92.0697005,83.806702 C92.034381,80.4514687 90.5068029,79.5819187 87.4339862,79.643402" id="Fill-4" fill="#FFFFFF" fill-rule="nonzero" mask="url(#mask-6)"></path>
                    </g>
                </g>
                <g id="Group-9" transform="translate(381.158730, 5.166667)">
                    <g id="Fill-7-Clipped">
                        <mask id="mask-8" fill="white">
                            <use xlink:href="#path-7"></use>
                        </mask>
                        <g id="path-46"></g>
                        <path d="M58.228417,4.86333167 C58.4393879,0.425113333 60.1867771,-0.303025 66.38932,1.46066833 C65.6380804,6.105295 66.0471806,10.7806633 66.0783677,15.4367083 C66.1755977,30.3279717 65.6490876,45.224505 66.3553815,60.1113767 C65.5335126,65.5069783 64.2098992,70.7295483 60.9251748,75.3276233 C52.1322761,87.6357083 39.1795825,89.1244833 25.4536346,87.0621567 C12.5862465,85.1298233 5.2628058,76.91565 2.13034708,65.1011883 C1.152543,61.4121883 0.567328171,57.6344767 0.559990052,53.8163617 C0.528803057,37.72793 0.565493639,21.63862 0.520547674,5.54931 C0.513209556,2.79222167 0.789306208,0.709693333 4.56476739,0.625373333 C8.32463508,0.541053333 9.68402126,1.84274333 9.65008247,5.47377333 C9.50790645,20.5380683 9.60055017,35.60412 9.58495666,50.6692933 C9.58128759,54.3319433 9.78492036,57.9559467 10.5526709,61.56941 C13.0898248,73.498055 21.5910333,80.3587167 33.9539259,80.3218267 C46.0599844,80.285815 54.45479,73.47434 56.9414948,61.6581217 C57.3625192,59.659035 57.7468528,57.6520433 58.1476974,55.648565 C58.9383797,54.9564383 58.6943872,54.035945 58.6953045,53.1945017 C58.7081465,37.91765 58.7081465,22.6407983 58.6971392,7.36394667 C58.6962219,6.51284167 58.9026065,5.60728 58.228417,4.86333167" id="Fill-7" fill="#FFFFFF" fill-rule="nonzero" mask="url(#mask-8)"></path>
                    </g>
                </g>
                <path d="M233.740946,53.4524186 C233.73734,64.9283101 233.680535,76.4042017 233.774307,87.879187 C233.800455,91.0532925 233.254953,92.9679042 229.396759,92.9996182 C225.418645,93.030426 224.652235,91.1964577 224.66576,87.7314906 C224.752319,64.9319345 224.713548,42.131472 224.70363,19.3310096 C224.700023,13.274566 224.680187,13.2591621 218.743672,13.2365093 C212.432969,13.2138565 206.121365,13.1594899 199.811563,13.250101 C196.973145,13.2908759 195.75771,12.1926698 195.73066,9.26140185 C195.702709,6.35278665 196.841502,5.16487559 199.705168,5.17031227 C219.23778,5.20927503 238.771295,5.20565056 258.303908,5.1666878 C261.245116,5.16125115 262.689572,6.2032784 262.690473,9.40819181 C262.693178,12.8831262 260.764532,13.2863454 258.033411,13.2546315 C251.573033,13.1794243 245.106343,13.3860176 238.652276,13.1757999 C234.959988,13.0552872 233.626436,14.3618988 233.680535,18.1204458 C233.852752,29.8953537 233.743651,41.6747922 233.740946,53.4524186" id="Fill-10" fill="#FFFFFF" fill-rule="nonzero"></path>
                <path d="M449.799512,67.1666667 C447.994754,65.6068247 448.120947,63.9049257 448.120947,62.2141687 C448.118944,44.8460724 448.118944,27.4779761 448.124953,10.1108083 C448.124953,8.4200511 448.006773,6.71722374 449.873625,5.16666667 C450.96329,25.8336428 450.997342,46.500619 449.799512,67.1666667" id="Fill-12" fill="#FFFFFF" fill-rule="nonzero"></path>
                <path d="M443.176952,5.16666667 C443.949377,6.23153206 445.391075,7.29543295 445.40067,8.36029834 C445.563791,25.8148314 445.554196,43.2684 445.530208,60.7229333 C445.530208,61.1483008 444.925702,61.5736678 444.604258,62 C444.057324,61.6460094 443.515188,61.2920189 442.968254,60.9380283 C443.035421,42.3472529 443.107386,23.7564775 443.176952,5.16666667" id="Fill-14" fill="#FFFFFF" fill-rule="nonzero"></path>
            </g>
        </g>
    </g>
</svg>