<?xml version="1.0" encoding="UTF-8"?>
<svg width="1000px" height="1000px" viewBox="0 0 1000 1000" version="1.1" xmlns="http://www.w3.org/2000/svg" xmlns:xlink="http://www.w3.org/1999/xlink">
    <!-- Generator: Sketch 48.2 (47327) - http://www.bohemiancoding.com/sketch -->
    <title>Ripple</title>
    <desc>Created with Sketch.</desc>
    <defs></defs>
    <g id="Page-1" stroke="none" stroke-width="1" fill="none" fill-rule="evenodd">
        <g id="Ripple">
            <g id="Oval-3-Copy-8" transform="translate(41.000000, 41.000000)" fill="#162331">
                <g id="path-21-link" transform="translate(15.145161, 15.145161)">
                    <circle id="path-21" cx="454.354839" cy="454.354839" r="454.354839"></circle>
                </g>
            </g>
            <g id="Bitmap" transform="translate(218.000000, 248.000000)" fill="#FFFFFF" fill-rule="nonzero">
                <g id="Clip-2">
                    <path d="M386.16,0 C367.605838,0.0165900232 346.94054,4.18845586 330.52973,14.1244098 L330.52173,14.1244098 C295.005406,34.3894381 273.975784,70.9847193 273.975784,109.574793 C273.975784,129.839821 282.353946,150.26256 292.843243,168.482605 C301.221622,184.757628 305.329514,213.162688 276.086486,227.390208 C255.219027,239.517725 227.918919,231.432714 215.432432,211.115185 C202.943352,194.840162 188.294486,178.565139 169.427027,166.435313 C133.910919,146.170074 92.0134056,146.170074 56.4947025,166.435313 C20.9757838,186.700131 0,223.386972 0,261.987756 C0,300.58833 20.8674594,337.170591 56.4864864,357.490639 C92.0028106,377.755878 133.899892,377.755878 169.418811,357.490639 C188.286703,347.305625 202.932324,331.135813 213.316108,312.810557 C221.694703,298.582827 244.724324,280.260512 273.970378,296.535534 C294.837838,308.663051 301.108108,335.178319 290.727135,355.443347 C280.240432,373.765663 273.970378,394.086131 273.970378,414.350949 C273.970378,452.993733 294.837838,489.533784 330.516108,509.801542 C366.032432,530.066153 407.929514,530.066153 443.448648,509.801542 C478.967568,489.536514 500,452.941023 500,414.350949 C500,375.760875 479.07827,339.168324 443.454054,318.848065 C424.586594,308.663051 403.664865,304.620546 380.689081,304.620546 C361.821622,304.620546 336.791784,292.493029 336.791784,261.987756 C336.791784,237.575222 355.65946,219.355176 380.689081,219.355176 C401.556757,219.355176 424.586594,215.312671 443.454054,205.127657 C478.970378,184.862839 500,148.267347 500,109.680003 C500,71.0924493 479.07827,34.4971682 443.454054,14.2296199 C426.697297,4.04439565 405.827027,0.00189000264 386.967568,0.00189000264 C386.774054,0.000840001174 386.578811,0.000210000293 386.384865,0 L386.16,0 Z" id="path-38"></path>
                </g>
            </g>
        </g>
    </g>
</svg>
