<?xml version="1.0" encoding="UTF-8"?>
<svg width="1440px" height="836px" viewBox="0 0 1440 836" version="1.1" xmlns="http://www.w3.org/2000/svg" xmlns:xlink="http://www.w3.org/1999/xlink">
    <!-- Generator: Sketch 48.2 (47327) - http://www.bohemiancoding.com/sketch -->
    <title>Login</title>
    <desc>Created with Sketch.</desc>
    <defs>
        <rect id="path-1" x="0" y="0" width="1440" height="836"></rect>
        <filter x="-0.5%" y="-0.9%" width="101.0%" height="101.8%" filterUnits="objectBoundingBox" id="filter-3">
            <feOffset dx="0" dy="0" in="SourceAlpha" result="shadowOffsetOuter1"></feOffset>
            <feGaussianBlur stdDeviation="2.5" in="shadowOffsetOuter1" result="shadowBlurOuter1"></feGaussianBlur>
            <feColorMatrix values="0 0 0 0 0   0 0 0 0 0   0 0 0 0 0  0 0 0 0.2 0" type="matrix" in="shadowBlurOuter1"></feColorMatrix>
        </filter>
        <rect id="path-4" x="575" y="428" width="290" height="45" rx="5"></rect>
        <rect id="path-5" x="575" y="488" width="290" height="45" rx="5"></rect>
    </defs>
    <g id="Login" stroke="none" stroke-width="1" fill="none" fill-rule="evenodd">
        <g>
            <mask id="mask-2" fill="white">
                <use xlink:href="#path-1"></use>
            </mask>
            <g id="BG">
                <use fill="black" fill-opacity="1" filter="url(#filter-3)" xlink:href="#path-1"></use>
                <use fill="#162331" fill-rule="evenodd" xlink:href="#path-1"></use>
            </g>
            <g id="Page-1" mask="url(#mask-2)" fill="#2A3440">
                <g transform="translate(-20.000000, -168.000000)">
                    <path d="M0,1142.07811 C44.389351,1079.49367 98.0912061,1022.47736 122.899415,948.035502 C139.19592,899.130744 151.624154,848.952038 168.466591,800.24694 C197.931806,715.04431 231.654381,631.506009 284.062288,556.898764 C292.82886,544.41853 304.512094,533.936384 315.32968,522 C315.32968,547.964728 314.399183,571.311527 315.530257,594.558496 C317.661199,638.285506 329.531437,680.123196 347.254602,719.821248 C366.132971,762.110408 362.367251,803.393819 346.871546,844.65935 C322.259389,910.202929 284.213098,968.171352 237.677723,1020.20809 C206.616941,1054.93997 165.471508,1077.35552 123.066814,1096.03415 C82.702576,1113.81133 41.0730439,1128.7903 0,1145 L0,1142.07811 Z" id="Fill-1"></path>
                    <path d="M972.632315,438.477421 C977.603293,441.284383 979.602868,442.841497 981.879029,443.63564 C1030.15751,460.480381 1078.44204,477.308793 1126.84144,493.812126 C1129.33675,494.662676 1132.86586,492.587513 1135.91283,491.875011 C1134.7551,488.965626 1134.39993,485.236865 1132.31874,483.271546 C1101.4092,454.063407 1070.34399,425.009644 1039.02789,396.221585 C1036.80916,394.183531 1030.9117,392.676886 1029.14035,394.012828 C1010.9628,407.715136 993.287037,422.057213 972.632315,438.477421 M1480,619.42924 C1445.00063,616.371418 1412.5797,613.68766 1380.19504,610.626869 C1369.4052,609.605615 1359.93026,611.109292 1355.84798,622.148624 C1351.60701,633.611003 1359.21537,639.98493 1367.97542,645.695338 C1400.82861,667.107515 1433.55181,688.709692 1467.34509,710.913044 C1438.46234,753.784897 1410.0723,796.150577 1381.21372,838.206022 C1379.46655,840.750249 1373.73534,842.381582 1370.29087,841.829393 C1272.79835,826.209266 1176.61318,831.699986 1081.44367,857.596474 C1076.49839,858.942806 1068.58473,856.765221 1064.56895,853.363023 C996.190427,795.444013 928.366584,736.894141 860.063629,678.887552 C833.922544,656.688654 823.856655,626.926842 815.098122,595.689556 C794.467583,522.120731 820.86107,461.627806 867.749072,406.511305 C896.860047,372.294869 926.090423,338.170464 955.706205,304.375593 C971.201025,286.696631 998.78398,281.908022 1022.41313,292.788525 C1059.91234,310.053345 1097.03069,328.11973 1134.40597,345.648769 C1157.90363,356.671773 1171.70871,375.024643 1177.89182,399.448626 C1180.03347,407.906621 1182.51216,416.287429 1184.42256,424.794409 C1190.51499,451.93926 1207.3081,469.644941 1232.55293,481.692166 C1303.50385,515.553835 1374.06936,550.196288 1444.71347,584.679912 C1459.4405,591.868763 1472.17702,601.346527 1480,619.42924" id="Fill-3"></path>
                    <path d="M360.199205,462.396097 C340.297408,478.206585 319.374582,492.869192 300.680275,510.038489 C237.547895,568.016391 192.888773,639.5992 161.297019,718.942048 C133.906673,787.729286 111.138776,858.41794 86.3062651,928.258293 C84.4010458,933.620164 82.3228982,938.919368 77.2478271,944 C75.6704198,935.870071 73.4794929,927.808923 72.6088362,919.599514 C57.1836276,774.289454 79.2237215,637.09251 157.772288,511.96436 C163.169157,503.36672 166.450284,492.90129 168.635196,482.837847 C171.463702,469.810702 164.62777,462.808784 152.261137,466.059838 C130.493217,471.783956 109.107244,478.990689 87.476163,485.275756 C83.6973027,486.374725 79.504918,485.997193 75.5035064,486.302887 C77.0718913,482.584121 77.6628552,477.755686 80.351515,475.30555 C170.576505,393.101407 264.842003,316.661123 376.460485,265.75392 C463.850954,225.897551 555.269901,201.555147 651.084236,214.489055 C709.988142,222.440153 767.597342,241.226571 825.311802,256.95605 C851.267595,264.031335 876.062513,275.508612 901.370201,285.027919 C919.025433,291.66759 921.965215,303.973298 908.954989,317.923638 C884.966067,343.644722 860.273403,368.713149 836.943113,395.033392 C827.529796,405.656255 819.185627,405.825915 807.331765,400.584793 C760.186986,379.733413 710.571587,368.343259 659.635918,362.243138 C614.851987,356.879739 576.681438,371.41854 542.667184,400.404434 C464.461466,467.047229 421.636888,553.304873 405.725976,654.484964 C402.16666,677.126181 400.190766,700.022653 397.002869,722.732652 C396.478069,726.471288 393.454079,729.846149 391.584949,733.389141 C388.763961,730.355129 384.920441,727.802585 383.276869,724.210682 C357.934596,668.832706 352.375325,610.171578 356.657934,550.147055 C358.324061,526.782872 361.674359,503.544022 364.175054,480.237921 C364.684816,475.484381 364.821655,470.689572 365.129919,465.914634 C363.486348,464.740769 361.842777,463.568433 360.199205,462.396097" id="Fill-5"></path>
                    <path d="M578.763467,490.064404 C541.344121,519.404557 503.924776,548.74471 466.506948,578.086369 C465.00362,577.020276 463.50181,575.954183 462,574.888089 C467.37466,560.726214 472.732633,546.559821 478.125497,532.405475 C500.158115,474.581958 535.896646,428.098482 593.469071,401.810548 C638.60681,381.200916 686.40685,385.888414 733.710837,393.316435 C750.273224,395.916919 766.40479,401.114877 782.874641,404.436631 C811.745805,410.259488 818.024585,429.402489 806.228548,457.072731 C800.852371,469.685157 793.056611,481.260099 786.982623,493.607508 C769.18238,529.789932 772.075261,567.324549 781.876469,604.559515 C797.976177,665.718337 830.398591,719.208215 863.834347,772.195161 C892.19277,817.1322 922.297238,861.248587 947.011876,908.128084 C985.330791,980.813664 987.148133,1055.08182 943.525856,1127.32621 C936.28076,1139.32427 926.502307,1149.81355 917.894962,1161 C916.62525,1160.63711 915.355538,1160.27572 914.087343,1159.91433 C913.442626,1148.0307 913.465381,1136.06878 912.02425,1124.28152 C907.922336,1090.73421 906.431145,1056.44154 898.04983,1023.93021 C883.154604,966.142835 842.356944,931.615264 786.676193,910.928837 C729.968447,889.862954 677.462736,860.095158 627.149061,826.543334 C572.178257,789.888094 543.956361,738.73519 540.154809,673.504734 C538.213075,640.190823 531.864513,606.414637 543.69544,574.096048 C551.231797,553.513521 563.041486,534.475925 572.866966,514.711036 C576.280171,507.843167 579.491617,500.875915 582.7956,493.953838 C581.451555,492.65736 580.107511,491.360882 578.763467,490.064404" id="Fill-7"></path>
                    <path d="M518.836595,573 C515.908062,585.304677 513.866036,595.372831 511.107162,605.244586 C481.670507,710.580352 529.353944,815.910027 627.077708,866.316267 C677.466524,892.306509 727.658168,919.373143 774.881539,950.545904 C819.87794,980.250995 851.347449,1022.76166 866.716138,1075.60995 C879.882312,1120.88544 875.293868,1164.36744 852.180461,1205.25971 C833.799174,1237.77834 829.793074,1269.5601 850.989789,1302.17617 C852.784204,1304.93795 853.565248,1308.34982 854.908767,1311.6871 C819.850427,1315.04112 786.017915,1291.15037 773.516622,1253.53296 C763.341649,1222.9159 755.96529,1191.32294 744.805987,1161.09411 C716.211514,1083.63799 665.773788,1022.47239 598.868409,974.620867 C548.421511,938.541156 506.28792,895.689458 484.146616,836.655328 C462.838323,779.834884 447.766157,721.738601 458.60754,660.324837 C465.123374,623.42451 483.385441,593.815335 518.836595,573" id="Fill-9"></path>
                    <path d="M109,267.750763 C129.2841,262.624222 145.802978,258.838304 162.108418,254.261802 C226.957414,236.06151 283.999399,203.039295 336.254066,160.254283 C378.275747,125.847013 420.175678,91.0597726 470.243359,68.6277098 C545.11942,35.0815027 621.63384,32.5856465 698.509,58.414464 C740.187978,72.4182243 765.702805,106.499148 782.818407,145.852166 C793.379065,170.135054 799.102804,196.602774 807,222.089924 L802.535845,225.145012 C786.156753,218.383677 769.881375,211.352687 753.38354,204.905441 C647.168207,163.393638 540.66278,163.759819 434.200941,203.630701 C383.183311,222.73802 333.01342,244.335066 281.496767,261.865813 C252.416627,271.761906 221.423064,275.906345 191.211103,282.243276 C163.652084,288.025573 138.443885,278.582993 109,267.750763" id="Fill-12"></path>
                    <path d="M1120,898.106348 C1194.89365,881.694109 1269.67868,877.721206 1347,890.830759 C1343.73131,896.063434 1341.27429,901.111324 1337.81919,905.34674 C1316.63949,931.315065 1308.15881,961.012845 1307.4308,994.382884 C1306.5751,1033.67195 1279.76803,1062.24781 1241.80309,1068.14044 C1209.98951,1073.08127 1176.1607,1056.39185 1163.97246,1026.57674 C1150.97549,994.781787 1140.70415,961.870781 1129.45087,929.373344 C1126.22181,920.047508 1123.71195,910.473824 1120,898.106348" id="Fill-14"></path>
                    <path d="M691.3405,0 C739.072043,4.08429214 787.383302,5.20908591 832.271037,25.6167172 C855.6423,36.2423305 871.252051,53.4983879 877.024874,79.9786763 C888.486835,132.544346 905.923988,183.147773 931.679545,230.42599 C938.057952,242.136445 947.645343,252.032172 955.336862,263.058838 C959.361405,268.828785 962.476052,275.245641 966,281.370543 C965.080974,282.579849 964.160426,283.790693 963.242921,285 C958.328261,284.119526 953.065163,284.094941 948.558283,282.218748 C921.551998,270.9662 894.789164,259.115914 867.799616,247.820341 C852.419622,241.383509 846.032085,227.988936 844.840699,213.398886 C838.667703,137.698114 795.187417,85.622621 739.662411,40.9842889 C723.51859,28.0061356 706.575946,16.0421407 690,3.61409146 C690.447341,2.40939431 690.894681,1.20469715 691.3405,0" id="Fill-16"></path>
                </g>
            </g>
            <text id="©-Blockchain-Nordic" mask="url(#mask-2)" font-family="HelveticaNeue-Light, Helvetica Neue" font-size="12" font-weight="300" letter-spacing="0.428571403" fill="#FFFFFF">
                <tspan x="876.073143" y="800">© Blockchain Nordic | Trading Platform</tspan>
            </text>
            <text id="Contact-Us" mask="url(#mask-2)" font-family="HelveticaNeue-Light, Helvetica Neue" font-size="12" font-weight="300" letter-spacing="0.428571403" fill="#FFFFFF">
                <tspan x="720.131143" y="800">Contact Us</tspan>
            </text>
            <text id="Privacy-Policy" mask="url(#mask-2)" font-family="HelveticaNeue-Light, Helvetica Neue" font-size="12" font-weight="300" letter-spacing="0.428571403" fill="#FFFFFF">
                <tspan x="534.04" y="800">Privacy Policy</tspan>
            </text>
            <text id="Terms-of-Service" mask="url(#mask-2)" font-family="HelveticaNeue-Light, Helvetica Neue" font-size="12" font-weight="300" letter-spacing="0.428571403" fill="#FFFFFF">
                <tspan x="347.387429" y="800">Terms of Service</tspan>
            </text>
            <rect id="Rectangle" fill="#FFFFFF" mask="url(#mask-2)" x="433" y="201" width="573" height="500" rx="10"></rect>
            <text id="Sign-in" mask="url(#mask-2)" font-family="HelveticaNeue-Bold, Helvetica Neue" font-size="20" font-weight="bold" letter-spacing="0.222222224" fill="#000000">
                <tspan x="687.322222" y="292">Sign in</tspan>
            </text>
            <rect id="Rectangle-2" fill="#C7A963" mask="url(#mask-2)" x="575" y="359" width="290" height="53" rx="5"></rect>
            <g id="Rectangle-2-Copy" mask="url(#mask-2)">
                <use fill="#FCFCFC" fill-rule="evenodd" xlink:href="#path-4"></use>
                <rect stroke="#E2E2E2" stroke-width="1" x="575.5" y="428.5" width="289" height="44" rx="5"></rect>
            </g>
            <g id="Rectangle-2-Copy-2" mask="url(#mask-2)">
                <use fill="#FCFCFC" fill-rule="evenodd" xlink:href="#path-5"></use>
                <rect stroke="#E2E2E2" stroke-width="1" x="575.5" y="488.5" width="289" height="44" rx="5"></rect>
            </g>
            <rect id="Rectangle-2-Copy-3" fill="#162331" mask="url(#mask-2)" x="575" y="553" width="290" height="35" rx="5"></rect>
            <text id="Email" mask="url(#mask-2)" font-family="HelveticaNeue-Light, Helvetica Neue" font-size="14" font-weight="300" fill="#BABABA">
                <tspan x="583" y="456">Email</tspan>
            </text>
            <text id="Password" mask="url(#mask-2)" font-family="HelveticaNeue-Light, Helvetica Neue" font-size="14" font-weight="300" fill="#BABABA">
                <tspan x="583" y="516">Password</tspan>
            </text>
            <text id="Signin" mask="url(#mask-2)" font-family="HelveticaNeue-Bold, Helvetica Neue" font-size="14" font-weight="bold" fill="#FFFFFF">
                <tspan x="697.266" y="575">Signin</tspan>
            </text>
            <text id="You-need-to-sign-in" mask="url(#mask-2)" font-family="HelveticaNeue-Light, Helvetica Neue" font-size="14" font-weight="300" fill="#FFFFFF">
                <tspan x="608.749" y="382">You need to sign in or sign up before </tspan>
                <tspan x="688.885" y="399">continuing</tspan>
            </text>
            <g id="Logo" mask="url(#mask-2)" font-family="BrandonGrotesque-Black, Brandon Grotesque" font-size="25" font-weight="700" letter-spacing="-1.49000001" line-spacing="10">
                <g transform="translate(575.000000, 162.000000)" id="BLOCKCHAIN-NORDIC-A/">
                    <text>
                        <tspan x="0.7575001" y="9.675" fill="#FFFFFF">BLOCKCHAIN NORDIC A/S</tspan>
                        <tspan x="5.939" y="36" font-family="BrandonGrotesque-Light, Brandon Grotesque" font-size="8" font-weight="300" letter-spacing="4.71" fill="#FFFFFF">A DIGITAL ASSET INVESTMENT FIRM</tspan>
                    </text>
                </g>
            </g>
            <text id="Don´t-have-an-accoun" mask="url(#mask-2)" font-family="HelveticaNeue-Light, Helvetica Neue" font-size="13" font-weight="300" line-spacing="21">
                <tspan x="595.1605" y="615" fill="#5E6979">Don´t have an account? </tspan>
                <tspan x="731.4655" y="615" font-family="HelveticaNeue-Bold, Helvetica Neue" font-weight="bold" fill="#C7A963">Create an account</tspan>
                <tspan x="845.8395" y="615" fill="#5E6979"></tspan>
                <tspan x="587.835" y="636" fill="#5E6979">Forgot your password? </tspan>
                <tspan x="721.722" y="636" font-family="HelveticaNeue-Bold, Helvetica Neue" font-weight="bold" fill="#C7A963">Reset your password</tspan>
            </text>
        </g>
    </g>
</svg>