<?xml version="1.0" encoding="utf-8"?>
<!-- Generator: Adobe Illustrator 22.0.1, SVG Export Plug-In . SVG Version: 6.00 Build 0)  -->
<svg version="1.1" id="Layer_1" xmlns="http://www.w3.org/2000/svg" xmlns:xlink="http://www.w3.org/1999/xlink" x="0px" y="0px"
	 viewBox="0 0 1339.3 330.5" style="enable-background:new 0 0 1339.3 330.5;" xml:space="preserve">
<style type="text/css">
	.st0{fill:#FFFFFF;}
</style>
<title>Loger</title>
<path class="st0" d="M411,238l8.9-19.7c0.1-0.2,0.3-0.3,0.5-0.3h0.3c0.2,0,0.4,0.1,0.5,0.3l8.8,19.7c0.1,0.3,0,0.6-0.2,0.7
	c-0.1,0-0.2,0.1-0.3,0.1h-1.2c-0.2,0-0.4-0.1-0.5-0.3l-2.2-4.8h-10.3l-2.1,4.8c-0.1,0.2-0.3,0.3-0.5,0.3h-1.2
	c-0.3,0-0.5-0.2-0.5-0.5C410.9,238.1,411,238.1,411,238z M424.9,231.8c-1.4-3.2-2.8-6.4-4.3-9.6h-0.2l-4.3,9.6H424.9z"/>
<path class="st0" d="M468.7,218.8c0-0.3,0.2-0.5,0.5-0.6h6.5c5.7,0,10.2,4.6,10.2,10.2s-4.6,10.2-10.2,10.2h-6.5
	c-0.3,0-0.5-0.3-0.5-0.6V218.8z M475.3,236.7c4.6,0.2,8.4-3.4,8.5-8s-3.4-8.4-8-8.5c-0.2,0-0.4,0-0.6,0h-4.4v16.5H475.3z"/>
<path class="st0" d="M505,218.8c0-0.3,0.3-0.5,0.6-0.6h1.2c0.3,0,0.5,0.2,0.6,0.6v19.4c0,0.3-0.3,0.5-0.6,0.6h-1.1
	c-0.3,0-0.5-0.3-0.6-0.6L505,218.8z"/>
<path class="st0" d="M536.9,217.9c2.6,0,5.1,1,7,2.7c0.2,0.2,0.2,0.6,0,0.8c0,0,0,0,0,0c-0.3,0.3-0.6,0.6-0.8,0.8s-0.4,0.3-0.8,0
	c-1.5-1.4-3.5-2.2-5.5-2.3c-4.7,0.2-8.3,4.1-8.1,8.7c0.2,4.4,3.7,8,8.1,8.1c1.8,0,3.6-0.4,5.2-1.2v-4.1h-3.3c-0.3,0-0.5-0.2-0.5-0.5
	c0,0,0,0,0,0v-1.1c0-0.3,0.2-0.5,0.5-0.6c0,0,0,0,0,0h5c0.3,0,0.5,0.3,0.5,0.6v6.7c0,0.2-0.1,0.3-0.2,0.5c-2.2,1.3-4.7,1.9-7.2,1.9
	c-5.8-0.2-10.4-5-10.2-10.9c0.2-5.6,4.6-10,10.2-10.2L536.9,217.9z"/>
<path class="st0" d="M563.8,218.8c0-0.3,0.3-0.5,0.5-0.6h1.2c0.3,0,0.5,0.3,0.5,0.6v19.4c0,0.3-0.2,0.5-0.5,0.6h-1.2
	c-0.3,0-0.5-0.3-0.5-0.6V218.8z"/>
<path class="st0" d="M589.4,220.2h-5.1c-0.3,0-0.6-0.3-0.5-0.6v-0.9c0-0.3,0.2-0.6,0.5-0.6h12.4c0.3,0,0.5,0.2,0.5,0.6v0.9
	c0,0.3-0.2,0.6-0.5,0.6h-5.1v18c0,0.3-0.3,0.5-0.6,0.6H590c-0.3,0-0.5-0.3-0.6-0.6L589.4,220.2z"/>
<path class="st0" d="M611.2,238l8.8-19.8c0.1-0.2,0.3-0.3,0.5-0.3h0.3c0.2,0,0.4,0.1,0.5,0.3l8.8,19.8c0.1,0.3,0,0.6-0.2,0.7
	c-0.1,0-0.2,0.1-0.3,0.1h-1.2c-0.2,0-0.4-0.1-0.5-0.3l-2.2-4.8h-10.4l-2.1,4.8c-0.1,0.2-0.3,0.3-0.5,0.3h-1.2
	c-0.3,0-0.5-0.2-0.6-0.5C611.1,238.2,611.1,238.1,611.2,238z M625,231.7c-1.4-3.2-2.8-6.4-4.2-9.6h-0.2l-4.3,9.6H625z"/>
<path class="st0" d="M647.8,218.8c0-0.3,0.2-0.6,0.5-0.6h1.1c0.3,0,0.5,0.3,0.5,0.6v18h8.4c0.3,0,0.6,0.3,0.5,0.6v0.9
	c0,0.3-0.2,0.6-0.5,0.6h-10.1c-0.3,0-0.6-0.3-0.5-0.6L647.8,218.8z"/>
<path class="st0" d="M695,238l8.9-19.7c0.1-0.2,0.3-0.3,0.5-0.3h0.3c0.2,0,0.4,0.1,0.5,0.3l8.8,19.7c0.1,0.3,0,0.6-0.2,0.7
	c-0.1,0-0.2,0.1-0.3,0.1h-1.2c-0.2,0-0.4-0.1-0.5-0.3l-2.2-4.8h-10.4l-2.1,4.8c-0.1,0.2-0.3,0.3-0.5,0.3h-1.2
	c-0.3,0-0.5-0.2-0.5-0.5C694.9,238.2,695,238.1,695,238z M708.8,231.8c-1.4-3.2-2.8-6.4-4.3-9.6h-0.2l-4.3,9.6H708.8z"/>
<path class="st0" d="M730.4,235.6c0.1-0.2,0.3-0.4,0.4-0.6c0.3-0.4,0.6-0.6,1-0.3c1.3,1.3,3.1,2.1,4.9,2.2c2.4,0,3.9-1.5,3.9-3.2
	c0-2-1.8-3.2-5.1-4.6s-5.1-2.7-5.1-6.1c0-2,1.6-5.2,6.2-5.2c1.8,0,3.5,0.5,5,1.5c0.3,0.2,0.4,0.5,0.3,0.9c0,0.1-0.1,0.1-0.1,0.1
	c-0.1,0.2-0.2,0.4-0.3,0.6c-0.1,0.3-0.5,0.5-0.9,0.3c0,0-0.1,0-0.1-0.1c-1.1-0.8-2.5-1.2-3.8-1.4c-3.1,0-4,2-4,3.2
	c0,2,1.5,3.1,3.9,4.1c3.9,1.6,6.5,3.1,6.5,6.5c0,3-2.9,5.3-6.3,5.3c-2.3,0-4.4-0.9-6.2-2.4c-0.3-0.2-0.5-0.5-0.3-0.9
	C730.3,235.7,730.3,235.7,730.4,235.6z"/>
<path class="st0" d="M760.5,235.6c0.2-0.2,0.3-0.4,0.4-0.6c0.3-0.4,0.6-0.6,1-0.3c1.3,1.3,3.1,2.1,4.9,2.2c2.4,0,3.9-1.5,3.9-3.2
	c0-2-1.8-3.2-5.1-4.6s-5.1-2.7-5.1-6.1c0-2,1.6-5.2,6.2-5.2c1.8,0,3.5,0.5,5,1.5c0.3,0.2,0.4,0.5,0.3,0.9c0,0.1-0.1,0.1-0.1,0.1
	c-0.1,0.2-0.2,0.4-0.3,0.6c-0.1,0.3-0.5,0.5-0.9,0.3c-0.1,0-0.1-0.1-0.1-0.1c-1.1-0.8-2.5-1.2-3.8-1.4c-3.1,0-4,2-4,3.2
	c0,2,1.5,3.1,3.9,4.1c3.9,1.6,6.5,3.1,6.5,6.5c0,3-2.9,5.3-6.3,5.3c-2.3,0-4.5-0.9-6.2-2.4c-0.3-0.2-0.5-0.5-0.3-0.9
	C760.4,235.7,760.4,235.7,760.5,235.6z"/>
<path class="st0" d="M791.9,218.8c0-0.3,0.3-0.6,0.6-0.6h11.5c0.3,0,0.6,0.2,0.6,0.6v0.9c0,0.3-0.3,0.6-0.6,0.6h-9.8v7.1h8.4
	c0.3,0,0.5,0.3,0.6,0.6v0.9c0,0.3-0.3,0.6-0.6,0.6h-8.4v7.5h9.8c0.3,0,0.6,0.3,0.6,0.6v0.9c0,0.3-0.3,0.6-0.6,0.6h-11.5
	c-0.3,0-0.6-0.3-0.6-0.6V218.8z"/>
<path class="st0" d="M826.6,220.2h-5.1c-0.3,0-0.6-0.3-0.6-0.6v-0.9c0-0.3,0.3-0.6,0.6-0.6h12.4c0.3,0,0.5,0.2,0.5,0.6v0.9
	c0,0.3-0.2,0.6-0.5,0.6h-5.1v18c0,0.3-0.3,0.5-0.6,0.6h-1.1c-0.3,0-0.5-0.3-0.5-0.6V220.2z"/>
<path class="st0" d="M873.3,218.8c0-0.3,0.3-0.5,0.5-0.6h1.2c0.3,0,0.5,0.3,0.5,0.6v19.4c0,0.3-0.2,0.5-0.5,0.6h-1.2
	c-0.3,0-0.5-0.3-0.5-0.6L873.3,218.8z"/>
<path class="st0" d="M896.1,218.4c0-0.3,0.3-0.5,0.6-0.5h0.7l13.1,16.5h0.1v-15.6c0-0.3,0.2-0.6,0.5-0.6h1c0.3,0,0.5,0.3,0.5,0.6
	v19.7c0,0.3-0.3,0.5-0.5,0.5c0,0,0,0,0,0h-0.5l-13.4-16.8l0,0v15.9c0,0.3-0.2,0.6-0.5,0.6h-1c-0.3,0-0.5-0.3-0.6-0.6L896.1,218.4z"
	/>
<path class="st0" d="M930.5,219c-0.1-0.3,0-0.6,0.2-0.7c0.1,0,0.2-0.1,0.3-0.1h1.2c0.2,0,0.4,0.1,0.5,0.3l7.3,16.4h0.1l7.3-16.4
	c0.1-0.2,0.3-0.3,0.5-0.3h1.2c0.3,0,0.5,0.2,0.6,0.5c0,0.1,0,0.2-0.1,0.3l-8.9,19.7c-0.1,0.2-0.3,0.3-0.5,0.3h-0.3
	c-0.2,0-0.4-0.1-0.5-0.3L930.5,219z"/>
<path class="st0" d="M967.2,218.8c0-0.3,0.2-0.6,0.5-0.6h11.5c0.3,0,0.5,0.2,0.5,0.6v0.9c0,0.3-0.2,0.6-0.5,0.6h-9.8v7.1h8.4
	c0.3,0,0.5,0.3,0.5,0.6v0.9c0,0.3-0.2,0.6-0.5,0.6h-8.4v7.5h9.8c0.3,0,0.6,0.3,0.5,0.6v0.9c0,0.3-0.2,0.6-0.5,0.6h-11.5
	c-0.3,0-0.6-0.3-0.5-0.6V218.8z"/>
<path class="st0" d="M997.7,235.6c0.1-0.2,0.3-0.4,0.4-0.6c0.3-0.4,0.6-0.6,1-0.3c1.3,1.3,3.1,2.1,4.9,2.2c2.4,0,3.9-1.5,3.9-3.2
	c0-2-1.8-3.2-5.1-4.6s-5.1-2.7-5.1-6.1c0-2,1.6-5.2,6.2-5.2c1.8,0,3.5,0.5,5,1.5c0.3,0.2,0.4,0.5,0.3,0.9c0,0.1-0.1,0.1-0.1,0.1
	c-0.1,0.2-0.2,0.4-0.3,0.6c-0.1,0.3-0.5,0.5-0.9,0.3c0,0-0.1,0-0.1-0.1c-1.1-0.8-2.5-1.2-3.8-1.4c-3.1,0-4,2-4,3.2
	c0,2,1.5,3.1,3.9,4.1c3.9,1.6,6.5,3.1,6.5,6.5c0,3-2.9,5.3-6.3,5.3c-2.3,0-4.4-0.9-6.2-2.4c-0.3-0.2-0.5-0.5-0.3-0.9
	C997.6,235.7,997.6,235.7,997.7,235.6z"/>
<path class="st0" d="M1032,220.2h-5.1c-0.3,0-0.6-0.3-0.6-0.6v-0.9c0-0.3,0.3-0.6,0.6-0.6h12.4c0.3,0,0.6,0.2,0.6,0.5c0,0,0,0,0,0
	v0.9c0,0.3-0.2,0.6-0.6,0.6h-5.1v18c0,0.3-0.2,0.5-0.6,0.6h-1.1c-0.3,0-0.5-0.3-0.6-0.6V220.2z"/>
<path class="st0" d="M1059.5,218.3c0.1-0.2,0.3-0.4,0.5-0.4h0.5c0.2,0,0.4,0.1,0.5,0.3l5.8,16.1h0.2l5.7-16.1
	c0.1-0.2,0.3-0.3,0.5-0.3h0.5c0.2,0,0.5,0.2,0.5,0.4l3.8,19.7c0.1,0.4-0.1,0.7-0.5,0.7h-1.2c-0.2,0-0.4-0.2-0.5-0.4l-2.6-15.1h-0.1
	l-5.4,15.5c-0.1,0.2-0.3,0.3-0.5,0.3h-0.5c-0.2,0-0.4-0.1-0.5-0.3l-5.4-15.5h-0.1l-2.5,15.1c-0.1,0.2-0.3,0.4-0.5,0.4h-1.2
	c-0.4,0-0.6-0.3-0.5-0.7L1059.5,218.3z"/>
<path class="st0" d="M1096.9,218.8c0-0.3,0.3-0.6,0.6-0.6h11.5c0.3,0,0.6,0.2,0.6,0.6v0.9c0,0.3-0.3,0.6-0.6,0.6h-9.8v7.1h8.4
	c0.3,0,0.5,0.3,0.6,0.6v0.9c0,0.3-0.3,0.6-0.6,0.6l0,0h-8.4v7.5h9.8c0.3,0,0.6,0.3,0.6,0.6v0.9c0,0.3-0.3,0.6-0.6,0.6h-11.5
	c-0.3,0-0.6-0.3-0.6-0.6V218.8z"/>
<path class="st0" d="M1128.7,218.4c0-0.3,0.3-0.5,0.6-0.5h0.7l13.2,16.5l0,0v-15.6c0-0.3,0.3-0.6,0.6-0.6h1c0.3,0,0.5,0.3,0.6,0.6
	v19.7c0,0.3-0.3,0.5-0.5,0.5c0,0,0,0,0,0h-0.5l-13.4-16.8l0,0v15.9c0,0.3-0.2,0.6-0.6,0.6h-1c-0.3,0-0.5-0.3-0.6-0.6L1128.7,218.4z"
	/>
<path class="st0" d="M1168.8,220.2h-5.1c-0.3,0-0.6-0.3-0.6-0.6c0,0,0,0,0,0v-0.9c0-0.3,0.2-0.6,0.5-0.6c0,0,0,0,0,0h12.3
	c0.3,0,0.6,0.2,0.6,0.5c0,0,0,0,0,0v0.9c0,0.3-0.2,0.6-0.6,0.6h-5v18c0,0.3-0.2,0.5-0.6,0.6h-1.1c-0.3,0-0.5-0.3-0.6-0.6
	L1168.8,220.2z"/>
<path class="st0" d="M1215.4,218.8c0-0.3,0.2-0.6,0.6-0.6l0,0h11.5c0.3,0,0.6,0.2,0.6,0.5c0,0,0,0,0,0v0.9c0,0.3-0.3,0.6-0.6,0.6
	l0,0h-9.8v8h8.3c0.3,0,0.5,0.3,0.6,0.6v0.9c0,0.3-0.3,0.5-0.6,0.6h-8.4v8c0,0.3-0.2,0.5-0.6,0.6h-1.1c-0.3,0-0.6-0.3-0.6-0.6
	L1215.4,218.8z"/>
<path class="st0" d="M1246.6,218.8c0-0.3,0.3-0.5,0.6-0.6h1.2c0.3,0,0.5,0.3,0.6,0.6v19.4c0,0.3-0.2,0.5-0.6,0.6h-1.2
	c-0.3,0-0.5-0.3-0.6-0.6V218.8z"/>
<path class="st0" d="M1269.4,218.8c0-0.3,0.2-0.6,0.6-0.6l0,0h7.6c3.5,0,6.3,2.7,6.4,6.2c0,0,0,0,0,0c-0.1,2.7-1.8,5.1-4.3,6l4,7.4
	c0.2,0.3,0.1,0.6-0.2,0.8c-0.1,0.1-0.2,0.1-0.3,0.1h-1.5c-0.2,0-0.4-0.1-0.5-0.3l-3.9-7.8h-5.6v7.5c0,0.3-0.3,0.5-0.6,0.6h-1.1
	c-0.3,0-0.6-0.3-0.6-0.6L1269.4,218.8z M1277.4,228.8c2.3-0.1,4.1-2.1,4-4.4c-0.1-2.2-1.8-3.9-4-4h-5.7v8.4H1277.4z"/>
<path class="st0" d="M1305.5,218.3c0.1-0.2,0.3-0.4,0.5-0.4h0.5c0.2,0,0.4,0.1,0.5,0.3l5.8,16.1h0.1l5.7-16.1
	c0.1-0.2,0.3-0.3,0.5-0.3h0.5c0.2,0,0.5,0.2,0.5,0.4l3.8,19.7c0.1,0.4-0.1,0.7-0.5,0.7h-1.2c-0.2,0-0.4-0.2-0.5-0.4l-2.6-15.1h-0.1
	l-5.4,15.5c-0.1,0.2-0.3,0.3-0.5,0.3h-0.5c-0.2,0-0.4-0.1-0.5-0.3l-5.4-15.5h-0.1l-2.5,15.1c-0.1,0.2-0.3,0.4-0.5,0.4h-1.2
	c-0.4,0-0.6-0.3-0.5-0.7L1305.5,218.3z"/>
<path class="st0" d="M411.1,147.4c0-0.8,0.6-1.5,1.4-1.5c0,0,0,0,0,0h17.5c8.9,0,16.2,6.3,16.2,14.4c0,6-5.2,10.3-8.7,12.2
	c4,1.7,10.1,5.5,10.1,12.6c0,8.7-7.5,15-16.4,15h-18.7c-0.8,0-1.4-0.7-1.4-1.5c0,0,0,0,0,0V147.4z M428.7,168c3-0.1,5.4-2.6,5.3-5.6
	c0.1-2.9-2.2-5.2-5.1-5.3c-0.1,0-0.1,0-0.2,0h-5.9V168H428.7z M429.7,189.2c3.1-0.1,5.5-2.6,5.4-5.7c0,0,0,0,0,0
	c0-3.1-3.2-5.4-6.2-5.4h-6.1v11.1H429.7z"/>
<path class="st0" d="M456.3,147.4c0-0.8,0.6-1.5,1.4-1.5c0,0,0,0,0,0h9c0.8,0,1.4,0.7,1.4,1.5v41.4H486c0.8,0,1.4,0.7,1.4,1.4
	c0,0,0,0,0,0v8.4c0,0.8-0.6,1.5-1.4,1.5c0,0,0,0,0,0h-28.3c-0.8,0-1.4-0.7-1.4-1.5c0,0,0,0,0,0L456.3,147.4z"/>
<path class="st0" d="M516.7,145.1c15.1,0,27.1,12.5,27.1,28s-12,27.9-27.1,27.9s-27-12.3-27-27.8S501.7,145.1,516.7,145.1z
	 M516.7,188.6c8.4-0.1,15.1-7,15.1-15.4c0-8.5-6.8-15.6-15.1-15.6s-15,7.1-15,15.6C501.7,181.5,508.3,188.4,516.7,188.6L516.7,188.6
	z"/>
<path class="st0" d="M575.4,145.1c6.8-0.2,13.4,2.4,18.2,7.2c0.6,0.5,0.7,1.5,0.2,2.1c0,0-0.1,0.1-0.1,0.1l-5.9,6.3
	c-0.5,0.5-1.3,0.5-1.8,0.1c0,0,0,0-0.1-0.1c-2.8-2.5-6.4-3.9-10.2-3.9c-8.5,0-14.8,7.3-14.8,16s6.3,15.7,14.8,15.7
	c3.7,0,7.3-1.3,10.1-3.7c0.6-0.5,1.5-0.5,2,0.1l5.9,6.4c0.5,0.6,0.5,1.5-0.1,2.1c-4.8,4.9-11.4,7.6-18.3,7.5
	c-15.1,0-27.2-12.3-27.2-27.8S560.3,145.1,575.4,145.1z"/>
<path class="st0" d="M601.8,147.8c0-1,0.8-1.8,1.8-1.9c0,0,0,0,0.1,0h8.8c1,0,1.8,0.9,1.8,1.9v20.4l16.8-21.5
	c0.4-0.4,0.9-0.7,1.4-0.8h9.5c1,0,1.8,0.9,1.7,1.9c0,0.4-0.1,0.7-0.4,1l-17.7,22.7l19.2,25.8c0.6,0.8,0.4,2-0.5,2.5
	c-0.3,0.2-0.6,0.3-1,0.3H633c-0.5,0-1-0.2-1.4-0.5l-17.4-24.4v23.1c0,1-0.8,1.8-1.8,1.9h-8.8c-1,0-1.8-0.8-1.8-1.8c0,0,0,0,0,0
	L601.8,147.8z"/>
<path class="st0" d="M673.9,145.1c6.8-0.2,13.4,2.4,18.2,7.2c0.6,0.5,0.7,1.5,0.2,2.1c0,0-0.1,0.1-0.1,0.1l-5.9,6.3
	c-0.5,0.5-1.3,0.5-1.8,0.1c0,0,0,0-0.1-0.1c-2.8-2.5-6.4-3.9-10.2-3.9c-8.5,0-14.8,7.3-14.8,16s6.3,15.7,14.8,15.7
	c3.7,0,7.3-1.3,10.1-3.7c0.6-0.5,1.5-0.5,2,0.1l5.9,6.4c0.5,0.6,0.5,1.5-0.1,2.1c-4.8,4.9-11.4,7.6-18.3,7.5
	c-15.1,0-27.2-12.3-27.2-27.8S658.8,145.1,673.9,145.1z"/>
<path class="st0" d="M700.3,147.4c0-0.8,0.6-1.4,1.4-1.5h9c0.8,0,1.4,0.7,1.4,1.5c0,0,0,0,0,0v19.5h21.5v-19.5
	c0-0.8,0.6-1.5,1.4-1.5h9c0.8,0,1.4,0.7,1.4,1.5v51.3c0,0.8-0.6,1.4-1.4,1.5h-9c-0.8,0-1.4-0.7-1.4-1.5v-20.4h-21.6v20.4
	c0,0.8-0.6,1.5-1.4,1.5c0,0,0,0,0,0h-9c-0.8,0-1.4-0.7-1.4-1.5L700.3,147.4z"/>
<path class="st0" d="M750.7,198.2l23.6-52.2c0.2-0.5,0.7-0.8,1.3-0.9h0.8c0.6,0,1,0.4,1.3,0.9l23.6,52.2c0.3,0.7,0.1,1.5-0.6,1.8
	c-0.2,0.1-0.5,0.2-0.7,0.2h-8.4c-1.3,0-2-0.5-2.6-1.9l-2.7-6.1h-20.5l-2.7,6.2c-0.4,1.1-1.5,1.9-2.7,1.9H752c-0.8,0-1.4-0.6-1.4-1.3
	C750.6,198.6,750.6,198.4,750.7,198.2z M781.7,181.6l-5.7-12.8h-0.1l-5.7,12.8H781.7z"/>
<path class="st0" d="M806.5,147.4c0-0.8,0.6-1.4,1.4-1.5h9c0.8,0,1.4,0.7,1.4,1.5v51.3c0,0.8-0.6,1.4-1.4,1.5h-9
	c-0.8,0-1.4-0.7-1.4-1.5V147.4z"/>
<path class="st0" d="M830.3,146.5c0-0.8,0.7-1.4,1.4-1.4h1.9l30,29.8h0.1v-27.5c0-0.8,0.6-1.5,1.4-1.5c0,0,0,0,0,0h9
	c0.8,0,1.4,0.7,1.4,1.5v52.2c0,0.8-0.7,1.4-1.4,1.4H873c-0.4,0-0.7-0.2-1-0.4l-29.7-30.8h-0.1v28.9c0,0.8-0.6,1.5-1.4,1.5
	c0,0,0,0,0,0h-9c-0.8,0-1.4-0.7-1.4-1.5V146.5z"/>
<path class="st0" d="M903.3,146.5c0-0.8,0.7-1.4,1.4-1.4h1.9l30,29.8h0.1v-27.5c0-0.8,0.6-1.5,1.4-1.5c0,0,0,0,0,0h9
	c0.8,0,1.4,0.7,1.4,1.5v52.2c0,0.8-0.7,1.4-1.4,1.4H946c-0.4,0-0.7-0.2-1-0.4l-29.7-30.8h-0.1v28.9c0,0.8-0.6,1.5-1.4,1.5
	c0,0,0,0,0,0h-9c-0.8,0-1.4-0.7-1.4-1.5L903.3,146.5z"/>
<path class="st0" d="M983.9,145.1c15.1,0,27.1,12.5,27.1,28S999,201,983.9,201s-27-12.3-27-27.8S968.8,145.1,983.9,145.1z
	 M983.9,188.6c8.4-0.1,15.2-7,15.1-15.4c0-8.5-6.8-15.6-15.1-15.6s-15,7.1-15,15.6C968.9,181.5,975.5,188.4,983.9,188.6L983.9,188.6
	z"/>
<path class="st0" d="M1019.2,147.4c0-0.8,0.6-1.5,1.4-1.5c0,0,0,0,0,0h22.5c9.2,0.1,16.5,7.6,16.4,16.8c0,7.1-4.6,12.9-11.2,15.6
	l10.3,19.7c0.4,0.7,0.2,1.6-0.5,2c-0.2,0.2-0.5,0.2-0.8,0.2h-10c-0.5,0-1-0.3-1.2-0.7l-10-20.6h-5.3v19.8c0,0.8-0.6,1.4-1.4,1.5h-9
	c-0.8,0-1.4-0.7-1.4-1.5c0,0,0,0,0,0L1019.2,147.4z M1042.2,169.1c3.1,0,5.7-3,5.7-6.2c0-3.2-2.5-5.8-5.7-5.9H1031v12.1
	L1042.2,169.1z"/>
<path class="st0" d="M1068.8,147.4c0-0.8,0.6-1.4,1.4-1.5h18.4c14.5,0,26.4,12.2,26.4,27.1s-11.9,27.2-26.4,27.2h-18.4
	c-0.8,0-1.4-0.7-1.4-1.5V147.4z M1087.8,188.7c8.5,0,14.7-6.9,14.7-15.7s-6.2-15.7-14.7-15.7h-7.2v31.4H1087.8z"/>
<path class="st0" d="M1123.2,147.4c0-0.8,0.6-1.4,1.4-1.5h9c0.8,0,1.4,0.7,1.4,1.5v51.3c0,0.8-0.6,1.4-1.4,1.5h-9
	c-0.8,0-1.4-0.7-1.4-1.5V147.4z"/>
<path class="st0" d="M1170.5,145.1c6.8-0.2,13.4,2.4,18.2,7.2c0.6,0.5,0.7,1.5,0.2,2.1c0,0-0.1,0.1-0.1,0.1l-5.9,6.3
	c-0.5,0.5-1.3,0.5-1.8,0.1c0,0,0,0-0.1-0.1c-2.8-2.5-6.4-3.9-10.2-3.9c-8.5,0-14.8,7.3-14.8,16s6.3,15.7,14.8,15.7
	c3.7,0,7.3-1.3,10.1-3.7c0.6-0.5,1.5-0.5,2,0.1l5.9,6.4c0.5,0.6,0.5,1.5-0.1,2.1c-4.8,4.9-11.4,7.6-18.3,7.5
	c-15.1,0-27.2-12.3-27.2-27.8S1155.4,145.1,1170.5,145.1z"/>
<path class="st0" d="M1205.9,198.2l23.6-52.2c0.2-0.5,0.7-0.8,1.3-0.9h0.8c0.5,0,1,0.4,1.3,0.9l23.6,52.2c0.3,0.7,0.1,1.5-0.6,1.8
	c-0.2,0.1-0.5,0.2-0.7,0.2h-8.4c-1.3,0-2-0.5-2.6-1.9l-2.7-6.1h-20.5l-2.7,6.2c-0.4,1.1-1.5,1.9-2.7,1.9h-8.3
	c-0.8,0-1.4-0.5-1.4-1.3C1205.7,198.6,1205.8,198.4,1205.9,198.2z M1236.8,181.6l-5.7-12.8h-0.1l-5.6,12.8H1236.8z"/>
<path class="st0" d="M1272.8,146.9c0.2-0.6,0.7-1,1.4-1h7.4c0.8,0,1.4,0.6,1.5,1.3c0,0.2,0,0.4-0.1,0.6l-14.7,51.3
	c-0.2,0.6-0.8,1-1.4,1h-7.4c-0.8,0-1.4-0.6-1.5-1.4c0-0.2,0-0.4,0.1-0.5L1272.8,146.9z"/>
<path class="st0" d="M1286.8,192.8l3.5-6.4c0.6-0.8,1.7-1,2.6-0.5c0.3,0.1,5.7,4.3,10.7,4.3c3,0,5.2-1.9,5.2-4.6
	c0-3.3-2.6-5.7-7.8-7.8c-6.5-2.6-14.6-7.8-14.6-17.1c0-7.7,5.8-15.4,17.4-15.4c7.8,0,13.8,4.1,16.1,5.8c0.7,0.6,0.9,1.6,0.5,2.5
	l-3.8,6c-0.5,0.9-1.9,1.6-2.6,1c-0.7-0.4-6.2-4.6-10.8-4.6c-2.7,0-4.8,1.9-4.8,4c0,2.9,2.3,5,8.2,7.5s15.2,7.1,15.2,17.7
	c0,8-6.7,16-17.8,16c-9.8,0-15.2-4.2-16.9-6C1286.4,194.2,1286.2,193.9,1286.8,192.8z"/>
<path class="st0" d="M16.9,282.1c10.2-14.6,22.6-27.8,28.3-45.1c3.8-11.4,6.6-23.1,10.5-34.4c6.8-19.8,14.5-39.3,26.6-56.6
	c2-2.9,4.7-5.4,7.2-8.1c0,6.1-0.2,11.5,0,16.9c0.6,10.1,3.1,20,7.3,29.1c4.3,9.9,3.5,19.5-0.1,29.1c-5.6,15.2-14.4,28.7-25.1,40.8
	c-7.1,8.1-16.6,13.3-26.3,17.6c-9.3,4.1-18.9,7.6-28.3,11.4L16.9,282.1z"/>
<path class="st0" d="M356.4,161.7c-8-0.7-15.5-1.3-22.9-2.1c-2.5-0.2-4.6,0.1-5.6,2.7s0.8,4.2,2.8,5.5c7.5,5,15,10.1,22.8,15.2
	c-6.6,10-13.1,19.9-19.8,29.7c-0.7,0.7-1.6,1-2.5,0.9c-22.1-3.6-44.7-2.4-66.3,3.7c-1.4,0.2-2.8-0.1-3.9-1
	c-15.7-13.5-31.2-27.2-46.9-40.8c-6-5.2-8.3-12.1-10.3-19.4c-4.7-17.2,1.3-31.3,12.1-44.2c6.7-8,13.4-16,20.2-23.9
	c3.6-4.1,9.9-5.2,15.3-2.7c8.6,4,17.1,8.3,25.7,12.3c5.1,2.4,8.8,7,10,12.6c0.5,2,1.1,3.9,1.5,5.9c1.4,6.3,5.2,10.5,11,13.3
	c16.3,7.9,32.5,16,48.7,24.1C351.7,155.2,354.6,157.5,356.4,161.7z M240,119.4c0.7,0.4,1.4,0.9,2.1,1.2c11.1,3.9,22.2,7.8,33.3,11.7
	c0.6,0.2,1.4-0.3,2.1-0.5c-0.3-0.7-0.4-1.6-0.8-2c-7.1-6.8-14.2-13.6-21.4-20.3c-0.5-0.5-1.9-0.8-2.3-0.5
	C248.8,112.2,244.7,115.6,240,119.4z"/>
<path class="st0" d="M99.6,123c-4.6,3.6-9.4,6.9-13.7,10.8C71.3,147,61,163.2,53.8,181.2c-6.3,15.6-11.6,31.6-17.3,47.5
	c-0.4,1.3-1.1,2.6-2.1,3.6c-0.4-1.9-0.9-3.7-1.1-5.5c-3.6-33,1.5-64.1,19.6-92.5c1.2-2,2.1-4.3,2.5-6.6c0.7-3-0.9-4.6-3.8-3.8
	c-5,1.3-10,2.9-14.9,4.4c-0.9,0.2-1.8,0.2-2.8,0.2c0.4-0.8,0.5-1.9,1.1-2.5c20.8-18.7,42.5-35.9,68.3-47.5
	c20.2-9.1,41.2-14.6,63.3-11.6c13.6,1.8,26.9,6.1,40.2,9.6c6,1.6,11.7,4.2,17.5,6.4c4.1,1.5,4.8,4.3,1.8,7.5
	c-5.5,5.8-11.2,11.5-16.6,17.5c-2.2,2.4-4.1,2.4-6.8,1.3c-10.9-4.6-22.3-7.5-34.1-8.7c-10.3-1.2-19.1,2.1-27,8.7
	c-18,15.1-27.9,34.7-31.6,57.6c-0.8,5.1-1.3,10.3-2,15.5c-0.3,0.9-0.7,1.7-1.2,2.4c-0.7-0.6-1.4-1.3-1.9-2.1
	c-5.8-12.6-7.1-25.9-6.1-39.5c0.4-5.3,1.2-10.6,1.7-15.9c0.1-1.1,0.2-2.2,0.2-3.2L99.6,123z"/>
<path class="st0" d="M148.8,131.2l-25.7,20.3l-1-0.7c1.2-3.3,2.4-6.5,3.7-9.8c5-13.3,13.2-24,26.4-30.1c10.3-4.8,21.2-3.7,32.1-2
	c3.8,0.6,7.5,1.8,11.2,2.6c6.6,1.3,8,5.8,5.3,12.1c-1.2,2.9-3,5.6-4.4,8.4c-4.1,8.3-3.4,17-1.2,25.6c3.7,14.1,11.1,26.4,18.7,38.6
	c6.5,10.4,13.4,20.5,19,31.3c8.8,16.7,9.2,33.8-0.8,50.5c-1.8,2.7-3.8,5.3-5.9,7.8l-0.9-0.2c-0.1-2.7-0.1-5.5-0.5-8.2
	c-0.9-7.7-1.3-15.6-3.2-23.1c-3.4-13.3-12.7-21.3-25.5-26c-13-4.9-25-11.7-36.5-19.4c-12.6-8.4-19-20.2-19.9-35.2
	c-0.4-7.7-1.9-15.4,0.8-22.9c1.7-4.7,4.4-9.1,6.7-13.7c0.8-1.6,1.5-3.2,2.3-4.8L148.8,131.2z"/>
<path class="st0" d="M134.6,151.7c-0.7,2.8-1.1,5.1-1.8,7.4c-6.7,24,4.1,48,26.3,59.5c11.5,5.8,22.7,12.2,33.5,19.2
	c10.2,6.7,17.6,16.8,20.8,28.5c3.1,9.9,1.9,20.6-3.3,29.5c-4.2,7.4-5.1,14.6-0.3,22.1c0.4,0.7,0.7,1.4,0.9,2.2
	c-7.9,0.8-15.6-4.7-18.5-13.2c-2.3-7-4-14.2-6.5-21c-6.5-17.6-17.9-31.6-33.1-42.5c-11.4-8.2-21-18-26-31.4
	c-4.8-12.9-8.2-26.2-5.8-40.2C122.4,163.2,126.5,156.4,134.6,151.7z"/>
<path class="st0" d="M44.1,79.5c4.7-1.2,8.5-2,12.3-3.1c15-4.1,28.1-11.6,40.2-21.3c9.7-7.8,19.4-15.7,30.9-20.7
	c17.3-7.6,34.9-8.2,52.7-2.3c9.6,3.2,15.5,10.9,19.4,19.8c2.4,5.5,3.8,11.5,5.6,17.3l-1,0.7c-3.8-1.5-7.5-3.1-11.3-4.6
	c-24.5-9.4-49.1-9.3-73.7-0.3c-11.8,4.3-23.3,9.2-35.2,13.2C77.2,80.4,70,81.3,63,82.8C56.7,84.1,50.9,82,44.1,79.5z"/>
<path class="st0" d="M273.1,225.1c17.7-3.9,35.4-4.8,53.6-1.7c-0.7,1.2-1.4,2.3-2.2,3.4c-5,6.1-7,13.2-7.2,21.1
	c-0.2,9.3-6.5,16-15.5,17.4c-7.5,1.2-15.5-2.8-18.4-9.8c-3.1-7.5-5.5-15.3-8.1-23C274.6,230.2,274,228,273.1,225.1z"/>
<path class="st0" d="M175.1,18c10.9,0.9,21.9,1.2,32.1,5.8c5.3,2.4,8.9,6.3,10.2,12.3c2.5,11.9,6.7,23.3,12.5,34
	c1.4,2.7,3.6,4.9,5.4,7.4c0.9,1.3,1.6,2.8,2.4,4.1l-0.6,0.8c-1.1-0.1-2.3-0.3-3.3-0.6c-6.2-2.5-12.3-5.2-18.4-7.8
	c-3.5-1.4-5-4.5-5.2-7.8c-1.4-17.1-11.3-28.8-24-38.9c-3.7-2.9-7.5-5.6-11.3-8.4L175.1,18z"/>
</svg>
