<?xml version="1.0" encoding="utf-8"?>
<!-- Generator: Adobe Illustrator 22.0.1, SVG Export Plug-In . SVG Version: 6.00 Build 0)  -->
<svg version="1.1" id="Layer_1" xmlns="http://www.w3.org/2000/svg" xmlns:xlink="http://www.w3.org/1999/xlink" x="0px" y="0px"
	 viewBox="0 0 60 60" style="enable-background:new 0 0 60 60;" xml:space="preserve">
<style type="text/css">
	.st0{filter:url(#Adobe_OpacityMaskFilter);}
	.st1{fill:#FFFFFF;}
	.st2{mask:url(#mask-2_1_);}
</style>
<title>Profile</title>
<desc>Created with Sketch.</desc>
<g id="Symbols">
	<g id="Profile">
		<g transform="translate(9.000000, 6.000000)">
			<g>
				<g id="Clip-2">
				</g>
				<defs>
					<filter id="Adobe_OpacityMaskFilter" filterUnits="userSpaceOnUse" x="0" y="0" width="43" height="49">
						<feColorMatrix  type="matrix" values="1 0 0 0 0  0 1 0 0 0  0 0 1 0 0  0 0 0 1 0"/>
					</filter>
				</defs>
				<mask maskUnits="userSpaceOnUse" x="0" y="0" width="43" height="49" id="mask-2_1_">
					<g class="st0">
						<polygon id="path-1_1_" class="st1" points="0,0 43,0 43,49 0,49 						"/>
					</g>
				</mask>
				<path id="Fill-1" class="st2" d="M41.5,40.6c0,1.4-0.8,2.6-2,3.3c-2.4,1.3-7.6,3.3-15.7,3.6c5.6-4.8,6.4-10.7,6.1-14.6
					c0-0.1,0-0.1,0-0.2c-0.1-1.1-0.2-2-0.4-2.7c0.6,0.1,1.1,0.2,1.6,0.4c0.7,0.2,1.3,0.4,2.1,0.6c1.7,0.6,3.3,1.2,4.7,1.9
					c2.1,1.1,3.5,3.2,3.5,5.5V40.6z M1.5,40.6v-2.1C1.5,36.2,2.8,34,5,33c1.4-0.7,3-1.3,4.7-1.9c0.8-0.3,1.5-0.5,2.1-0.6
					c0,0,0.6-0.2,1.6-0.3c-0.1,0.6-0.3,1.5-0.4,2.5c0,0.1,0,0.2,0,0.3c-0.2,3.9,0.5,9.8,6.1,14.5c-8.2-0.3-13.3-2.4-15.7-3.6
					C2.3,43.2,1.5,42,1.5,40.6z M17.1,26.3c1.4,0.8,2.9,1.1,4.4,1.1c1.5,0,3-0.4,4.4-1.2c0.3,1,0.8,2.1,1.8,3.1
					c-0.5,1.1-3.7,2.5-6.2,3.3c-2.5-0.7-5.7-2.1-6.2-3.3C16.3,28.3,16.8,27.3,17.1,26.3z M12.5,17.5c-0.1-0.2-0.2-0.4-0.4-0.5
					c-0.2-0.1-0.4-0.1-0.6,0c0,0-0.1,0-0.1,0c-0.1,0-0.2-0.1-0.3-0.1c-0.3-0.3-0.7-0.9-0.8-2c-0.1-1.4,0.4-2.2,0.7-2.3
					c0,0,0,0,0.1,0c0.2,0.1,0.5,0,0.7-0.1c0.2-0.1,0.3-0.4,0.3-0.6c0-0.2,0-0.7,0-1c3.9-2.7,6.4-3.5,12.5-3.3c0.6,1,2.6,3.3,6.4,3.3
					c0,0.4,0,0.9,0,1.1c0,0.2,0.1,0.5,0.3,0.6c0.2,0.1,0.4,0.2,0.7,0.1c0.1,0,0.1,0,0.1,0c0.3,0,0.9,0.9,0.7,2.3
					c-0.1,1-0.5,1.7-0.8,2C31.9,17,31.8,17,31.6,17c0,0-0.1,0-0.1,0c-0.2-0.1-0.4-0.1-0.6,0c-0.2,0.1-0.4,0.3-0.4,0.5
					c-0.8,2.9-2.3,5.4-4.5,6.9c-2.8,2-6.3,2-9.1,0C14.8,22.9,13.2,20.5,12.5,17.5z M24.5,3.1c0,0,0.1,0,0.1,0.1c0,0,0.1,0,0.1,0.1
					c0.1,0,0.1,0,0.2,0c0,0,0.1,0,0.1,0c2.6-0.3,4.4,0,5.3,1.2c1.3,1.5,0.9,4,0.7,5c-3.9,0.1-5.4-2.7-5.5-2.8
					c-0.1-0.2-0.4-0.4-0.6-0.4C18.9,5.9,16,6.7,12.3,9c0.1-1.2-0.1-2.9-1.4-4.3C12.9,3.2,18.9-0.8,24.5,3.1z M25.1,43.9l-1.2-5.8
					l0.6-0.8l0.3,0.3c0.1,0.1,0.3,0.2,0.5,0.2c0,0,0,0,0,0c0.2,0,0.4-0.1,0.5-0.3l2.4-2.8C28.3,37.5,27.5,40.8,25.1,43.9z M17,37.6
					c0.1,0.2,0.3,0.2,0.5,0.3c0,0,0,0,0,0c0.2,0,0.4-0.1,0.5-0.2l0.3-0.3l0.6,0.8l-1.2,5.8c-2.5-3.1-3.2-6.4-3.3-9.1L17,37.6z
					 M17.6,36l-3-3.5c0.1-0.6,0.1-1.1,0.2-1.5c1.4,1.2,3.7,2.2,5.2,2.7L17.6,36z M28.2,31.1c0.1,0.4,0.1,0.9,0.2,1.5l-3,3.4
					l-2.4-2.3C24.5,33.2,26.8,32.3,28.2,31.1z M21.5,47.3c-0.9-0.6-1.7-1.3-2.4-2l1.5-7.3c0-0.2,0-0.4-0.2-0.6l-0.9-1.1l2-1.9l2,1.9
					l-0.9,1.1c-0.1,0.2-0.2,0.4-0.2,0.6l1.5,7.2C23.2,46,22.4,46.7,21.5,47.3z M38.7,31.6c-1.5-0.8-3.1-1.4-4.9-2
					c-0.8-0.3-1.5-0.5-2.2-0.6c-0.9-0.3-1.8-0.5-2.7-0.6c-0.9-1-1.4-2-1.6-3c2.1-1.6,3.7-4,4.6-6.8c0.4,0,0.8-0.2,1.1-0.5
					c0.7-0.6,1.2-1.7,1.4-3c0.2-1.9-0.6-3.5-1.8-3.8c0-0.4,0-0.8,0-1c0.2-0.7,1.1-4.5-0.9-6.8c-1.3-1.5-3.5-2.1-6.4-1.7
					C17.6-3.2,9.4,4.1,9.3,4.1c0,0,0,0,0,0c0,0,0,0,0,0c0,0,0,0.1,0,0.1c0,0-0.1,0.1-0.1,0.1c0,0,0,0.1,0,0.1c0,0,0,0.1,0,0.1
					c0,0,0,0.1,0,0.1c0,0,0,0.1,0,0.1c0,0,0,0.1,0.1,0.1c0,0,0,0.1,0.1,0.1c0,0,0,0,0,0c0,0,0,0,0,0c2.2,1.8,1.3,4.9,1.2,5.1
					c0,0,0,0,0,0c0,0,0,0.1,0,0.1c0,0,0,0,0,0.1c0,0.1,0,0.4,0,0.7c-1.2,0.3-2,1.9-1.8,3.8c0.1,1.3,0.6,2.4,1.4,3
					c0.3,0.3,0.7,0.4,1.1,0.5c0.9,2.9,2.5,5.3,4.6,6.9c-0.2,1-0.7,2.1-1.7,3.1c-1.6,0.3-2.6,0.5-2.6,0.5c-0.7,0.2-1.4,0.4-2.2,0.6
					c-1.8,0.6-3.5,1.2-4.9,2C1.6,33,0,35.6,0,38.5v2.1c0,1.9,1.1,3.7,2.8,4.6c3.4,1.7,9.4,3.8,18.7,3.8h0c9.3,0,15.3-2.1,18.7-3.8
					c1.7-0.9,2.8-2.7,2.8-4.6v-2.1C43,35.6,41.4,33,38.7,31.6z"/>
			</g>
		</g>
	</g>
</g>
</svg>
