<?xml version="1.0" encoding="UTF-8"?>
<svg width="100px" height="100px" viewBox="0 0 100 100" version="1.1" xmlns="http://www.w3.org/2000/svg" xmlns:xlink="http://www.w3.org/1999/xlink">
    <!-- Generator: Sketch 48.2 (47327) - http://www.bohemiancoding.com/sketch -->
    <title>BNX</title>
    <desc>Created with Sketch.</desc>
    <defs></defs>
    <g id="Login" stroke="none" stroke-width="1" fill="none" fill-rule="evenodd">
        <g id="BNX">
            <g id="bnx" transform="translate(5.000000, 5.000000)">
                <circle id="Oval-3-Copy-9" stroke="green" stroke-width="3" cx="45" cy="45" r="46.5"></circle>
                <path d="M9.15254237,57.1831148 L9.15254237,32.5778731 C9.15254237,32.2061927 9.45016446,31.8716804 9.85939484,31.8716804 L18.3788272,31.8716804 C22.8059558,31.8716804 26.2286098,34.8451235 26.2286098,38.7477676 C26.2286098,41.6097066 23.8848359,43.8397889 22.1363061,44.6574857 C24.1080524,45.2893424 26.9726651,47.2964165 26.9726651,50.7158761 C26.9726651,54.8786964 23.4012,57.8893075 18.8624631,57.8893075 L9.85939484,57.8893075 C9.45016446,57.8893075 9.15254237,57.5547952 9.15254237,57.1831148 Z M13.9516986,42.7990838 L17.9323941,42.7990838 C19.8297349,42.7990838 21.1318315,41.3123622 21.1318315,39.4539603 C21.1318315,37.5955584 19.8297349,36.294677 17.9323941,36.294677 L13.9516986,36.294677 L13.9516986,42.7990838 Z M13.9516986,53.503479 L18.4532327,53.503479 C20.3133708,53.503479 21.8014812,52.0539255 21.8014812,50.1211874 C21.8014812,48.2627855 19.9413432,46.8875681 18.0067996,46.8875681 L13.9516986,46.8875681 L13.9516986,53.503479 Z M32.1066461,57.1831148 L32.1066461,32.1690247 C32.1066461,31.7973443 32.441471,31.5 32.8134986,31.5 L33.7435676,31.5 L49.2199164,47.9282731 L49.2571191,47.9282731 L49.2571191,32.5778731 C49.2571191,32.2061927 49.5547412,31.8716804 49.9639716,31.8716804 L53.3866256,31.8716804 C53.7586533,31.8716804 54.0934781,32.2061927 54.0934781,32.5778731 L54.0934781,57.5919632 C54.0934781,57.9636436 53.7586533,58.2609879 53.3866256,58.2609879 L52.4937594,58.2609879 L36.9430051,41.2008581 L36.9058024,41.2008581 L36.9058024,57.1831148 C36.9058024,57.5547952 36.6081803,57.8893075 36.1989499,57.8893075 L32.8134986,57.8893075 C32.441471,57.8893075 32.1066461,57.5547952 32.1066461,57.1831148 Z M58.5950122,56.8486025 L66.3331866,44.5459816 L58.8926343,32.9123855 C58.5950122,32.429201 58.8926343,31.8716804 59.5250813,31.8716804 L63.8406016,31.8716804 C64.1382237,31.8716804 64.3242375,32.0575206 64.4358458,32.2061927 L69.1977992,40.085817 L69.235002,40.085817 L74.071361,32.2061927 C74.1457665,32.0575206 74.3689831,31.8716804 74.6666051,31.8716804 L78.9821255,31.8716804 C79.6145724,31.8716804 79.9121945,32.429201 79.6145724,32.9123855 L72.1368174,44.5459816 L79.8749917,56.8486025 C80.1726138,57.368955 79.8749917,57.8893075 79.2425448,57.8893075 L75.2246466,57.8893075 C74.9270245,57.8893075 74.6666051,57.7034673 74.5921996,57.5547952 L69.2722047,49.0433143 L69.1605965,49.0433143 L63.9150071,57.5547952 C63.8033988,57.7034673 63.5801823,57.8893075 63.2825602,57.8893075 L59.2646619,57.8893075 C58.5950122,57.8893075 58.2973901,57.331787 58.5950122,56.8486025 Z" id="BNX" fill="green"></path>
            </g>
        </g>
    </g>
</svg>