<?xml version="1.0" encoding="UTF-8"?>
<svg width="100px" height="100px" viewBox="0 0 100 100" version="1.1" xmlns="http://www.w3.org/2000/svg" xmlns:xlink="http://www.w3.org/1999/xlink">
    <!-- Generator: Sketch 48.2 (47327) - http://www.bohemiancoding.com/sketch -->
    <title>Ethereum</title>
    <defs>
        <polygon id="path-1" points="0.0505449054 0.45779556 49.4640124 0.45779556 49.4640124 36.1190476 0.0505449054 36.1190476"></polygon>
    </defs>
    <g id="Login" stroke="none" stroke-width="1" fill="none" fill-rule="evenodd">
        <g id="Ethereum">
            <g id="Page-1" transform="translate(25.000000, 9.000000)">
                <path d="M26.2755102,29.2173913 L26.2755102,5.89473684 L45.4719388,37.9954233 L26.2755102,29.2173913 Z M26.2755102,32.0366133 L45.9183673,41.006865 L26.2755102,52.5400458 L26.2755102,32.0366133 Z M23.7244898,32.0366133 L23.7244898,52.5400458 L4.08163265,41.006865 L23.7244898,32.0366133 Z M23.7244898,29.2173913 L4.52806122,37.9954233 L23.7244898,5.89473684 L23.7244898,29.2173913 Z M50,40.7505721 L50,40.6224256 C50,40.5583524 50,40.5583524 49.9362245,40.4942792 L49.9362245,40.3661327 C49.9362245,40.3020595 49.872449,40.3020595 49.872449,40.2379863 C49.872449,40.2379863 49.872449,40.173913 49.8086735,40.173913 L26.0841837,0.640732265 C26.0204082,0.576659039 25.9566327,0.448512586 25.8928571,0.384439359 L25.8290816,0.384439359 C25.7653061,0.320366133 25.7015306,0.256292906 25.6377551,0.256292906 C25.6377551,0.256292906 25.5739796,0.256292906 25.5739796,0.19221968 C25.5102041,0.128146453 25.4464286,0.128146453 25.3826531,0.128146453 L25.3188776,0.128146453 C25.1913265,0 25.127551,0 25,0 C24.872449,0 24.8086735,0 24.6811224,0.0640732265 L24.6173469,0.0640732265 C24.5535714,0.0640732265 24.4897959,0.128146453 24.4260204,0.128146453 C24.4260204,0.128146453 24.3622449,0.128146453 24.3622449,0.19221968 C24.2984694,0.256292906 24.2346939,0.256292906 24.1709184,0.320366133 L24.1071429,0.320366133 C24.0433673,0.384439359 23.9795918,0.448512586 23.9158163,0.576659039 L0.191326531,40.173913 C0.191326531,40.173913 0.191326531,40.2379863 0.12755102,40.2379863 C0.12755102,40.3020595 0.0637755102,40.3020595 0.0637755102,40.3661327 L0.0637755102,40.4942792 C0.0637755102,40.5583524 0.0637755102,40.5583524 0,40.6224256 L0,41.1350114 C0,41.1990847 0,41.1990847 0.0637755102,41.2631579 L0.0637755102,41.3272311 C0.12755102,41.4553776 0.191326531,41.5194508 0.255102041,41.583524 L0.318877551,41.6475973 L0.510204082,41.8398169 C0.510204082,41.8398169 0.573979592,41.8398169 0.573979592,41.9038902 L24.3622449,55.8718535 L24.4260204,55.8718535 C24.4897959,55.9359268 24.5535714,55.9359268 24.6173469,55.9359268 L24.6811224,55.9359268 C24.8086735,55.9359268 24.872449,56 25,56 C25.127551,56 25.1913265,56 25.3188776,55.9359268 L25.3826531,55.9359268 C25.4464286,55.9359268 25.5102041,55.8718535 25.5739796,55.8718535 L25.6377551,55.8718535 L49.3622449,41.9679634 C49.4260204,41.9679634 49.4260204,41.9038902 49.4897959,41.9038902 L49.5535714,41.8398169 L49.6811224,41.7116705 L49.744898,41.6475973 C49.744898,41.583524 49.8086735,41.583524 49.8086735,41.5194508 C49.8086735,41.4553776 49.872449,41.4553776 49.872449,41.3913043 C49.872449,41.3272311 49.872449,41.3272311 49.9362245,41.2631579 C49.9362245,41.1990847 49.9362245,41.1990847 50,41.1350114 L50,41.006865 L50,40.8787185 L50,40.7505721 Z" id="Fill-1" fill="green"></path>
                <g id="Group-5" transform="translate(0.000000, 45.000000)">
                    <mask id="mask-2" fill="white">
                        <use xlink:href="#path-1"></use>
                    </mask>
                    <g id="Clip-4"></g>
                    <path d="M26.0759494,30.8597341 L26.0759494,16.5382149 L43.7974684,5.8932345 L26.0759494,30.8597341 Z M23.5443038,16.5382149 L23.5443038,30.8597341 L5.82278481,5.95660125 L23.5443038,16.5382149 Z M47.6582278,0.633794236 L24.8101266,14.384379 L1.96202532,0.633794236 C1.4556962,0.316960485 0.759493671,0.443693985 0.379746835,0.887261236 C6.9388939e-18,1.33019482 -0.0632911392,1.96386232 0.253164557,2.47142999 L23.7974684,35.5482399 L23.8607595,35.6122404 C23.9240506,35.6756071 23.9240506,35.7389739 23.9873418,35.7389739 L24.0506329,35.8023406 C24.1139241,35.8650737 24.1772152,35.8650737 24.1772152,35.9290741 C24.1772152,35.9290741 24.2405063,35.9290741 24.2405063,35.9924409 C24.3037975,35.9924409 24.3670886,36.0558076 24.4303797,36.0558076 L24.4936709,36.0558076 C24.556962,36.0558076 24.6835443,36.1191744 24.7468354,36.1191744 C24.8734177,36.1191744 24.9367089,36.1191744 25,36.0558076 L25.0632911,36.0558076 C25.1265823,36.0558076 25.1898734,35.9924409 25.2531646,35.9924409 C25.2531646,35.9924409 25.3164557,35.9924409 25.3164557,35.9290741 C25.3797468,35.9290741 25.443038,35.8650737 25.443038,35.8023406 L25.5063291,35.7389739 L25.6329114,35.6122404 L25.6962025,35.5482399 L49.2405063,2.47142999 C49.556962,1.96386232 49.556962,1.33019482 49.1139241,0.887261236 C48.6708861,0.443693985 48.2278481,0.379693567 47.6582278,0.633794236 Z" id="Fill-3" fill="green" mask="url(#mask-2)"></path>
                </g>
            </g>
        </g>
    </g>
</svg>