<?xml version="1.0" encoding="UTF-8"?>
<svg width="100px" height="100px" viewBox="0 0 100 100" version="1.1" xmlns="http://www.w3.org/2000/svg" xmlns:xlink="http://www.w3.org/1999/xlink">
    <!-- Generator: Sketch 48.2 (47327) - http://www.bohemiancoding.com/sketch -->
    <title>Euro</title>
    <desc>Created with Sketch.</desc>
    <defs>
        <polygon id="path-1" points="0 0 61 0 61 72 0 72"></polygon>
    </defs>
    <g id="Login" stroke="none" stroke-width="1" fill="none" fill-rule="evenodd">
        <g id="Euro">
            <g id="Page-1" transform="translate(20.000000, 14.000000)">
                <mask id="mask-2" fill="white">
                    <use xlink:href="#path-1"></use>
                </mask>
                <g id="Clip-2"></g>
                <path d="M37.6548659,3.052243 C34.1893188,3.37525397 29.9825346,4.42785853 26.9998788,5.71857589 C21.6552161,8.04531614 16.6896217,12.2915508 13.3964396,17.386767 C12.4996701,18.7796275 10.9139791,22.0402475 10.4137838,23.5352511 L10.0172096,24.6899987 L7.27546087,24.6899987 C3.12052087,24.6899987 3,24.8087235 3,28.6815388 C3,32.4177212 3.22420921,32.673079 6.53422389,32.673079 L8.51709511,32.673079 L8.51709511,35.4753816 L8.51709511,38.2776842 L6.53422389,38.2776842 C3.22360324,38.2776842 3,38.5323787 3,42.2692243 C3,46.1247947 3.13809402,46.2607645 7.13810749,46.2607645 C9.06913454,46.2607645 9.75866202,46.311836 9.79293303,46.4643874 C10.5343047,48.8083726 11.1031766,50.3710294 11.7064543,51.6445018 C16.4478394,61.6651379 27.4994008,67.9834183 40.25778,68 C45.7923136,68 51.7059156,66.7603542 55.7746731,64.7732066 C57.4296468,63.9580516 57.9992594,63.4990709 57.9992594,63.0069269 C57.9992594,62.3443232 56.0507938,56.2814006 55.7235022,55.941808 C55.2582513,55.4496639 54.3789876,55.5173172 52.9475499,56.1626758 C46.7060503,59.01605 40.4995624,59.5937555 34.4646988,57.895129 C32.4818949,57.3346684 29.7752252,56.0439511 28.3437201,54.9568566 C26.0336246,53.2416485 23.1889282,49.9127119 21.809402,47.3651038 L21.2579685,46.3463259 L30.7064004,46.2614277 C40.8961366,46.1765296 40.6887599,46.1937745 41.1889552,45.2426498 C41.5680236,44.5296379 41.5511911,40.0113975 41.1889552,39.2983856 C40.6369157,38.262429 40.9129691,38.279674 29.585287,38.279674 L19.2414322,38.279674 L19.1208441,36.8529869 C19.0171557,35.5622695 19.086573,34.1017559 19.3107149,33.048488 L19.3793916,32.6750688 L29.6553103,32.6750688 C40.9142484,32.6750688 40.6382623,32.6923137 41.1896285,31.6562908 C41.3788934,31.2828716 41.4482434,30.5691964 41.4482434,28.6841919 C41.4482434,26.7991874 41.3788934,26.0855122 41.1896285,25.712093 C40.6550949,24.6760701 40.7756157,24.693315 30.9312829,24.693315 C25.9999596,24.693315 21.9655405,24.6422435 21.9655405,24.5911719 C21.9655405,24.268161 23.5687373,21.6018281 24.4830799,20.3960089 C25.7414794,18.731209 28.0347423,16.5404384 29.4655068,15.6065587 C31.7930408,14.0777285 34.723987,12.9229808 37.4824336,12.4474185 C39.5683872,12.0739992 43.7582715,12.1588974 45.9135078,12.6172148 C48.1374207,13.0755322 50.534372,13.823034 52.6203256,14.7065055 C54.0685286,15.3007926 54.2927378,15.3518642 54.827406,15.1820679 C55.1553036,15.0633431 55.4999663,14.8252303 55.6204872,14.6216073 C55.8966079,14.1288 58,7.55648844 58,7.21623253 C58,6.72342523 57.4828376,6.19745458 56.6553507,5.82337206 C54.5001145,4.87224734 50.9310136,3.93836756 47.3625187,3.37790704 C45.7237042,3.10331455 39.3273454,2.89969161 37.6548659,3.052243" id="Fill-1" stroke="green" stroke-width="2" mask="url(#mask-2)"></path>
            </g>
        </g>
    </g>
</svg>